<?xml version="1.0" encoding="utf-8"?>
<!-- Generator: Adobe Illustrator 23.0.2, SVG Export Plug-In . SVG Version: 6.00 Build 0)  -->
<svg version="1.1" id="Livello_1" xmlns="http://www.w3.org/2000/svg" xmlns:xlink="http://www.w3.org/1999/xlink" x="0px" y="0px"
	 viewBox="0 0 901 616.5" style="enable-background:new 0 0 901 616.5;" xml:space="preserve">
<style type="text/css">
	.st0{fill:#FFFFFF;}
	.st1{fill:#24282F;}
</style>
<g>
	
		<image style="overflow:visible;opacity:0.75;" width="1071" height="806" xlink:href="27DBE14E62D4C0BB.png"  transform="matrix(1 0 0 1 -84.3968 -91.9264)">
	</image>
	<g>
		<path class="st0" d="M823.1,567.9H78.9C65.7,567.9,55,557.2,55,544V65.3c0-13.1,10.7-23.9,23.9-23.9h744.3
			c13.1,0,23.9,10.7,23.9,23.9V544C847,557.2,836.3,567.9,823.1,567.9z"/>
	</g>
</g>
<path class="st1" d="M117.9,83.8V179h-17.2V83.8H117.9z"/>
<path class="st1" d="M150.1,83.8v9.5c0,4.1-1.2,8.4-3.4,12.8c-2.2,4.4-5.1,8-8.5,10.8l-7.8-5.1c1.7-2.5,3.2-5.4,4.5-8.3
	c1.3-3,2-6.3,2-10.1v-9.6C136.8,83.8,150.1,83.8,150.1,83.8z"/>
<path class="st1" d="M165.7,179v-71.3h16.1v12.1h0.9c1.5-4.1,3.9-7.2,7.4-9.6c3.4-2.3,7.5-3.5,12.3-3.5s8.9,1.2,12.2,3.5
	c3.3,2.3,5.7,5.5,7,9.6h0.8c1.6-4,4.3-7.1,8-9.5c3.8-2.3,8.2-3.5,13.4-3.5c6.5,0,11.9,2,16.1,6.2c4.2,4.2,6.2,10.2,6.2,18.1v47.9
	h-16.9v-45.4c0-4.4-1.2-7.7-3.5-9.8s-5.3-3.1-8.7-3.1c-4.1,0-7.2,1.3-9.5,3.8s-3.4,5.8-3.4,9.9V179h-16.5v-46.1
	c0-3.7-1.1-6.6-3.3-8.8c-2.2-2.2-5.1-3.3-8.7-3.3c-3.6,0-6.7,1.4-9.3,4.1c-2.5,2.7-3.8,6.2-3.8,10.6v43.3L165.7,179L165.7,179z"/>
<path class="st1" d="M333.5,83.8V179h-17.3V83.8H333.5z"/>
<path class="st1" d="M368.2,137.1v41.8h-16.8v-71.2h16.1v12.1h0.9c1.7-4,4.3-7.1,7.9-9.5c3.6-2.3,8.1-3.5,13.4-3.5
	c7.3,0,13.3,2.3,17.8,7c4.5,4.7,6.7,11.3,6.6,19.8V179h-16.8v-42.8c0-4.8-1.3-8.5-3.7-11.2c-2.4-2.7-5.9-4-10.1-4
	c-4.4,0-8,1.5-10.8,4.3C369.6,127.9,368.2,131.9,368.2,137.1z"/>
<path class="st1" d="M466.8,107.6v13h-14.1v36.9c0,3.4,0.8,5.6,2.2,6.6c1.5,1.1,3.3,1.6,5.4,1.6c1.1,0,2-0.1,2.9-0.2
	c0.9-0.2,1.6-0.3,2-0.4l2.8,13.2c-0.9,0.3-2.1,0.7-3.8,1c-1.7,0.4-3.7,0.6-6,0.7c-6.3,0.2-11.6-1.4-15.9-4.7
	c-4.3-3.3-6.4-8.3-6.3-15v-39.6h-10.1v-13h10.1V90.5h16.8v17.1L466.8,107.6L466.8,107.6z"/>
<path class="st1" d="M511.7,180.3c-7.1,0-13.3-1.5-18.5-4.5c-5.2-3-9.2-7.2-12-12.7c-2.8-5.5-4.2-11.9-4.2-19.4
	c0-7.3,1.4-13.8,4.2-19.3c2.8-5.6,6.7-9.9,11.8-13c5.1-3.1,11-4.7,17.8-4.7c5.9,0,11.2,1.3,16.2,3.8c5,2.5,8.9,6.4,11.9,11.7
	c3,5.3,4.5,12.1,4.5,20.5v5.2h-49.7c0.1,6,1.8,10.8,5.1,14.2c3.3,3.4,7.7,5.1,13.1,5.1c3.6,0,6.7-0.8,9.4-2.3s4.6-3.8,5.7-6.8
	l15.7,1.8c-1.5,6.1-5,11.1-10.3,14.9C526.9,178.5,520,180.3,511.7,180.3z M493.7,136.5h33.6c0-4.9-1.6-8.9-4.5-12
	c-3-3.1-6.9-4.8-11.7-4.8c-5,0-9.1,1.7-12.2,5C495.7,128,494,131.9,493.7,136.5z"/>
<path class="st1" d="M557.6,179v-71.3h16.3v11.9h0.8c1.3-4.2,3.5-7.3,6.7-9.6c3.1-2.2,6.8-3.3,10.9-3.3c2,0,3.7,0.2,5.3,0.7
	s3,1.1,4.3,2l-5.2,14c-0.9-0.4-1.9-0.8-2.9-1.1c-1.1-0.3-2.3-0.4-3.7-0.4c-4.4,0-8.1,1.5-11,4.3c-3,2.8-4.5,6.5-4.5,11v42L557.6,179
	L557.6,179z"/>
<path class="st1" d="M101.9,237.8V255h-4.4v-28.5h4.2v4.5h0.4c0.7-1.4,1.7-2.6,3-3.5c1.4-0.9,3.1-1.3,5.3-1.3c2.9,0,5.2,0.9,7,2.7
	c1.8,1.7,2.7,4.5,2.7,8.1V255h-4.4v-17.8c0-2.2-0.6-4-1.7-5.2c-1.2-1.2-2.7-1.9-4.8-1.9c-2.1,0-3.8,0.7-5.2,2.1
	C102.7,233.4,101.9,235.3,101.9,237.8z"/>
<path class="st1" d="M130.3,221.7c-0.9,0-1.6-0.3-2.2-0.9c-0.6-0.6-0.9-1.3-0.9-2.1c0-0.8,0.3-1.5,0.9-2.1c0.6-0.6,1.4-0.9,2.2-0.9
	c0.9,0,1.6,0.3,2.2,0.9c0.6,0.6,0.9,1.3,0.9,2.1c0,0.8-0.3,1.5-0.9,2.1C131.9,221.5,131.2,221.7,130.3,221.7z M128.1,255v-28.5h4.4
	V255H128.1z"/>
<path class="st1" d="M152.1,255.5c-2.7,0-5-0.6-6.9-1.9s-3.4-3-4.5-5.2c-1.1-2.2-1.6-4.7-1.6-7.6c0-2.9,0.6-5.5,1.6-7.6
	c1.1-2.2,2.5-4,4.5-5.2c1.9-1.2,4.2-1.9,6.7-1.9c2,0,3.8,0.4,5.4,1.1c1.6,0.7,2.9,1.8,4,3.1c1.1,1.3,1.7,2.9,1.9,4.7h-4.4
	c-0.3-1.3-1.1-2.4-2.2-3.5c-1.1-1-2.7-1.5-4.6-1.5c-2.5,0-4.6,1-6.2,2.9c-1.6,1.9-2.4,4.5-2.4,7.8c0,3.3,0.7,6,2.3,8
	c1.6,2,3.6,3,6.2,3c1.7,0,3.2-0.4,4.4-1.3c1.2-0.9,2.1-2.1,2.4-3.7h4.4c-0.2,1.7-0.9,3.2-1.8,4.5c-1,1.4-2.2,2.4-3.9,3.2
	C156,255.1,154.2,255.5,152.1,255.5z"/>
<path class="st1" d="M181.6,255.5c-2.7,0-5.1-0.6-7.1-1.8s-3.5-2.9-4.6-5.1c-1.1-2.2-1.6-4.7-1.6-7.6s0.6-5.5,1.6-7.7
	c1.1-2.2,2.5-4,4.5-5.2c1.9-1.2,4.2-1.9,6.7-1.9c1.5,0,2.9,0.2,4.4,0.7c1.4,0.5,2.7,1.3,4,2.4c1.2,1.1,2.1,2.5,2.9,4.4
	c0.7,1.8,1.1,4,1.1,6.7v1.9h-20.7c0.1,3,0.9,5.3,2.6,7c1.6,1.6,3.7,2.4,6.3,2.4c1.7,0,3.2-0.4,4.4-1.1c1.2-0.7,2.1-1.9,2.7-3.4
	l4.2,1.2c-0.7,2.2-2,3.9-4,5.2C186.9,255,184.4,255.5,181.6,255.5z M172.7,238.4h16.2c0-2.4-0.7-4.4-2.1-6c-1.4-1.6-3.3-2.4-5.7-2.4
	c-1.7,0-3.1,0.4-4.4,1.2c-1.2,0.8-2.2,1.8-2.9,3.1C173.2,235.6,172.8,236.9,172.7,238.4z"/>
<path class="st1" d="M227.1,226.4v3.7H221v16.6c0,1.2,0.2,2.2,0.6,2.8c0.4,0.6,0.8,1,1.4,1.2c0.6,0.2,1.2,0.3,1.8,0.3
	c0.5,0,0.9,0,1.2-0.1s0.6-0.1,0.7-0.1l0.9,3.9c-0.3,0.1-0.7,0.2-1.2,0.4c-0.6,0.1-1.2,0.2-2.1,0.2c-1.2,0-2.4-0.2-3.6-0.8
	c-1.2-0.6-2.2-1.4-2.9-2.4c-0.7-1.1-1.2-2.5-1.2-4.1v-17.8h-4.3v-3.7h4.3v-6.8h4.4v6.8h6.2V226.4z"/>
<path class="st1" d="M245,255.5c-2.5,0-4.8-0.6-6.8-1.9s-3.4-2.9-4.5-5.2c-1.1-2.2-1.6-4.8-1.6-7.7c0-3,0.6-5.5,1.6-7.8
	s2.6-3.9,4.5-5.2s4.2-1.9,6.8-1.9s4.8,0.6,6.8,1.9s3.4,2.9,4.5,5.2c1.1,2.2,1.6,4.8,1.6,7.8c0,2.9-0.6,5.5-1.6,7.7
	c-1.1,2.2-2.6,3.9-4.5,5.2C249.8,254.9,247.5,255.5,245,255.5z M245,251.6c1.9,0,3.5-0.5,4.8-1.5c1.2-1,2.2-2.3,2.8-4
	c0.6-1.6,0.9-3.4,0.9-5.3c0-1.9-0.3-3.7-0.9-5.3c-0.6-1.6-1.6-3-2.8-4S247,230,245,230c-2,0-3.5,0.5-4.8,1.5s-2.2,2.4-2.8,4
	c-0.6,1.6-0.9,3.4-0.9,5.3c0,1.9,0.3,3.7,0.9,5.3c0.6,1.6,1.6,2.9,2.8,4C241.4,251.1,243,251.6,245,251.6z"/>
<path class="st1" d="M279.2,255v-28.5h4.2v4.5h0.4c0.6-1.5,1.6-2.7,2.9-3.5c1.3-0.9,2.9-1.2,4.8-1.2s3.4,0.4,4.7,1.2
	c1.2,0.9,2.2,2.1,2.9,3.5h0.3c0.7-1.5,1.8-2.7,3.3-3.5c1.4-0.9,3.2-1.3,5.2-1.3c2.5,0,4.6,0.8,6.3,2.4c1.6,1.6,2.4,4,2.4,7.4V255
	h-4.4v-19.1c0-2.1-0.6-3.6-1.7-4.5c-1.1-0.9-2.5-1.4-4-1.4c-2,0-3.5,0.6-4.7,1.8c-1.1,1.2-1.7,2.7-1.7,4.6V255h-4.5v-19.5
	c0-1.6-0.5-2.9-1.6-3.9c-1.1-1-2.4-1.5-4-1.5c-1.1,0-2.2,0.3-3.2,0.9c-1,0.6-1.8,1.4-2.4,2.5c-0.6,1.1-0.9,2.3-0.9,3.7V255H279.2z"
	/>
<path class="st1" d="M336.6,255.5c-2.7,0-5.1-0.6-7.1-1.8s-3.5-2.9-4.6-5.1c-1.1-2.2-1.6-4.7-1.6-7.6s0.6-5.5,1.6-7.7
	c1.1-2.2,2.5-4,4.5-5.2c1.9-1.2,4.2-1.9,6.7-1.9c1.5,0,2.9,0.2,4.4,0.7c1.4,0.5,2.7,1.3,4,2.4c1.2,1.1,2.1,2.5,2.9,4.4
	c0.7,1.8,1.1,4,1.1,6.7v1.9h-20.7c0.1,3,0.9,5.3,2.6,7c1.6,1.6,3.7,2.4,6.3,2.4c1.7,0,3.2-0.4,4.4-1.1c1.2-0.7,2.1-1.9,2.7-3.4
	l4.2,1.2c-0.7,2.2-2,3.9-4,5.2C341.9,255,339.4,255.5,336.6,255.5z M327.7,238.4h16.2c0-2.4-0.7-4.4-2.1-6c-1.4-1.6-3.3-2.4-5.7-2.4
	c-1.7,0-3.1,0.4-4.4,1.2c-1.2,0.8-2.2,1.8-2.9,3.1C328.2,235.6,327.8,236.9,327.7,238.4z"/>
<path class="st1" d="M367,255.5c-2.7,0-5.1-0.6-7.1-1.8c-2-1.2-3.5-2.9-4.6-5.1c-1.1-2.2-1.6-4.7-1.6-7.6s0.6-5.5,1.6-7.7
	c1.1-2.2,2.5-4,4.5-5.2c1.9-1.2,4.2-1.9,6.7-1.9c1.5,0,2.9,0.2,4.4,0.7c1.4,0.5,2.7,1.3,4,2.4c1.2,1.1,2.1,2.5,2.9,4.4
	c0.7,1.8,1.1,4,1.1,6.7v1.9h-20.7c0.1,3,0.9,5.3,2.6,7c1.6,1.6,3.7,2.4,6.3,2.4c1.7,0,3.2-0.4,4.4-1.1c1.2-0.7,2.1-1.9,2.7-3.4
	l4.2,1.2c-0.7,2.2-2,3.9-4,5.2C372.3,255,369.8,255.5,367,255.5z M358.1,238.4h16.2c0-2.4-0.7-4.4-2.1-6c-1.4-1.6-3.3-2.4-5.7-2.4
	c-1.7,0-3.1,0.4-4.4,1.2c-1.2,0.8-2.2,1.8-2.9,3.1C358.6,235.6,358.2,236.9,358.1,238.4z"/>
<path class="st1" d="M397.8,226.4v3.7h-6.1v16.6c0,1.2,0.2,2.2,0.6,2.8c0.4,0.6,0.8,1,1.4,1.2c0.6,0.2,1.2,0.3,1.8,0.3
	c0.5,0,0.9,0,1.2-0.1c0.3-0.1,0.6-0.1,0.7-0.1l0.9,3.9c-0.3,0.1-0.7,0.2-1.2,0.4c-0.6,0.1-1.2,0.2-2.1,0.2c-1.2,0-2.4-0.2-3.6-0.8
	c-1.2-0.6-2.2-1.4-2.9-2.4c-0.7-1.1-1.2-2.5-1.2-4.1v-17.8H383v-3.7h4.3v-6.8h4.4v6.8h6.2V226.4z"/>
<path class="st1" d="M421.8,266c-0.7,0-1.4-0.1-2-0.2c-0.6-0.1-1-0.2-1.2-0.4l1.1-3.9c1.6,0.4,2.9,0.4,4,0c1.1-0.4,2-1.7,2.7-3.9
	l1-2.7l-10.5-28.6h4.7l7.8,22.7h0.3l7.8-22.7h4.7l-12.2,33.1C428.6,263.8,425.8,266,421.8,266z"/>
<path class="st1" d="M458.7,255.5c-2.5,0-4.8-0.6-6.8-1.9s-3.4-2.9-4.5-5.2c-1.1-2.2-1.6-4.8-1.6-7.7c0-3,0.6-5.5,1.6-7.8
	s2.6-3.9,4.5-5.2s4.2-1.9,6.8-1.9s4.8,0.6,6.8,1.9s3.4,2.9,4.5,5.2s1.6,4.8,1.6,7.8c0,2.9-0.6,5.5-1.6,7.7c-1.1,2.2-2.6,3.9-4.5,5.2
	S461.2,255.5,458.7,255.5z M458.7,251.6c1.9,0,3.5-0.5,4.8-1.5c1.2-1,2.2-2.3,2.8-4c0.6-1.7,0.9-3.4,0.9-5.3c0-1.9-0.3-3.7-0.9-5.3
	c-0.6-1.7-1.6-3-2.8-4s-2.9-1.5-4.8-1.5c-1.9,0-3.5,0.5-4.8,1.5c-1.3,1-2.2,2.4-2.8,4c-0.6,1.6-0.9,3.4-0.9,5.3
	c0,1.9,0.3,3.7,0.9,5.3c0.6,1.6,1.6,2.9,2.8,4C455.1,251.1,456.7,251.6,458.7,251.6z"/>
<path class="st1" d="M496.2,243.3v-16.8h4.4v28.5h-4.4V250h-0.3c-0.7,1.4-1.7,2.7-3.1,3.7c-1.4,1-3.2,1.5-5.3,1.5
	c-2.7,0-4.8-0.9-6.6-2.7c-1.7-1.8-2.6-4.5-2.6-8.1v-18.1h4.4v17.9c0,2.1,0.6,3.7,1.7,5c1.2,1.2,2.7,1.9,4.5,1.9
	c1.1,0,2.2-0.2,3.4-0.8c1.1-0.6,2.1-1.4,2.9-2.5C495.8,246.5,496.2,245.1,496.2,243.3z"/>
<path class="st1" d="M511.8,255.2c-0.9,0-1.7-0.3-2.4-1c-0.7-0.7-1-1.4-1-2.4s0.3-1.7,1-2.4c0.7-0.7,1.4-1,2.4-1s1.7,0.3,2.4,1
	c0.7,0.7,1,1.4,1,2.4s-0.3,1.7-1,2.4C513.5,254.9,512.8,255.2,511.8,255.2z M514.4,217l-0.4,27.3h-4.3l-0.4-27.3H514.4z"/>
<g>
	<path class="st1" d="M94.7,382.4v-26.6h8.9c2,0,3.8,0.4,5.1,1c1.3,0.7,2.3,1.7,2.9,2.9s1,2.6,1,4.2c0,1.8-0.4,3.3-1.2,4.6
		s-2,2.3-3.7,2.9l6,11h-3.7l-5.6-10.4c-0.2,0-0.4,0-0.7,0h-5.9v10.4L94.7,382.4L94.7,382.4z M97.9,369.1h5.7c2.1,0,3.7-0.4,4.5-1.4
		s1.4-2.2,1.4-3.7c0-1.6-0.4-2.9-1.4-3.9c-0.9-1-2.4-1.5-4.6-1.5h-5.6V369.1z"/>
	<path class="st1" d="M125.8,382.8c-1.9,0-3.6-0.4-5-1.2c-1.4-0.8-2.5-2-3.2-3.6c-0.7-1.5-1.1-3.3-1.1-5.3s0.4-3.9,1.1-5.4
		c0.7-1.5,1.8-2.8,3.1-3.7c1.3-0.9,2.9-1.3,4.8-1.3c1,0,2,0.1,3.1,0.5c1,0.4,1.9,0.9,2.8,1.7c0.8,0.8,1.5,1.8,2,3.1s0.7,2.9,0.7,4.7
		v1.3h-14.5c0.1,2.1,0.7,3.7,1.8,4.9c1.2,1.2,2.6,1.7,4.4,1.7c1.2,0,2.3-0.3,3.1-0.8c0.9-0.5,1.5-1.3,1.9-2.3l2.9,0.8
		c-0.4,1.5-1.4,2.7-2.8,3.7C129.5,382.4,127.8,382.8,125.8,382.8z M119.6,370.8h11.3c0-1.7-0.5-3.1-1.5-4.2s-2.3-1.7-4-1.7
		c-1.2,0-2.2,0.3-3.1,0.8s-1.5,1.2-2,2.2C119.9,368.8,119.7,369.8,119.6,370.8z"/>
	<path class="st1" d="M146.8,390.3c-2.2,0-4-0.4-5.3-1.2c-1.3-0.8-2.3-1.8-2.9-2.8l2.4-1.7c0.3,0.4,0.7,0.8,1,1.2
		c0.4,0.4,1,0.9,1.8,1.2c0.7,0.4,1.7,0.5,2.9,0.5c1.6,0,2.9-0.4,4-1.2c1-0.8,1.5-2,1.5-3.7v-4h-0.3c-0.2,0.4-0.5,0.8-1,1.3
		s-1,1-1.8,1.4c-0.7,0.4-1.8,0.6-3.1,0.6c-1.6,0-3.1-0.4-4.3-1.2c-1.2-0.7-2.3-1.9-3-3.3c-0.7-1.5-1.1-3.2-1.1-5.3s0.4-3.8,1.1-5.3
		c0.7-1.5,1.7-2.7,3-3.5c1.3-0.8,2.8-1.2,4.5-1.2c1.3,0,2.3,0.2,3.1,0.7c0.7,0.4,1.4,0.9,1.8,1.5c0.4,0.5,0.7,1,1,1.3h0.3v-3.1h2.9
		V383c0,1.7-0.4,3.1-1.2,4.2c-0.8,1.1-1.8,1.9-3.1,2.3C149.9,390.1,148.4,390.3,146.8,390.3z M146.7,379.4c1.8,0,3.3-0.7,4.2-1.9
		c1-1.2,1.5-3,1.5-5.2c0-2.1-0.5-4-1.5-5.3c-1-1.3-2.4-2-4.2-2c-1.3,0-2.4,0.3-3.2,1c-0.9,0.7-1.5,1.5-1.9,2.6
		c-0.4,1.1-0.7,2.3-0.7,3.7c0,2,0.5,3.8,1.5,5.1C143.3,378.7,144.7,379.4,146.7,379.4z"/>
	<path class="st1" d="M173.6,374.2v-11.8h3.1v20h-3.1v-3.4h-0.2c-0.4,1-1.2,1.9-2.2,2.6c-1,0.7-2.3,1-3.7,1c-1.9,0-3.4-0.6-4.6-1.8
		c-1.2-1.2-1.8-3.1-1.8-5.7v-12.7h3.1v12.4c0,1.5,0.4,2.6,1.2,3.5c0.8,0.9,1.8,1.3,3.1,1.3c0.7,0,1.5-0.2,2.3-0.6s1.5-1,2-1.8
		C173.3,376.5,173.6,375.5,173.6,374.2z"/>
	<path class="st1" d="M185.3,355.8v26.6h-3.1v-26.6H185.3z"/>
	<path class="st1" d="M196.8,382.9c-1.2,0-2.4-0.2-3.4-0.7c-1-0.5-1.8-1.2-2.5-2.1c-0.6-0.9-0.9-2-0.9-3.3c0-1.2,0.2-2,0.7-2.8
		c0.4-0.7,1-1.2,1.8-1.7c0.7-0.4,1.6-0.7,2.5-1c0.9-0.2,1.8-0.4,2.8-0.5c1.2-0.1,2.2-0.3,2.9-0.4c0.7-0.1,1.3-0.2,1.7-0.4
		c0.4-0.2,0.5-0.5,0.5-1l0,0c0-1.3-0.4-2.3-1-3c-0.7-0.7-1.8-1.1-3.1-1.1c-1.5,0-2.6,0.3-3.4,1c-0.8,0.7-1.4,1.3-1.8,2l-2.9-1
		c0.5-1.2,1.2-2.2,2.1-2.9c0.9-0.7,1.8-1.2,2.9-1.5c1-0.3,2-0.4,3.1-0.4c0.7,0,1.4,0.1,2.2,0.2c0.8,0.1,1.6,0.4,2.4,1
		c0.8,0.4,1.5,1.2,2,2.1c0.5,1,0.8,2.2,0.8,3.8v13.2H203v-2.7h-0.1c-0.2,0.4-0.6,0.9-1,1.4c-0.5,0.5-1.1,0.9-1.9,1.2
		C198.9,382.7,198,382.9,196.8,382.9z M197.3,380.1c1.2,0,2.3-0.2,3.1-0.7c0.8-0.5,1.5-1.1,1.9-1.8c0.4-0.7,0.7-1.5,0.7-2.3v-2.8
		c-0.1,0.1-0.4,0.3-0.9,0.4c-0.4,0.1-1,0.2-1.5,0.3s-1.1,0.1-1.7,0.2c-0.6,0.1-1,0.1-1.3,0.1c-0.8,0.1-1.5,0.3-2.2,0.5
		c-0.7,0.2-1.2,0.6-1.7,1c-0.4,0.4-0.7,1.1-0.7,1.8c0,1.1,0.4,1.9,1.2,2.4C195.1,379.9,196.1,380.1,197.3,380.1z"/>
	<path class="st1" d="M211.6,382.4v-20h2.9v3h0.2c0.4-1,1-1.8,2-2.4c1-0.6,2-1,3.2-1c0.6,0,1,0.1,1.5,0.2c0.4,0.1,0.8,0.3,1.1,0.5
		l-1,2.6c-0.2-0.1-0.4-0.2-0.7-0.3c-0.3-0.1-0.7-0.1-1-0.1c-1.5,0-2.6,0.4-3.6,1.3c-1,0.9-1.5,2-1.5,3.4v12.7L211.6,382.4
		L211.6,382.4z"/>
	<path class="st1" d="M93,435.1l4.4-26.6h9c2,0,3.7,0.4,5,1c1.2,0.7,2,1.7,2.5,2.9c0.4,1.2,0.5,2.6,0.3,4.2c-0.3,1.8-1,3.3-2,4.6
		s-2.4,2.3-4.2,2.9l4.2,11h-3.7l-3.9-10.4c-0.2,0-0.4,0-0.7,0h-5.8l-1.8,10.4H93L93,435.1z M98.4,421.8h5.7c2.1,0,3.7-0.4,4.8-1.4
		c1-1,1.7-2.2,2-3.7c0.3-1.6,0-2.9-0.7-3.9c-0.7-1-2.2-1.5-4.4-1.5h-5.6L98.4,421.8z"/>
	<path class="st1" d="M124.1,435.5c-1.9,0-3.5-0.4-4.8-1.2s-2.1-2-2.6-3.6c-0.5-1.5-0.6-3.3-0.2-5.3c0.4-2,1-3.9,2-5.4
		c1-1.5,2.3-2.8,3.7-3.7s3.1-1.3,4.9-1.3c1,0,2,0.1,3,0.5c1,0.4,1.8,0.9,2.5,1.7c0.7,0.8,1.2,1.8,1.5,3.1c0.3,1.2,0.3,2.9-0.1,4.7
		l-0.2,1.3h-14.4c-0.4,2.4-0.1,4.2,0.9,5.1c1,1,2.3,1.5,4.3,1.5c1.2,0,2.3-0.3,3.2-0.8c1-0.5,1.7-1.3,2.3-2.3l2.8,0.8
		c-0.7,1.5-1.8,2.7-3.4,3.7C127.9,435,126.1,435.5,124.1,435.5z M119.8,423.5h11.4c0.3-1.7,0.1-3.1-0.7-4.2c-0.8-1.1-2-1.7-3.7-1.7
		c-1.1,0-2.2,0.3-3.1,0.9c-1,0.6-1.8,1.3-2.5,2.2C120.5,421.7,120,422.5,119.8,423.5z"/>
	<path class="st1" d="M143.9,442.9c-1.5,0-2.7-0.2-3.7-0.6c-1-0.4-1.8-0.9-2.4-1.5c-0.6-0.6-1.1-1.2-1.4-2l2.8-1.7
		c0.2,0.4,0.5,0.8,0.8,1.2c0.3,0.4,0.8,0.9,1.5,1.2c0.7,0.4,1.6,0.5,2.9,0.5c1.6,0,3-0.4,4.2-1.2c1.2-0.8,2-2,2.3-3.7l0.7-4h-0.3
		c-0.3,0.4-0.7,0.8-1.2,1.3c-0.5,0.5-1.2,1-2,1.4c-0.8,0.4-1.9,0.6-3.2,0.6c-1.6,0-3-0.4-4.2-1.2c-1.2-0.7-2-1.9-2.5-3.3
		c-0.5-1.4-0.6-3.2-0.2-5.3c0.4-2,1-3.8,2-5.3c1-1.5,2.2-2.7,3.6-3.5c1.4-0.8,3-1.2,4.7-1.2c1.3,0,2.3,0.2,3,0.7
		c0.7,0.4,1.2,0.9,1.5,1.5c0.3,0.5,0.6,1,0.7,1.3h0.3l0.5-3.1h2.9l-3.4,20.6c-0.3,1.7-0.9,3.1-1.8,4.2c-1,1-2.1,1.9-3.5,2.3
		S145.5,442.9,143.9,442.9z M145.5,432c1.8,0,3.4-0.7,4.6-1.9c1.2-1.2,2-3,2.3-5.2c0.4-2.1,0.1-4-0.7-5.3c-0.8-1.3-2.1-2-4-2
		c-1.3,0-2.4,0.3-3.4,1s-1.7,1.5-2.3,2.6c-0.6,1.1-1,2.3-1.2,3.7c-0.4,2-0.1,3.8,0.6,5.1C142.3,431.4,143.6,432,145.5,432z"/>
	<path class="st1" d="M173.3,426.9l2-11.8h3.1l-3.3,20H172l0.6-3.4h-0.2c-0.7,1-1.5,1.9-2.6,2.6c-1.2,0.7-2.4,1-4,1
		c-1.9,0-3.3-0.6-4.3-1.8c-1-1.2-1.3-3.1-0.9-5.7l2.1-12.7h3.1l-2,12.4c-0.2,1.5,0,2.6,0.7,3.5c0.7,0.9,1.7,1.3,2.9,1.3
		c0.7,0,1.5-0.2,2.4-0.6c0.9-0.4,1.6-1,2.3-1.8C172.7,429.2,173.1,428.2,173.3,426.9z"/>
	<path class="st1" d="M188.1,408.5l-4.4,26.6h-3.1l4.4-26.6H188.1z"/>
	<path class="st1" d="M195.1,435.6c-1.2,0-2.3-0.2-3.3-0.7c-1-0.5-1.7-1.2-2.1-2.1c-0.4-0.9-0.6-2-0.4-3.3c0.2-1.2,0.6-2,1.2-2.8
		c0.6-0.7,1.2-1.2,2.1-1.7c0.8-0.4,1.7-0.7,2.6-1s1.9-0.4,2.9-0.4c1.2-0.1,2.2-0.3,3-0.4c0.8-0.1,1.3-0.2,1.8-0.4
		c0.4-0.2,0.7-0.5,0.7-1v-0.1c0.2-1.2,0.1-2.3-0.5-3c-0.6-0.7-1.5-1.1-2.9-1.1c-1.5,0-2.7,0.3-3.7,1c-1,0.7-1.7,1.3-2.2,2l-2.7-1
		c0.7-1.2,1.5-2.2,2.6-2.9c1-0.7,2-1.2,3.1-1.5c1.1-0.3,2.1-0.4,3.1-0.4c0.7,0,1.4,0.1,2.2,0.2c0.8,0.1,1.5,0.4,2.3,1
		c0.7,0.4,1.2,1.2,1.6,2.1c0.4,1,0.4,2.2,0.1,3.8l-2.2,13.2h-3.1l0.4-2.7h-0.1c-0.3,0.4-0.7,0.9-1.2,1.4c-0.6,0.5-1.3,0.9-2.1,1.2
		C197.3,435.4,196.3,435.6,195.1,435.6z M196,432.8c1.2,0,2.3-0.2,3.2-0.7c0.9-0.5,1.7-1.1,2.2-1.8c0.6-0.7,0.9-1.5,1-2.3l0.4-2.8
		c-0.1,0.1-0.4,0.3-1,0.4c-0.4,0.1-1,0.2-1.5,0.3c-0.6,0.1-1.2,0.1-1.7,0.2c-0.5,0.1-1,0.1-1.3,0.1c-0.8,0.1-1.6,0.3-2.3,0.5
		c-0.7,0.2-1.3,0.6-1.8,1c-0.5,0.4-0.8,1.1-1,1.8c-0.1,1.1,0.1,1.9,0.7,2.4C193.8,432.6,194.9,432.8,196,432.8z"/>
	<path class="st1" d="M210,435.1l3.3-20h2.9l-0.5,3h0.2c0.5-1,1.3-1.8,2.3-2.4c1-0.6,2.2-1,3.4-1c1,0,1.8,0.2,2.4,0.7l-1.5,2.6
		c-0.4-0.2-1-0.3-1.7-0.3c-1,0-1.9,0.2-2.7,0.6c-0.8,0.4-1.5,1-2,1.7c-0.6,0.7-0.9,1.5-1,2.4l-2,12.7H210z"/>
	<path class="st1" d="M242.3,408.5l-4.4,26.6h-3.2l4.4-26.6H242.3z"/>
	<path class="st1" d="M255.9,415.1l-0.4,2.6h-4.3l-1.9,11.6c-0.1,0.9-0.1,1.5,0.1,2c0.2,0.4,0.4,0.7,0.9,0.9
		c0.4,0.1,0.8,0.2,1.2,0.2c0.4,0,0.6,0,0.8-0.1c0.2-0.1,0.4-0.1,0.5-0.1l0.2,2.8c-0.2,0.1-0.5,0.1-1,0.2c-0.4,0.1-0.9,0.1-1.5,0.1
		c-0.9,0-1.7-0.2-2.4-0.6c-0.7-0.4-1.3-1-1.8-1.7c-0.4-0.7-0.5-1.8-0.3-2.9l2-12.4h-3l0.4-2.6h3l0.8-4.8h3.1l-0.8,4.8h4.2V415.1z"/>
	<path class="st1" d="M263,435.6c-1.2,0-2.3-0.2-3.3-0.7c-1-0.5-1.7-1.2-2.1-2.1c-0.4-0.9-0.6-2-0.4-3.3c0.2-1.2,0.6-2,1.2-2.8
		c0.6-0.7,1.2-1.2,2.1-1.7c0.8-0.4,1.7-0.7,2.6-1c1-0.2,1.9-0.4,2.9-0.4c1.2-0.1,2.2-0.3,3-0.4c0.8-0.1,1.3-0.2,1.8-0.4
		c0.4-0.2,0.7-0.5,0.7-1v-0.1c0.2-1.2,0.1-2.3-0.5-3c-0.6-0.7-1.5-1.1-2.9-1.1c-1.5,0-2.7,0.3-3.7,1c-1,0.7-1.7,1.3-2.2,2l-2.7-1
		c0.7-1.2,1.5-2.2,2.6-2.9c1-0.7,2-1.2,3.1-1.5c1.1-0.3,2.1-0.4,3.1-0.4c0.7,0,1.4,0.1,2.2,0.2c0.8,0.1,1.5,0.4,2.3,1
		c0.7,0.4,1.2,1.2,1.6,2.1c0.4,1,0.4,2.2,0.1,3.8l-2.2,13.2h-3.1l0.4-2.7h-0.1c-0.3,0.4-0.7,0.9-1.2,1.4c-0.6,0.5-1.3,0.9-2.1,1.2
		C265.2,435.4,264.2,435.6,263,435.6z M264,432.8c1.2,0,2.3-0.2,3.2-0.7c0.9-0.5,1.7-1.1,2.2-1.8c0.6-0.7,0.9-1.5,1-2.3l0.4-2.8
		c-0.1,0.1-0.4,0.3-1,0.4c-0.4,0.1-1,0.2-1.5,0.3c-0.6,0.1-1.2,0.1-1.7,0.2c-0.5,0.1-1,0.1-1.3,0.1c-0.8,0.1-1.6,0.3-2.3,0.5
		c-0.7,0.2-1.3,0.6-1.8,1c-0.5,0.4-0.8,1.1-1,1.8c-0.1,1.1,0.1,1.9,0.7,2.4C261.8,432.6,262.7,432.8,264,432.8z"/>
	<path class="st1" d="M285.3,408.5l-4.4,26.6h-3.1l4.4-26.6H285.3z"/>
	<path class="st1" d="M286.5,435.1l3.3-20h3.1l-3.3,20H286.5z M292.4,411.8c-0.6,0-1.1-0.2-1.5-0.6c-0.4-0.4-0.7-0.9-0.7-1.5
		c0-0.6,0.2-1,0.7-1.5c0.4-0.4,1-0.6,1.5-0.6s1.1,0.2,1.5,0.6c0.4,0.4,0.7,0.9,0.7,1.5c0,0.6-0.2,1.1-0.7,1.5
		C293.5,411.6,293,411.8,292.4,411.8z"/>
	<path class="st1" d="M303.3,435.5c-1.9,0-3.4-0.4-4.6-1.3c-1.2-0.9-2-2.1-2.5-3.7c-0.4-1.5-0.5-3.3-0.2-5.3c0.3-2,1-3.8,2-5.3
		c1-1.5,2.3-2.8,3.7-3.7c1.5-0.9,3.1-1.3,5-1.3c2.1,0,3.8,0.6,5,1.7s1.9,2.6,1.8,4.5h-3.1c-0.1-0.9-0.4-1.7-1.2-2.4
		c-0.7-0.7-1.7-1-3.1-1c-1.2,0-2.3,0.3-3.3,1c-1,0.6-1.8,1.5-2.6,2.6c-0.7,1.1-1.2,2.4-1.4,4c-0.4,2.3-0.1,4.2,0.7,5.6s2.2,2,4,2
		c1.2,0,2.3-0.3,3.2-1c1-0.6,1.7-1.5,2.1-2.6h3.1c-0.4,1.2-1,2.3-1.8,3.1c-0.8,1-1.8,1.7-3.1,2.3
		C306.1,435.2,304.7,435.5,303.3,435.5z"/>
</g>
<g>
	<path class="st1" d="M94,493.6h-2l5.9-15.9h2l5.9,15.9h-2l-1.6-4.5h-6.4L94,493.6z M96.2,487.3h5.3l-2.6-7.2h-0.1L96.2,487.3z"/>
	<path class="st1" d="M111.5,493.9c-0.7,0-1.5-0.1-2-0.4c-0.6-0.3-1.1-0.7-1.5-1.2c-0.4-0.5-0.5-1.2-0.5-2c0-0.7,0.1-1.2,0.4-1.7
		c0.3-0.4,0.7-0.7,1.1-1c0.4-0.2,1-0.4,1.5-0.6c0.6-0.1,1.1-0.2,1.7-0.3c0.7-0.1,1.3-0.1,1.8-0.2c0.4-0.1,0.8-0.1,1-0.2
		c0.2-0.1,0.3-0.3,0.3-0.7v-0.1c0-0.8-0.2-1.4-0.7-1.8c-0.4-0.4-1-0.7-1.9-0.7s-1.5,0.2-2,0.6c-0.5,0.4-0.9,0.8-1,1.2l-1.8-0.7
		c0.3-0.7,0.7-1.3,1.2-1.7c0.5-0.4,1.1-0.7,1.7-0.9c0.6-0.1,1.2-0.2,1.8-0.2c0.4,0,0.8,0.1,1.3,0.1c0.5,0.1,1,0.3,1.5,0.6
		c0.4,0.3,0.9,0.7,1.2,1.2c0.3,0.6,0.4,1.3,0.4,2.3v7.9h-1.8v-1.6h-0.1c-0.1,0.3-0.4,0.5-0.7,0.8s-0.7,0.6-1.2,0.7
		C112.8,493.8,112.2,493.9,111.5,493.9z M111.8,492.2c0.7,0,1.3-0.1,1.8-0.4c0.5-0.3,0.9-0.7,1.2-1.1c0.3-0.4,0.4-1,0.4-1.4v-1.7
		c-0.1,0.1-0.2,0.1-0.5,0.2c-0.3,0.1-0.6,0.1-0.9,0.2c-0.4,0.1-0.7,0.1-1,0.1c-0.3,0.1-0.6,0.1-0.8,0.1c-0.5,0.1-1,0.1-1.3,0.3
		c-0.4,0.1-0.7,0.4-1,0.6c-0.2,0.3-0.4,0.7-0.4,1.1c0,0.7,0.2,1.1,0.7,1.5C110.4,492.1,111,492.2,111.8,492.2z"/>
	<path class="st1" d="M120.6,493.6v-15.9h5.6c1.1,0,2,0.2,2.8,0.6s1.2,0.9,1.6,1.5c0.4,0.7,0.5,1.3,0.5,2.1c0,0.7-0.1,1.2-0.4,1.7
		c-0.2,0.4-0.6,0.8-1,1c-0.4,0.3-0.8,0.4-1.2,0.6v0.1c0.5,0,1,0.2,1.5,0.5c0.5,0.3,0.9,0.7,1.2,1.3c0.4,0.6,0.5,1.3,0.5,2.1
		c0,0.8-0.1,1.5-0.5,2.2s-1,1.2-1.8,1.5c-0.8,0.4-1.8,0.6-3.1,0.6H120.6z M122.5,484.6h3.6c0.9,0,1.6-0.2,2.2-0.7s0.9-1.2,0.9-2
		c0-0.7-0.2-1.3-0.7-1.8c-0.5-0.5-1.2-0.7-2.3-0.7h-3.7L122.5,484.6L122.5,484.6z M122.5,491.9h3.8c1.2,0,2.2-0.2,2.7-0.7
		s0.8-1.1,0.8-1.8c0-0.5-0.1-1-0.4-1.5c-0.3-0.4-0.7-0.8-1.2-1.1s-1.1-0.4-1.8-0.4h-4L122.5,491.9L122.5,491.9z"/>
	<path class="st1" d="M134.9,493.6v-15.9h1.8v5.9h0.1c0.1-0.2,0.3-0.4,0.6-0.8c0.2-0.3,0.6-0.6,1-0.9c0.4-0.3,1.1-0.4,1.8-0.4
		c1,0,1.9,0.2,2.6,0.7c0.8,0.5,1.4,1.2,1.8,2.1c0.4,1,0.7,2,0.7,3.3c0,1.2-0.2,2.3-0.7,3.3c-0.4,1-1,1.6-1.8,2.1
		c-0.7,0.5-1.6,0.7-2.6,0.7c-0.8,0-1.4-0.1-1.8-0.4c-0.4-0.3-0.8-0.6-1.1-0.9c-0.2-0.4-0.4-0.6-0.6-0.8h-0.2v1.8L134.9,493.6
		L134.9,493.6z M136.7,487.6c0,1.4,0.3,2.5,0.9,3.3s1.5,1.2,2.6,1.2c0.8,0,1.4-0.2,1.9-0.6c0.5-0.4,0.9-1,1.2-1.7
		c0.3-0.7,0.4-1.5,0.4-2.3s-0.1-1.6-0.4-2.3c-0.2-0.7-0.7-1.2-1.2-1.6c-0.5-0.4-1.2-0.6-2-0.6c-1.1,0-2,0.4-2.6,1.2
		C137,485.2,136.7,486.2,136.7,487.6z"/>
	<path class="st1" d="M161.3,482.7h-1.9c-0.1-0.7-0.4-1.4-0.9-1.8c-0.4-0.5-1-0.9-1.6-1.2c-0.7-0.3-1.3-0.4-2-0.4
		c-1,0-1.8,0.2-2.6,0.7s-1.4,1.2-1.8,2.2c-0.4,1-0.7,2.1-0.7,3.5c0,1.4,0.2,2.6,0.7,3.5c0.4,1,1.1,1.7,1.8,2.2
		c0.8,0.5,1.7,0.7,2.6,0.7c0.7,0,1.4-0.1,2-0.4c0.7-0.3,1.2-0.7,1.6-1.2c0.4-0.5,0.7-1.1,0.9-1.8h1.9c-0.2,1.1-0.6,2-1.2,2.8
		c-0.6,0.8-1.4,1.4-2.3,1.8c-0.9,0.4-1.9,0.6-2.9,0.6c-1.4,0-2.6-0.4-3.7-1c-1.1-0.7-1.9-1.6-2.5-2.9c-0.6-1.2-0.9-2.7-0.9-4.4
		s0.3-3.1,0.9-4.4c0.6-1.2,1.5-2.2,2.5-2.9s2.3-1,3.7-1c1.1,0,2,0.2,2.9,0.6c0.9,0.4,1.7,1,2.3,1.8
		C160.8,480.6,161.1,481.6,161.3,482.7z"/>
	<path class="st1" d="M169.1,493.9c-1.1,0-2.1-0.3-2.9-0.8c-0.8-0.5-1.5-1.2-1.9-2.2c-0.4-1-0.7-2-0.7-3.2c0-1.2,0.2-2.3,0.7-3.2
		c0.4-1,1.1-1.7,1.9-2.2c0.8-0.5,1.8-0.8,2.9-0.8c0.9,0,1.6,0.1,2.3,0.4c0.7,0.3,1.2,0.7,1.7,1.3c0.4,0.6,0.7,1.2,0.8,2H172
		c-0.1-0.5-0.4-1-1-1.5s-1.1-0.7-1.9-0.7c-1.1,0-2,0.4-2.6,1.2c-0.7,0.8-1,1.9-1,3.3s0.3,2.5,1,3.4c0.7,0.8,1.5,1.2,2.6,1.2
		c0.7,0,1.3-0.2,1.8-0.6c0.5-0.4,0.9-0.9,1-1.5h1.8c-0.1,0.7-0.4,1.3-0.7,1.9c-0.4,0.6-1,1-1.6,1.3
		C170.7,493.7,170,493.9,169.1,493.9z"/>
	<path class="st1" d="M98.2,503.9v15.9h-1.9v-13.2h-0.1c-0.1,0.1-0.3,0.3-0.6,0.5c-0.3,0.2-0.7,0.4-1.2,0.5c-0.5,0.1-1,0.2-1.6,0.2
		v-1.6c0.6,0,1.2-0.1,1.6-0.4c0.4-0.2,0.8-0.5,1.2-0.8c0.4-0.3,0.5-0.6,0.7-0.8s0.2-0.4,0.3-0.4L98.2,503.9L98.2,503.9z"/>
	<path class="st1" d="M102.8,520v-1.4l5.3-5.8c0.6-0.7,1.1-1.2,1.5-1.8c0.4-0.5,0.7-1,0.9-1.4c0.2-0.4,0.3-0.9,0.3-1.4
		c0-0.9-0.3-1.5-0.9-2c-0.6-0.5-1.3-0.7-2.2-0.7c-1,0-1.7,0.3-2.2,0.8c-0.5,0.6-0.8,1.3-0.8,2.2h-1.8c0-1,0.2-1.8,0.7-2.5
		s1-1.2,1.8-1.7c0.7-0.4,1.6-0.6,2.5-0.6c1,0,1.8,0.2,2.5,0.6c0.7,0.4,1.3,1,1.7,1.6c0.4,0.7,0.6,1.4,0.6,2.3c0,0.6-0.1,1.2-0.3,1.7
		c-0.2,0.6-0.6,1.2-1.1,1.8c-0.5,0.7-1.2,1.5-2.1,2.5l-3.6,3.8v0.1h7.4v1.7L102.8,520L102.8,520z"/>
	<path class="st1" d="M121.5,520.1c-1,0-2-0.1-2.8-0.5c-0.8-0.4-1.5-0.9-1.9-1.5c-0.4-0.7-0.7-1.4-0.7-2.2h2
		c0.1,0.8,0.4,1.4,1.1,1.8c0.7,0.4,1.5,0.7,2.3,0.7c1,0,1.9-0.3,2.6-0.8c0.7-0.5,1-1.2,1-2c0-0.9-0.3-1.6-1-2.2
		c-0.7-0.6-1.6-0.8-2.8-0.8h-1.2v-1.7h1.1c1,0,1.7-0.2,2.3-0.7c0.6-0.5,0.9-1.2,0.9-2c0-0.8-0.3-1.5-0.8-2c-0.5-0.5-1.2-0.7-2.1-0.7
		c-0.6,0-1.1,0.1-1.5,0.3c-0.4,0.2-0.9,0.5-1.2,0.9c-0.3,0.4-0.4,0.8-0.5,1.4h-1.9c0-0.8,0.3-1.5,0.7-2.2c0.4-0.7,1.1-1.1,1.8-1.5
		c0.7-0.4,1.6-0.5,2.6-0.5c1,0,1.8,0.2,2.6,0.6c0.7,0.4,1.2,1,1.6,1.5c0.4,0.7,0.6,1.3,0.6,2.1c0,0.9-0.2,1.7-0.7,2.3
		c-0.4,0.7-1.1,1.1-1.9,1.3v0.1c1,0.1,1.8,0.6,2.3,1.3c0.6,0.7,0.9,1.5,0.9,2.6c0,0.9-0.2,1.6-0.7,2.3c-0.4,0.7-1.1,1.2-1.9,1.6
		C123.5,520,122.5,520.1,121.5,520.1z"/>
	<path class="st1" d="M129.7,516.7v-1.6l7-11.1h2.3v11h2.2v1.7H139v3.3h-1.8v-3.3L129.7,516.7L129.7,516.7z M137.2,514.9v-8.5h-0.1
		l-5.3,8.4v0.1L137.2,514.9L137.2,514.9z"/>
	<path class="st1" d="M149.1,520.1c-0.9,0-1.8-0.1-2.5-0.5c-0.7-0.4-1.3-0.9-1.8-1.5c-0.4-0.7-0.7-1.4-0.7-2.2h1.9
		c0.1,0.7,0.4,1.3,1,1.8c0.6,0.4,1.3,0.7,2.1,0.7c0.7,0,1.2-0.1,1.8-0.4s0.9-0.7,1.2-1.2s0.4-1.2,0.4-1.8c0-0.7-0.1-1.3-0.4-1.9
		c-0.3-0.5-0.7-1-1.2-1.3c-0.5-0.3-1.2-0.5-1.8-0.5c-0.5,0-1,0.1-1.5,0.2c-0.5,0.1-1,0.4-1.2,0.6l-1.8-0.2l1-7.8h8.3v1.7H147
		l-0.6,4.7h0.1c0.3-0.3,0.7-0.4,1.2-0.7c0.5-0.1,1-0.3,1.5-0.3c1,0,1.8,0.2,2.6,0.7c0.7,0.4,1.4,1.1,1.8,1.9
		c0.4,0.8,0.7,1.8,0.7,2.8s-0.2,1.9-0.7,2.7c-0.4,0.8-1.1,1.4-1.9,1.9C151,519.9,150.2,520.1,149.1,520.1z"/>
	<path class="st1" d="M162.8,520.1c-0.7,0-1.3-0.1-2-0.4c-0.7-0.2-1.2-0.7-1.8-1.2c-0.5-0.6-1-1.3-1.3-2.3c-0.3-1-0.5-2.2-0.5-3.7
		c0-2.9,0.5-5,1.5-6.6c1-1.5,2.4-2.3,4.2-2.3c1.3,0,2.5,0.4,3.4,1.2c0.9,0.8,1.4,1.8,1.6,3.1H166c-0.1-0.7-0.5-1.3-1-1.8
		c-0.5-0.4-1.2-0.7-2-0.7c-1.2,0-2.2,0.5-2.9,1.6c-0.7,1.1-1.1,2.6-1.1,4.5h0.1c0.4-0.7,1-1.2,1.7-1.5c0.7-0.4,1.5-0.6,2.3-0.6
		c0.9,0,1.8,0.2,2.5,0.7c0.7,0.4,1.4,1.1,1.8,1.9c0.4,0.8,0.7,1.7,0.7,2.7c0,1-0.2,1.9-0.7,2.7c-0.4,0.8-1.1,1.5-1.8,2
		C164.8,519.9,163.8,520.2,162.8,520.1z M162.8,518.4c0.7,0,1.2-0.1,1.8-0.5c0.5-0.3,1-0.7,1.2-1.3s0.4-1.2,0.4-1.8
		s-0.1-1.2-0.4-1.8c-0.3-0.6-0.7-1-1.2-1.3c-0.5-0.3-1.1-0.5-1.8-0.5c-0.7,0-1.2,0.1-1.8,0.5c-0.5,0.4-1,0.8-1.2,1.3
		s-0.4,1.2-0.4,1.8c0,0.7,0.1,1.2,0.4,1.8c0.3,0.6,0.7,1,1.2,1.3C161.5,518.3,162.1,518.4,162.8,518.4z"/>
	<path class="st1" d="M171.7,520l7.2-14.1v-0.1h-8.2V504h10.2v1.8l-7.1,14.1H171.7z"/>
	<path class="st1" d="M188.5,520.1c-1.1,0-2-0.2-2.9-0.6c-0.8-0.4-1.5-0.9-1.9-1.6s-0.7-1.5-0.7-2.3c0-0.7,0.1-1.3,0.4-1.9
		c0.3-0.6,0.7-1,1.1-1.5c0.4-0.4,1-0.7,1.6-0.7v-0.1c-0.7-0.2-1.4-0.7-1.8-1.3c-0.4-0.7-0.7-1.4-0.7-2.3c0-0.8,0.2-1.5,0.6-2.2
		c0.4-0.7,1-1.2,1.7-1.5c0.7-0.4,1.5-0.6,2.5-0.6c1,0,1.8,0.2,2.5,0.6c0.7,0.4,1.3,0.9,1.7,1.5c0.4,0.7,0.7,1.4,0.7,2.2
		c0,0.9-0.2,1.6-0.7,2.3c-0.4,0.7-1,1.1-1.8,1.3v0.1c0.6,0.1,1.1,0.4,1.5,0.7c0.4,0.4,0.8,0.9,1.1,1.5c0.3,0.6,0.4,1.2,0.4,1.9
		c0,0.9-0.2,1.6-0.7,2.3s-1.1,1.2-1.9,1.6C190.5,520,189.6,520.1,188.5,520.1z M188.5,518.4c1.1,0,1.9-0.3,2.6-0.8
		c0.7-0.5,1-1.2,1-2c0-0.6-0.1-1.2-0.4-1.6c-0.3-0.4-0.7-0.8-1.2-1.1c-0.5-0.3-1.1-0.4-1.8-0.4c-0.7,0-1.3,0.1-1.8,0.4
		c-0.5,0.3-1,0.7-1.2,1.1c-0.3,0.4-0.4,1-0.4,1.6c0,0.9,0.3,1.5,1,2C186.5,518.2,187.4,518.4,188.5,518.4z M188.5,510.9
		c0.9,0,1.5-0.2,2.1-0.7c0.6-0.5,0.8-1.2,0.9-2c0-0.8-0.3-1.5-0.8-2c-0.5-0.5-1.2-0.7-2.1-0.7c-0.9,0-1.6,0.2-2.1,0.7
		c-0.5,0.5-0.8,1.2-0.8,2c0,0.8,0.3,1.5,0.8,2C187,510.7,187.6,510.9,188.5,510.9z"/>
	<path class="st1" d="M202,503.7c0.7,0,1.3,0.1,2,0.4s1.2,0.7,1.8,1.2c0.5,0.6,1,1.3,1.3,2.3c0.4,1,0.5,2.2,0.5,3.7
		c0,2.9-0.5,5-1.5,6.6s-2.5,2.3-4.2,2.3c-1.3,0-2.5-0.4-3.4-1.2c-0.9-0.8-1.4-1.8-1.6-3.1h1.9c0.1,0.7,0.5,1.3,1,1.8s1.2,0.7,2,0.7
		c1.2,0,2.2-0.5,2.9-1.6c0.7-1.1,1.1-2.6,1.1-4.5h-0.1c-0.4,0.7-1,1.2-1.7,1.5c-0.7,0.4-1.5,0.6-2.3,0.6c-0.9,0-1.8-0.2-2.5-0.7
		c-0.7-0.4-1.4-1.1-1.8-1.9c-0.4-0.8-0.7-1.7-0.7-2.7c0-1,0.2-1.9,0.7-2.7c0.4-0.8,1-1.5,1.8-2C200,503.9,200.9,503.7,202,503.7z
		 M202,505.4c-0.7,0-1.2,0.1-1.8,0.5c-0.5,0.3-1,0.7-1.2,1.3s-0.4,1.2-0.4,1.8c0,0.7,0.1,1.2,0.4,1.8c0.3,0.6,0.7,1,1.2,1.3
		c0.5,0.4,1.1,0.5,1.8,0.5s1.2-0.1,1.8-0.5c0.5-0.4,1-0.8,1.2-1.3c0.3-0.5,0.4-1.2,0.4-1.8s-0.1-1.2-0.4-1.8c-0.3-0.6-0.7-1-1.2-1.3
		C203.3,505.6,202.7,505.4,202,505.4z"/>
	<path class="st1" d="M215.8,520.1c-1.8,0-3.1-0.7-4.1-2.1c-1-1.5-1.5-3.4-1.5-6.1c0-2.6,0.5-4.6,1.5-6.1c1-1.5,2.3-2.2,4.1-2.2
		c1.8,0,3.1,0.7,4.1,2.2c1,1.5,1.5,3.4,1.5,6.1c0,2.6-0.5,4.6-1.5,6.1C218.9,519.5,217.6,520.1,215.8,520.1z M215.8,518.4
		c1.2,0,2-0.6,2.7-1.7s1-2.7,1-4.8c0-2-0.3-3.7-1-4.8c-0.7-1.2-1.5-1.7-2.7-1.7c-1.2,0-2,0.6-2.7,1.7c-0.7,1.1-1,2.7-1,4.8
		c0,2,0.3,3.7,1,4.8C213.7,517.9,214.7,518.4,215.8,518.4z"/>
</g>
<g>
	<path class="st1" d="M373.8,493.6h-3.1l5.6-15.9h3.6l5.6,15.9h-3.1l-1.3-4h-6L373.8,493.6z M375.9,487.3h4.5l-2.2-6.4H378
		L375.9,487.3z"/>
	<path class="st1" d="M391,493.9c-1.2,0-2.1-0.3-2.9-1c-0.7-0.6-1.2-1.5-1.2-2.7c0-0.9,0.2-1.6,0.7-2.1s1-0.9,1.7-1.1
		c0.7-0.2,1.5-0.4,2.2-0.4c1-0.1,1.8-0.2,2.3-0.3c0.4-0.1,0.7-0.4,0.7-0.7v-0.1c0-0.6-0.1-1-0.5-1.4c-0.4-0.3-0.9-0.5-1.5-0.5
		c-0.7,0-1.2,0.1-1.6,0.4c-0.4,0.3-0.7,0.7-0.8,1.1l-2.6-0.4c0.3-1.1,1-1.9,1.8-2.5c0.9-0.6,2-0.8,3.2-0.8c0.6,0,1.2,0.1,1.7,0.2
		s1.1,0.4,1.5,0.7c0.4,0.3,0.9,0.7,1.2,1.2c0.3,0.5,0.4,1.2,0.4,2v8h-2.7V492h-0.1c-0.2,0.5-0.7,1-1.2,1.3
		C392.7,493.6,391.9,493.9,391,493.9z M391.7,491.7c0.9,0,1.5-0.2,2-0.7c0.5-0.5,0.7-1.1,0.7-1.8v-1.4c-0.1,0.1-0.4,0.2-0.7,0.3
		c-0.3,0.1-0.7,0.1-1,0.2c-0.4,0.1-0.7,0.1-0.9,0.1c-0.7,0.1-1.2,0.3-1.6,0.5s-0.7,0.7-0.7,1.2c0,0.5,0.2,0.9,0.6,1.2
		C390.6,491.7,391.1,491.7,391.7,491.7z"/>
	<path class="st1" d="M400.3,493.6v-15.9h6.1c1.8,0,3,0.4,3.9,1.2s1.3,1.8,1.3,2.9c0,1-0.3,1.8-0.8,2.3c-0.5,0.6-1.2,1-2,1.1v0.1
		c0.6,0,1.1,0.2,1.6,0.5c0.5,0.3,1,0.7,1.3,1.3c0.4,0.6,0.5,1.2,0.5,2s-0.2,1.5-0.6,2.2s-1,1.2-1.8,1.5s-1.8,0.6-3.1,0.6h-6.5V493.6
		z M403.1,484.4h2.9c0.7,0,1.4-0.2,1.9-0.6c0.5-0.4,0.7-1,0.7-1.7c0-0.6-0.2-1.1-0.7-1.5c-0.4-0.4-1.1-0.6-1.9-0.6h-2.9V484.4z
		 M403.1,491.1h3.1c1,0,1.8-0.2,2.3-0.6c0.4-0.4,0.7-1,0.7-1.5c0-0.7-0.3-1.3-0.8-1.8c-0.5-0.5-1.2-0.7-2.1-0.7h-3.2V491.1z"/>
	<path class="st1" d="M414.7,493.6v-15.9h2.9v6h0.1c0.1-0.3,0.4-0.6,0.6-1c0.3-0.4,0.6-0.6,1.1-0.9c0.4-0.2,1-0.4,1.8-0.4
		c1,0,1.8,0.2,2.5,0.7c0.7,0.5,1.3,1.2,1.8,2c0.4,0.9,0.7,2,0.7,3.4s-0.2,2.4-0.7,3.4c-0.4,1-1,1.6-1.8,2.1
		c-0.7,0.5-1.6,0.7-2.6,0.7c-0.7,0-1.2-0.1-1.7-0.4c-0.4-0.2-0.8-0.5-1.1-0.8s-0.5-0.7-0.7-1h-0.1v1.9H414.7z M417.5,487.6
		c0,1.2,0.2,2.1,0.7,2.8c0.5,0.7,1.2,1.1,2,1.1c1,0,1.6-0.4,2.1-1.1c0.5-0.7,0.7-1.7,0.7-2.8s-0.2-2-0.7-2.8s-1.2-1.1-2.1-1.1
		c-0.9,0-1.6,0.4-2.1,1C417.7,485.5,417.5,486.5,417.5,487.6z"/>
	<path class="st1" d="M442.2,483h-2.9c-0.1-1-0.6-1.7-1.3-2.2c-0.7-0.5-1.5-0.8-2.5-0.8c-1.3,0-2.3,0.5-3.2,1.5
		c-0.8,1-1.2,2.3-1.2,4.2c0,1.8,0.4,3.2,1.2,4.2c0.8,1,1.9,1.5,3.2,1.5c1,0,1.8-0.2,2.5-0.7c0.7-0.5,1.2-1.2,1.3-2.2h2.9
		c-0.1,1-0.5,2-1.1,2.8c-0.6,0.8-1.4,1.5-2.3,2s-2,0.7-3.4,0.7c-1.4,0-2.6-0.3-3.7-1c-1.1-0.7-2-1.6-2.6-2.8c-0.7-1.2-1-2.7-1-4.4
		c0-1.8,0.3-3.2,1-4.4c0.7-1.2,1.5-2.2,2.6-2.8c1.1-0.7,2.3-1,3.7-1c1.2,0,2.3,0.2,3.2,0.7c1,0.4,1.8,1.1,2.3,1.9
		S442,481.9,442.2,483z"/>
	<path class="st1" d="M449.9,493.9c-1.2,0-2.2-0.3-3.1-0.8c-0.9-0.5-1.5-1.2-2-2.2c-0.4-1-0.7-2-0.7-3.2c0-1.2,0.2-2.3,0.7-3.2
		c0.4-1,1.1-1.7,2-2.2c0.9-0.5,1.9-0.8,3-0.8c1,0,1.8,0.1,2.6,0.5c0.7,0.4,1.3,0.9,1.8,1.5c0.4,0.7,0.7,1.4,0.7,2.3h-2.7
		c-0.1-0.6-0.4-1-0.8-1.5s-1-0.6-1.6-0.6c-0.9,0-1.5,0.4-2.1,1c-0.5,0.7-0.8,1.6-0.8,2.9c0,1.2,0.3,2.2,0.8,2.9c0.5,0.7,1.2,1,2.1,1
		c0.6,0,1.2-0.1,1.6-0.5c0.4-0.4,0.7-0.9,0.8-1.5h2.7c-0.1,0.9-0.3,1.6-0.7,2.3c-0.4,0.7-1,1.2-1.8,1.5
		C451.8,493.6,450.9,493.9,449.9,493.9z"/>
	<path class="st1" d="M377.7,503.9v15.9h-2.9v-12.3h-0.1c-0.1,0.2-0.5,0.5-1.1,0.8c-0.6,0.3-1.3,0.4-2.2,0.4v-2.3
		c0.6,0,1-0.1,1.5-0.3c0.4-0.2,0.8-0.4,1.1-0.7s0.5-0.6,0.7-0.9c0.1-0.3,0.3-0.5,0.3-0.7L377.7,503.9L377.7,503.9z"/>
	<path class="st1" d="M381.8,520v-2.1l5.6-5.4c0.8-0.8,1.4-1.5,1.8-2c0.4-0.6,0.6-1.2,0.6-1.8c0-0.7-0.2-1.3-0.7-1.8
		c-0.5-0.4-1.2-0.7-1.9-0.7c-0.8,0-1.5,0.2-1.9,0.7c-0.4,0.4-0.7,1.1-0.7,1.9h-2.8c0-1,0.2-1.9,0.7-2.6c0.4-0.7,1.1-1.3,1.9-1.8
		c0.8-0.4,1.8-0.6,2.8-0.6c1.1,0,2,0.2,2.9,0.6c0.9,0.4,1.5,1,1.9,1.6c0.4,0.7,0.7,1.5,0.7,2.4c0,0.6-0.1,1.2-0.4,1.8
		c-0.2,0.6-0.7,1.2-1.2,1.9c-0.6,0.7-1.4,1.5-2.4,2.6l-2.8,2.8v0.1h6.9v2.4L381.8,520L381.8,520z"/>
	<path class="st1" d="M401.1,520.1c-1.1,0-2.1-0.2-3-0.6s-1.5-1-2-1.6s-0.8-1.5-0.8-2.3h2.9c0,0.7,0.4,1.2,0.9,1.5
		c0.5,0.4,1.2,0.6,2,0.6c0.9,0,1.5-0.2,2.1-0.7c0.6-0.4,0.8-1,0.8-1.7c0-0.7-0.3-1.3-0.9-1.8c-0.6-0.4-1.4-0.7-2.3-0.7h-1.4v-2.2
		h1.4c0.8,0,1.5-0.2,2-0.7c0.5-0.4,0.8-1,0.8-1.7c0-0.7-0.2-1.2-0.7-1.6c-0.4-0.4-1-0.6-1.8-0.6c-0.7,0-1.4,0.2-1.9,0.6
		c-0.5,0.4-0.8,1-0.9,1.6h-2.8c0-0.9,0.3-1.7,0.8-2.3s1.2-1.2,2-1.6c0.8-0.4,1.8-0.6,2.8-0.6c1.1,0,2,0.2,2.8,0.6
		c0.8,0.4,1.4,1,1.8,1.6c0.4,0.7,0.7,1.4,0.7,2.2c0,0.9-0.3,1.6-0.8,2.3c-0.5,0.6-1.2,1-2.1,1.2v0.1c1.1,0.1,2,0.6,2.6,1.2
		c0.6,0.7,0.9,1.5,0.9,2.5c0,0.9-0.2,1.7-0.7,2.4s-1.2,1.2-2.1,1.7C403.3,520,402.2,520.1,401.1,520.1z"/>
	<path class="st1" d="M409.4,517v-2.3l6.8-10.7h3.6v10.6h2v2.3h-2v2.9H417V517L409.4,517L409.4,517z M417,514.6v-7.3h-0.1l-4.5,7.2
		v0.1L417,514.6L417,514.6z"/>
	<path class="st1" d="M429.9,520.1c-1,0-2-0.2-2.8-0.6c-0.8-0.4-1.5-1-2-1.6s-0.7-1.5-0.7-2.3h2.8c0.1,0.7,0.4,1.2,0.9,1.6
		c0.5,0.4,1.1,0.6,1.8,0.6c0.9,0,1.5-0.3,2.1-0.9s0.8-1.3,0.8-2.2c0-0.9-0.3-1.7-0.9-2.2c-0.6-0.6-1.3-0.9-2.2-0.9
		c-0.5,0-1,0.1-1.4,0.3c-0.4,0.1-0.8,0.4-1.1,0.7l-2.6-0.4l0.8-8.2h9.3v2.4h-6.9l-0.4,4.2h0.1c0.3-0.4,0.7-0.7,1.2-0.9
		s1.1-0.4,1.8-0.4c1,0,1.8,0.2,2.6,0.7c0.7,0.4,1.4,1.1,1.8,1.9c0.4,0.8,0.7,1.7,0.7,2.7c0,1-0.2,2-0.7,2.9c-0.5,0.9-1.2,1.5-2,2
		C431.9,520,431,520.1,429.9,520.1z"/>
	<path class="st1" d="M444,520.1c-0.7,0-1.5-0.1-2.3-0.4c-0.7-0.3-1.4-0.7-2-1.3c-0.6-0.6-1-1.4-1.4-2.3c-0.4-1-0.5-2.2-0.5-3.7
		c0-1.8,0.2-3.4,0.7-4.7c0.5-1.3,1.2-2.3,2.2-3c1-0.7,2-1,3.3-1c1,0,1.9,0.2,2.7,0.6s1.4,1,1.9,1.6c0.5,0.7,0.8,1.5,0.9,2.3h-2.9
		c-0.1-0.7-0.4-1.2-0.9-1.5c-0.4-0.4-1-0.6-1.7-0.6c-1.1,0-2,0.5-2.6,1.5c-0.6,1-0.9,2.3-0.9,4h0.1c0.4-0.7,1-1.2,1.6-1.6
		c0.7-0.4,1.5-0.6,2.3-0.6c1,0,1.8,0.2,2.5,0.7c0.7,0.4,1.3,1.1,1.8,1.8c0.4,0.8,0.7,1.7,0.7,2.7s-0.2,2-0.7,2.9
		c-0.5,0.8-1.2,1.5-2,2C446.2,519.9,445.2,520.2,444,520.1z M444,517.8c0.6,0,1.1-0.1,1.5-0.4c0.4-0.3,0.8-0.7,1-1.1
		c0.3-0.4,0.4-1,0.4-1.6s-0.1-1.1-0.4-1.5c-0.2-0.4-0.6-0.8-1-1.1c-0.4-0.3-1-0.4-1.5-0.4c-0.6,0-1.1,0.1-1.5,0.4
		c-0.4,0.3-0.8,0.7-1.1,1.1c-0.3,0.4-0.4,1-0.4,1.5c0,0.6,0.1,1.1,0.4,1.5s0.6,0.9,1,1.1C442.9,517.7,443.4,517.8,444,517.8z"/>
	<path class="st1" d="M453,520l6.8-13.5v-0.1h-7.9V504h10.9v2.5L456,520H453L453,520z"/>
	<path class="st1" d="M470.6,520.1c-1.2,0-2.2-0.2-3.1-0.6s-1.6-1-2.1-1.6c-0.5-0.7-0.7-1.5-0.7-2.3c0-0.7,0.1-1.2,0.4-1.8
		c0.3-0.6,0.7-1,1.2-1.4c0.5-0.4,1.1-0.6,1.7-0.7v-0.1c-0.8-0.1-1.5-0.6-2-1.2c-0.5-0.7-0.7-1.4-0.7-2.3c0-0.8,0.2-1.5,0.7-2.2
		c0.4-0.7,1.1-1.2,1.9-1.5c0.8-0.4,1.8-0.6,2.8-0.6c1,0,1.9,0.2,2.7,0.6c0.8,0.4,1.5,0.9,1.9,1.5c0.4,0.7,0.7,1.4,0.7,2.2
		c0,0.9-0.3,1.6-0.8,2.3c-0.5,0.7-1.2,1.1-2,1.2v0.1c0.6,0.1,1.2,0.4,1.7,0.7c0.5,0.4,0.9,0.9,1.2,1.4c0.3,0.6,0.4,1.2,0.4,1.8
		c0,0.9-0.2,1.6-0.7,2.3c-0.5,0.7-1.2,1.2-2.1,1.6C472.8,520,471.8,520.1,470.6,520.1z M470.6,517.9c0.9,0,1.6-0.2,2.1-0.7
		c0.5-0.4,0.8-1,0.8-1.8s-0.3-1.4-0.9-1.9c-0.6-0.5-1.2-0.7-2.1-0.7s-1.6,0.2-2.1,0.7c-0.6,0.5-0.8,1.1-0.8,1.9
		c0,0.7,0.3,1.3,0.8,1.8C469,517.7,469.8,517.9,470.6,517.9z M470.6,510.7c0.7,0,1.3-0.2,1.8-0.7c0.4-0.4,0.7-1,0.7-1.7
		c0-0.7-0.2-1.2-0.7-1.7s-1.1-0.7-1.8-0.7c-0.7,0-1.4,0.2-1.8,0.7c-0.4,0.4-0.7,1-0.7,1.7c0,0.7,0.2,1.2,0.7,1.7
		S469.9,510.7,470.6,510.7z"/>
	<path class="st1" d="M484.7,503.7c0.7,0,1.5,0.1,2.3,0.4c0.7,0.3,1.4,0.7,2,1.3c0.6,0.6,1,1.4,1.4,2.3c0.4,1,0.5,2.2,0.5,3.7
		c0,1.8-0.2,3.4-0.7,4.7c-0.5,1.3-1.2,2.3-2.2,3c-1,0.7-2,1-3.3,1c-1,0-1.9-0.2-2.7-0.6c-0.8-0.4-1.4-1-1.9-1.6
		c-0.5-0.7-0.8-1.5-0.9-2.3h2.9c0.1,0.7,0.4,1.2,0.9,1.5c0.4,0.4,1,0.6,1.7,0.6c1.1,0,2-0.5,2.6-1.5s0.9-2.3,0.9-4h-0.1
		c-0.4,0.7-1,1.2-1.6,1.6c-0.7,0.4-1.5,0.6-2.3,0.6c-1,0-1.8-0.2-2.5-0.7c-0.7-0.4-1.3-1.1-1.8-1.8c-0.4-0.8-0.7-1.7-0.7-2.7
		c0-1,0.2-2,0.7-2.9c0.5-0.8,1.2-1.5,2-2C482.6,503.9,483.5,503.7,484.7,503.7z M484.7,506.1c-0.6,0-1.1,0.1-1.5,0.4
		c-0.4,0.3-0.8,0.7-1,1.1c-0.3,0.4-0.4,1-0.4,1.6s0.1,1.1,0.4,1.5s0.6,0.8,1,1.1c0.4,0.3,1,0.4,1.5,0.4c0.6,0,1.1-0.1,1.5-0.4
		c0.4-0.3,0.8-0.7,1.1-1.1s0.4-1,0.4-1.5s-0.1-1.1-0.4-1.5c-0.3-0.4-0.6-0.9-1-1.1C485.8,506.2,485.3,506.1,484.7,506.1z"/>
	<path class="st1" d="M499.3,520.3c-1.9,0-3.4-0.7-4.5-2.2c-1.1-1.5-1.6-3.5-1.6-6.1c0-2.6,0.6-4.6,1.6-6.1c1.1-1.5,2.6-2.1,4.5-2.1
		c1.9,0,3.4,0.7,4.5,2.1c1.1,1.5,1.6,3.4,1.6,6.1c0,2.6-0.5,4.7-1.6,6.1C502.8,519.5,501.2,520.3,499.3,520.3z M499.3,517.8
		c1,0,1.8-0.5,2.3-1.5c0.6-1,0.9-2.4,0.9-4.4c0-1.9-0.3-3.4-0.9-4.3c-0.6-1-1.4-1.5-2.3-1.5c-1,0-1.8,0.5-2.3,1.5
		c-0.6,1-0.9,2.4-0.9,4.3c0,1.9,0.3,3.4,0.9,4.4C497.5,517.3,498.3,517.8,499.3,517.8z"/>
</g>
<g>
	<path class="st1" d="M387.2,363.1c-0.1-1.2-0.7-2-1.5-2.6c-0.9-0.7-2-1-3.5-1c-1.5,0-2.7,0.3-3.5,1c-0.9,0.7-1.2,1.5-1.3,2.5
		c0,0.7,0.2,1.3,0.7,1.8c0.4,0.5,1,0.9,1.8,1.2s1.4,0.5,2.1,0.7l2.5,0.7c1.3,0.3,2.6,0.8,3.8,1.4c1.2,0.6,2.2,1.4,2.9,2.4
		c0.7,1,1.1,2.3,1.1,3.8c0,2.3-0.9,4.2-2.6,5.7c-1.8,1.5-4.2,2.2-7.5,2.2c-3.1,0-5.6-0.7-7.4-2.1c-1.8-1.4-2.8-3.4-2.9-6.1h4.8
		c0.1,1.4,0.7,2.4,1.7,3.1c1,0.7,2.3,1,3.8,1c1.6,0,2.9-0.4,3.8-1c1-0.7,1.5-1.6,1.5-2.8c0-1-0.4-1.8-1.3-2.3c-0.9-0.5-2-1-3.4-1.3
		l-3-0.8c-2.2-0.6-4-1.4-5.2-2.6c-1.2-1.2-1.9-2.7-1.9-4.6c0-1.5,0.4-2.9,1.2-4.1c0.9-1.2,2-2.1,3.5-2.8c1.5-0.7,3.1-1,5-1
		c1.9,0,3.5,0.3,5,1c1.5,0.7,2.6,1.5,3.4,2.7c0.8,1.2,1.2,2.5,1.2,4L387.2,363.1L387.2,363.1z"/>
	<path class="st1" d="M405.2,382.8c-2,0-3.7-0.4-5.2-1.2s-2.6-2-3.4-3.6c-0.8-1.5-1.2-3.4-1.2-5.4c0-2,0.4-3.9,1.2-5.4
		s1.9-2.8,3.3-3.7c1.4-0.9,3.1-1.3,5-1.3c1.6,0,3.1,0.4,4.5,1c1.4,0.7,2.5,1.8,3.4,3.3c0.8,1.5,1.2,3.4,1.2,5.7v1.5h-13.9
		c0,1.7,0.5,3,1.4,4c1,1,2.1,1.5,3.7,1.5c1,0,1.9-0.2,2.6-0.7c0.7-0.4,1.2-1.1,1.6-1.9l4.4,0.5c-0.4,1.8-1.4,3.1-2.9,4.2
		C409.4,382.3,407.5,382.8,405.2,382.8z M400.1,370.5h9.4c0-1.4-0.4-2.5-1.2-3.4c-0.8-0.9-1.9-1.3-3.3-1.3c-1.4,0-2.6,0.4-3.4,1.4
		C400.7,368.2,400.2,369.3,400.1,370.5z"/>
	<path class="st1" d="M418,382.4v-20h4.5v3.4h0.2c0.4-1.2,1.1-2,2-2.7c1-0.7,2.1-1,3.4-1s2.5,0.3,3.4,1c1,0.7,1.6,1.5,2,2.7h0.2
		c0.4-1.1,1.2-2,2.3-2.6c1.1-0.7,2.3-1,3.7-1c1.8,0,3.4,0.6,4.5,1.8c1.2,1.2,1.8,2.9,1.8,5v13.4h-4.7v-12.7c0-1.2-0.4-2.1-1-2.7
		c-0.7-0.6-1.5-0.9-2.4-0.9c-1.2,0-2,0.4-2.6,1c-0.7,0.7-1,1.6-1,2.8v12.4h-4.6v-12.9c0-1-0.3-1.8-1-2.5c-0.6-0.6-1.5-1-2.4-1
		c-1,0-1.9,0.4-2.6,1.2c-0.7,0.7-1.1,1.8-1.1,3v12.1L418,382.4L418,382.4z"/>
	<path class="st1" d="M453.2,359.6c-0.7,0-1.4-0.2-1.9-0.7c-0.5-0.5-0.8-1.1-0.8-1.8s0.3-1.3,0.8-1.8c0.5-0.5,1.2-0.7,1.9-0.7
		c0.7,0,1.4,0.2,1.9,0.7c0.5,0.5,0.8,1.1,0.8,1.8s-0.3,1.3-0.8,1.8C454.6,359.4,454,359.6,453.2,359.6z M450.8,382.4v-20h4.7v20
		H450.8z"/>
	<path class="st1" d="M460.6,382.4v-26.6h4.7v9.9h0.2c0.2-0.5,0.6-1,1-1.5c0.4-0.6,1-1,1.8-1.4c0.7-0.4,1.8-0.6,2.9-0.6
		c1.5,0,2.9,0.4,4.2,1.2c1.2,0.8,2.2,2,2.9,3.4c0.7,1.5,1.1,3.4,1.1,5.6c0,2.2-0.4,4-1.1,5.6c-0.7,1.5-1.7,2.7-2.9,3.5
		c-1.2,0.8-2.6,1.2-4.2,1.2c-1.2,0-2.1-0.2-2.9-0.6c-0.7-0.4-1.4-0.9-1.8-1.4s-0.8-1-1-1.5h-0.3v3.1L460.6,382.4L460.6,382.4z
		 M465.2,372.4c0,1.9,0.4,3.5,1.2,4.7c0.8,1.2,2,1.8,3.4,1.8c1.5,0,2.7-0.6,3.5-1.8c0.8-1.2,1.2-2.8,1.2-4.6s-0.4-3.4-1.2-4.6
		c-0.8-1.2-2-1.8-3.5-1.8c-1.5,0-2.7,0.6-3.5,1.8C465.6,368.9,465.2,370.5,465.2,372.4z"/>
	<path class="st1" d="M492.1,382.8c-2,0-3.7-0.4-5-1.3c-1.4-0.9-2.6-2-3.3-3.6c-0.8-1.5-1.2-3.4-1.2-5.4c0-2,0.4-3.9,1.2-5.4
		c0.8-1.5,1.9-2.8,3.3-3.6s3.1-1.3,5-1.3c2,0,3.7,0.4,5,1.3c1.4,0.9,2.6,2,3.3,3.6c0.8,1.5,1.2,3.4,1.2,5.4c0,2-0.4,3.9-1.2,5.4
		c-0.8,1.5-1.9,2.8-3.3,3.6S494,382.8,492.1,382.8z M492.1,379c1.1,0,2-0.3,2.6-0.9s1.2-1.4,1.6-2.3c0.4-1,0.5-2.1,0.5-3.3
		c0-1.2-0.1-2.3-0.5-3.3c-0.4-1-0.9-1.8-1.6-2.3c-0.7-0.6-1.6-0.9-2.6-0.9c-1.1,0-2,0.3-2.7,0.9c-0.7,0.6-1.2,1.4-1.6,2.3
		c-0.4,1-0.5,2.1-0.5,3.3c0,1.2,0.1,2.3,0.5,3.3c0.4,1,0.9,1.8,1.6,2.3C490.2,378.7,491.1,379,492.1,379z"/>
	<path class="st1" d="M510.4,355.8v26.6h-4.7v-26.6H510.4z"/>
	<path class="st1" d="M522.6,382.7c-1.5,0-3-0.4-4.2-1.2c-1.2-0.8-2.2-2-2.9-3.5c-0.7-1.5-1.1-3.4-1.1-5.6s0.4-4.1,1.1-5.6
		c0.7-1.5,1.8-2.7,3-3.4c1.2-0.8,2.6-1.2,4.2-1.2c1.2,0,2.1,0.2,2.9,0.6c0.7,0.4,1.3,0.9,1.8,1.4c0.4,0.6,0.8,1.1,1,1.5h0.2v-9.9
		h4.7v26.6h-4.6v-3.1h-0.3c-0.2,0.5-0.6,1-1,1.5c-0.4,0.5-1.1,1-1.8,1.4C524.7,382.6,523.7,382.7,522.6,382.7z M523.9,378.9
		c1.5,0,2.6-0.6,3.4-1.8c0.8-1.2,1.2-2.8,1.2-4.7c0-2-0.4-3.5-1.2-4.6c-0.8-1.2-2-1.8-3.5-1.8s-2.8,0.6-3.5,1.8
		c-0.8,1.2-1.2,2.7-1.2,4.6c0,1.9,0.4,3.4,1.2,4.6C521.2,378.3,522.4,378.9,523.9,378.9z"/>
	<path class="st1" d="M388.8,415.9c0-1.2-0.3-2.1-1.1-2.8c-0.7-0.7-1.8-1-3.3-1c-1.5,0-2.7,0.3-3.7,1c-1,0.7-1.5,1.5-1.7,2.5
		c-0.1,0.7,0,1.3,0.4,1.8s0.9,0.9,1.5,1.2c0.7,0.3,1.3,0.5,2,0.7l2.4,0.7c1.2,0.3,2.5,0.8,3.5,1.4c1.1,0.6,1.9,1.4,2.5,2.4
		s0.7,2.3,0.5,3.8c-0.3,1.5-0.9,2.9-1.9,4.1c-1,1.2-2.3,2.1-3.9,2.8c-1.6,0.7-3.5,1-5.6,1c-3.1,0-5.5-0.7-7.1-2.1
		c-1.6-1.4-2.3-3.4-1.9-6.1h4.8c-0.1,1.4,0.3,2.4,1.2,3.1c1,0.7,2.2,1,3.7,1c1.6,0,2.9-0.4,4-1c1.1-0.7,1.8-1.6,1.9-2.8
		c0.1-1-0.1-1.8-1-2.3c-0.8-0.5-1.9-1-3.3-1.3l-2.9-0.8c-2.1-0.6-3.7-1.5-4.8-2.6c-1.1-1.2-1.5-2.6-1.2-4.5c0.3-1.6,1-2.9,2-4.1
		s2.3-2.1,4-2.7c1.6-0.7,3.3-1,5.2-1s3.5,0.3,4.8,1s2.3,1.6,2.9,2.8c0.6,1.2,0.8,2.6,0.6,4.1h-4.7V415.9z"/>
	<path class="st1" d="M403.4,435.5c-2,0-3.7-0.4-5-1.2s-2.2-2-2.8-3.6c-0.6-1.5-0.6-3.4-0.3-5.4c0.4-2,1-3.9,2-5.4
		c1-1.5,2.3-2.8,3.9-3.7s3.3-1.3,5.2-1.3c1.6,0,3.1,0.4,4.3,1.1c1.2,0.7,2.2,1.8,2.8,3.3c0.6,1.5,0.7,3.4,0.3,5.7l-0.2,1.5h-13.9
		v0.1c-0.3,1.9-0.1,3.2,0.7,4.1c0.7,0.9,1.9,1.2,3.5,1.2c1,0,2-0.2,2.8-0.7c0.8-0.4,1.5-1.1,1.9-1.9l4.3,0.5
		c-0.7,1.8-1.9,3.1-3.6,4.2C407.8,435,405.8,435.5,403.4,435.5z M400.5,423.2h9.4c0.2-1.4,0-2.5-0.7-3.4c-0.7-0.9-1.7-1.3-3.1-1.3
		c-0.9,0-1.8,0.2-2.6,0.7s-1.5,1-2,1.8C401.1,421.7,400.6,422.5,400.5,423.2z"/>
	<path class="st1" d="M416.4,435.1l3.3-20h4.5l-0.6,3.4h0.2c0.6-1.2,1.5-2,2.5-2.7s2.3-1,3.6-1s2.4,0.3,3.2,1
		c0.8,0.7,1.3,1.5,1.5,2.7h0.2c0.6-1.1,1.5-2,2.7-2.6c1.2-0.7,2.5-1,4-1c1.8,0,3.2,0.6,4.2,1.8c1,1.2,1.2,2.9,0.9,5l-2.3,13.4h-4.7
		l2.1-12.7c0.2-1.2,0-2.1-0.6-2.7c-0.6-0.6-1.3-0.9-2.3-0.9c-1.1,0-2,0.4-2.9,1c-0.8,0.7-1.2,1.6-1.4,2.8l-2.1,12.4h-4.6l2.1-12.9
		c0.1-1,0-1.8-0.5-2.5c-0.5-0.6-1.2-1-2.3-1c-1,0-2,0.4-2.8,1.2c-0.8,0.7-1.4,1.8-1.5,3l-2,12.1L416.4,435.1L416.4,435.1z"/>
	<path class="st1" d="M449.2,435.1l3.3-20h4.7l-3.3,20H449.2z M455.6,412.3c-0.7,0-1.4-0.2-1.8-0.7s-0.7-1.1-0.7-1.8
		c0.1-0.7,0.4-1.3,1-1.8s1.2-0.7,2-0.7c0.7,0,1.4,0.2,1.8,0.7s0.7,1.1,0.7,1.8c-0.1,0.7-0.4,1.3-1,1.8
		C457,412,456.3,412.3,455.6,412.3z"/>
	<path class="st1" d="M458.9,435.1l4.4-26.6h4.7l-1.6,9.9h0.2c0.3-0.5,0.7-1,1.2-1.5c0.5-0.6,1.2-1,2-1.4c0.8-0.4,1.8-0.6,3-0.6
		c1.5,0,2.9,0.4,4,1.2s1.9,2,2.4,3.4c0.5,1.5,0.5,3.4,0.1,5.6c-0.4,2.2-1,4-2,5.6c-1,1.5-2.1,2.7-3.5,3.5c-1.4,0.8-2.9,1.2-4.4,1.2
		c-1.2,0-2-0.2-2.8-0.6s-1.2-0.9-1.6-1.4c-0.4-0.5-0.7-1-0.8-1.5h-0.3l-0.5,3.1L458.9,435.1L458.9,435.1z M465.2,425.1
		c-0.3,1.9-0.1,3.5,0.4,4.7c0.6,1.2,1.7,1.8,3.1,1.8c1.5,0,2.9-0.6,3.8-1.8c1-1.2,1.7-2.8,2-4.6c0.3-1.8,0.1-3.4-0.4-4.6
		c-0.6-1.2-1.7-1.8-3.2-1.8c-1.5,0-2.8,0.6-3.8,1.8C466.2,421.6,465.5,423.2,465.2,425.1z"/>
	<path class="st1" d="M490.6,435.5c-2,0-3.6-0.4-4.9-1.3c-1.3-0.9-2.2-2.1-2.8-3.7c-0.5-1.5-0.7-3.4-0.3-5.4c0.4-2,1-3.8,2-5.3
		c1-1.5,2.3-2.7,3.9-3.6c1.5-0.9,3.3-1.2,5.2-1.2c2,0,3.6,0.4,4.9,1.3c1.3,0.9,2.2,2.1,2.8,3.7c0.5,1.5,0.7,3.4,0.3,5.5
		c-0.4,2-1,3.8-2,5.3c-1,1.5-2.3,2.7-3.9,3.6C494.3,435,492.5,435.5,490.6,435.5z M491,431.7c1.1,0,2-0.3,2.9-0.9
		c0.8-0.6,1.5-1.4,2-2.4c0.5-1,0.9-2.1,1.1-3.4c0.2-1.2,0.2-2.3,0-3.2c-0.2-1-0.6-1.8-1.2-2.3c-0.6-0.6-1.4-0.9-2.5-0.9
		s-2,0.3-2.9,0.9c-0.8,0.6-1.5,1.4-2,2.4s-0.9,2.1-1.1,3.4c-0.2,1.2-0.2,2.3,0,3.2c0.1,1,0.6,1.8,1.2,2.3
		C489.1,431.4,489.9,431.7,491,431.7z"/>
	<path class="st1" d="M513.1,408.5l-4.4,26.6h-4.7l4.4-26.6H513.1z"/>
	<path class="st1" d="M521,435.4c-1.5,0-2.9-0.4-4-1.2s-1.9-2-2.3-3.5c-0.4-1.5-0.5-3.4-0.1-5.6s1-4.1,2-5.6c1-1.5,2.2-2.7,3.5-3.4
		c1.3-0.7,2.9-1.2,4.4-1.2c1.2,0,2.1,0.2,2.8,0.6c0.7,0.4,1.2,0.9,1.5,1.4c0.4,0.6,0.6,1.1,0.7,1.5h0.2l1.7-9.9h4.7l-4.4,26.6H527
		l0.5-3.1h-0.3c-0.3,0.5-0.7,1-1.3,1.5c-0.6,0.5-1.2,1-2,1.4C523.1,435.3,522.1,435.4,521,435.4z M522.9,431.6
		c1.5,0,2.8-0.6,3.8-1.8s1.7-2.8,2-4.7c0.3-2,0.1-3.5-0.4-4.6c-0.7-1.2-1.7-1.8-3.2-1.8c-1.5,0-2.9,0.6-3.8,1.8
		c-1,1.2-1.6,2.7-1.9,4.6c-0.3,1.9-0.1,3.4,0.4,4.6C520.4,431,521.3,431.6,522.9,431.6z"/>
	<path class="st1" d="M555.2,408.5l-4.4,26.6H546l4.4-26.6H555.2z"/>
	<path class="st1" d="M569.1,415.1l-0.6,3.7h-4l-1.7,10.3c-0.1,1,0,1.5,0.4,1.8c0.4,0.3,0.9,0.4,1.5,0.4c0.3,0,0.6,0,0.8-0.1
		c0.2-0.1,0.4-0.1,0.6-0.1l0.2,3.7c-0.3,0.1-0.7,0.1-1.2,0.3c-0.5,0.1-1,0.1-1.8,0.1c-1.8,0.1-3.2-0.4-4.2-1.3c-1-1-1.4-2.3-1.1-4.2
		l1.8-11.1H557l0.6-3.7h2.9l0.8-4.8h4.7l-0.8,4.8h4V415.1z"/>
	<path class="st1" d="M575.4,435.5c-1.9,0-3.4-0.5-4.5-1.5c-1.1-1-1.5-2.5-1.2-4.5c0.2-1.5,0.8-2.6,1.7-3.5c0.9-0.8,1.9-1.5,3.1-1.8
		c1.2-0.4,2.5-0.7,3.8-0.8c1.8-0.2,3.1-0.4,3.9-0.5c0.8-0.1,1.2-0.6,1.4-1.2v-0.1c0.1-1,0-1.8-0.4-2.3s-1.2-0.8-2.3-0.8
		c-1.2,0-2.1,0.2-2.9,0.7c-0.8,0.5-1.3,1.1-1.7,1.8l-4.2-0.7c0.8-1.8,2-3.2,3.7-4.1s3.6-1.4,5.6-1.4c1,0,1.9,0.1,2.8,0.4
		s1.8,0.6,2.4,1.1c0.7,0.5,1.2,1.2,1.5,2.1c0.3,0.9,0.4,2,0.1,3.3l-2.2,13.4h-4.5l0.4-2.7h-0.1c-0.6,0.8-1.4,1.6-2.4,2.2
		C578.2,435.2,576.9,435.5,575.4,435.5z M577.1,432c1.4,0,2.6-0.4,3.6-1.2c1-0.8,1.5-1.8,1.8-2.9l0.4-2.3c-0.2,0.1-0.6,0.3-1.2,0.4
		c-0.6,0.1-1.2,0.2-1.8,0.3c-0.6,0.1-1.1,0.1-1.5,0.2c-1.1,0.1-2,0.4-2.8,0.9c-0.8,0.4-1.2,1.1-1.4,2c-0.1,0.9,0.1,1.5,0.6,2
		C575.3,431.8,576.2,432,577.1,432z"/>
	<path class="st1" d="M599.8,408.5l-4.4,26.6h-4.7l4.4-26.6H599.8z"/>
	<path class="st1" d="M600.3,435.1l3.3-20h4.7l-3.3,20H600.3z M606.6,412.3c-0.7,0-1.4-0.2-1.8-0.7s-0.7-1.1-0.7-1.8
		c0.1-0.7,0.4-1.3,1-1.8s1.2-0.7,2-0.7c0.7,0,1.4,0.2,1.8,0.7c0.5,0.5,0.7,1.1,0.7,1.8c-0.1,0.7-0.4,1.3-1,1.8
		S607.4,412.3,606.6,412.3z"/>
	<path class="st1" d="M618.4,435.5c-2,0-3.7-0.4-4.9-1.3c-1.3-0.9-2.2-2.1-2.7-3.7c-0.5-1.5-0.6-3.4-0.2-5.3c0.4-2,1-3.8,2-5.3
		c1-1.5,2.3-2.8,4-3.7s3.4-1.3,5.3-1.3c2.4,0,4.3,0.7,5.6,2c1.3,1.3,1.9,3.1,1.8,5.2h-4.5c0-1-0.3-1.8-0.9-2.4c-0.6-0.7-1.4-1-2.6-1
		c-1.5,0-2.7,0.6-3.8,1.7c-1.1,1.2-1.8,2.7-2.1,4.8s-0.1,3.7,0.5,4.8c0.7,1.2,1.8,1.8,3.2,1.8c1,0,2-0.3,2.8-0.9
		c0.8-0.6,1.4-1.4,1.8-2.5h4.5c-0.4,1.4-1,2.6-1.9,3.7s-2,1.9-3.4,2.6C621.6,435.2,620.1,435.5,618.4,435.5z"/>
</g>
</svg>
