<?xml version="1.0" encoding="utf-8"?>
<!-- Generator: Adobe Illustrator 23.0.2, SVG Export Plug-In . SVG Version: 6.00 Build 0)  -->
<svg version="1.1" id="Livello_1" xmlns="http://www.w3.org/2000/svg" xmlns:xlink="http://www.w3.org/1999/xlink" x="0px" y="0px"
	 viewBox="0 0 793 609" style="enable-background:new 0 0 793 609;" xml:space="preserve">
<style type="text/css">
	.st0{fill:#FFFFFF;}
	.st1{opacity:0.5;}
</style>
<g>
	<path class="st0" d="M51.6,40.9v97.5H34V40.9H51.6z"/>
	<path class="st0" d="M84.6,40.9v9.7c0,4.2-1.2,8.6-3.5,13.1c-2.3,4.5-5.2,8.2-8.7,11.1l-8-5.2c1.7-2.6,3.3-5.5,4.6-8.5
		c1.3-3.1,2-6.5,2-10.4v-9.8H84.6z"/>
	<path class="st0" d="M100.6,138.4V65.3h16.5v12.4h0.9c1.5-4.2,4-7.4,7.6-9.8c3.5-2.4,7.7-3.6,12.6-3.6c4.9,0,9.1,1.2,12.5,3.6
		c3.4,2.4,5.8,5.6,7.2,9.8h0.8c1.6-4.1,4.4-7.3,8.2-9.7c3.9-2.4,8.4-3.6,13.7-3.6c6.7,0,12.2,2.1,16.5,6.4
		c4.3,4.3,6.4,10.5,6.4,18.6v49.1h-17.3V92c0-4.5-1.2-7.9-3.6-10c-2.4-2.1-5.4-3.2-8.9-3.2c-4.2,0-7.4,1.3-9.7,3.9
		c-2.3,2.6-3.5,5.9-3.5,10.1v45.6h-16.9V91.2c0-3.8-1.1-6.8-3.4-9c-2.3-2.3-5.2-3.4-8.9-3.4c-3.7,0-6.9,1.4-9.5,4.2
		c-2.6,2.8-3.9,6.4-3.9,10.9v44.4H100.6z"/>
	<path class="st0" d="M272.6,40.9v97.5h-17.7V40.9H272.6z"/>
	<path class="st0" d="M308.2,95.5v42.8H291V65.3h16.5v12.4h0.9c1.7-4.1,4.4-7.3,8.1-9.7c3.7-2.4,8.3-3.6,13.7-3.6
		c7.5,0,13.6,2.4,18.2,7.2c4.6,4.8,6.9,11.6,6.8,20.3v46.5h-17.2V94.5c0-4.9-1.3-8.7-3.8-11.5s-6-4.1-10.4-4.1
		c-4.5,0-8.2,1.5-11.1,4.4C309.6,86.1,308.2,90.2,308.2,95.5z"/>
	<path class="st0" d="M409.2,65.3v13.3h-14.4v37.8c0,3.5,0.8,5.7,2.3,6.8c1.5,1.1,3.4,1.6,5.5,1.6c1.1,0,2.1-0.1,3-0.2
		c0.9-0.2,1.6-0.3,2.1-0.4l2.9,13.5c-0.9,0.3-2.2,0.7-3.9,1c-1.7,0.4-3.8,0.6-6.2,0.7c-6.5,0.2-11.9-1.4-16.3-4.8
		c-4.4-3.4-6.6-8.5-6.5-15.4V78.6h-10.4V65.3h10.4V47.7h17.2v17.5H409.2z"/>
	<path class="st0" d="M455.2,139.8c-7.3,0-13.6-1.5-19-4.6c-5.3-3.1-9.4-7.4-12.3-13c-2.9-5.6-4.3-12.2-4.3-19.9
		c0-7.5,1.4-14.1,4.3-19.8c2.9-5.7,6.9-10.1,12.1-13.3c5.2-3.2,11.3-4.8,18.2-4.8c6,0,11.5,1.3,16.6,3.9s9.1,6.6,12.2,12
		c3.1,5.4,4.6,12.4,4.6,21v5.3h-50.9c0.1,6.2,1.8,11.1,5.2,14.6c3.4,3.5,7.9,5.2,13.4,5.2c3.7,0,6.9-0.8,9.6-2.4
		c2.7-1.6,4.7-3.9,5.8-7l16.1,1.8c-1.5,6.3-5.1,11.4-10.6,15.3C470.8,137.9,463.7,139.8,455.2,139.8z M436.8,94.9h34.4
		c0-5-1.6-9.1-4.6-12.3c-3.1-3.2-7.1-4.9-12-4.9c-5.1,0-9.3,1.7-12.5,5.1C438.8,86.2,437.1,90.2,436.8,94.9z"/>
	<path class="st0" d="M502.3,138.4V65.3H519v12.2h0.8c1.3-4.3,3.6-7.5,6.9-9.8c3.2-2.3,7-3.4,11.2-3.4c2,0,3.8,0.2,5.4,0.7
		c1.6,0.5,3.1,1.1,4.4,2l-5.3,14.3c-0.9-0.4-1.9-0.8-3-1.1c-1.1-0.3-2.4-0.4-3.8-0.4c-4.5,0-8.3,1.5-11.3,4.4
		c-3.1,2.9-4.6,6.7-4.6,11.3v43H502.3z"/>
	<path class="st0" d="M37.8,211.6v27.6h-7v-45.8h6.8v7.2h0.6c1.1-2.3,2.7-4.2,4.9-5.6c2.2-1.4,5-2.1,8.5-2.1c4.6,0,8.4,1.4,11.2,4.3
		c2.9,2.8,4.3,7.2,4.3,13v29.1h-7v-28.6c0-3.6-0.9-6.4-2.8-8.4c-1.9-2-4.4-3-7.7-3c-3.4,0-6.1,1.1-8.4,3.3
		C39,204.5,37.8,207.6,37.8,211.6z"/>
	<path class="st0" d="M83.5,185.7c-1.4,0-2.6-0.5-3.5-1.4s-1.5-2.1-1.5-3.4s0.5-2.4,1.5-3.4s2.2-1.4,3.5-1.4c1.4,0,2.6,0.5,3.5,1.4
		s1.5,2.1,1.5,3.4s-0.5,2.4-1.5,3.4S84.9,185.7,83.5,185.7z M80,239.2v-45.8h7v45.8H80z"/>
	<path class="st0" d="M118.5,240.1c-4.3,0-8-1-11.1-3c-3.1-2-5.5-4.8-7.2-8.4s-2.5-7.6-2.5-12.2c0-4.7,0.9-8.8,2.6-12.3
		s4.1-6.4,7.2-8.4s6.7-3,10.8-3c3.2,0,6.1,0.6,8.7,1.8c2.6,1.2,4.7,2.9,6.4,5c1.7,2.1,2.7,4.7,3.1,7.5h-7c-0.5-2.1-1.7-3.9-3.6-5.6
		c-1.8-1.6-4.3-2.4-7.4-2.4c-4.1,0-7.4,1.6-9.9,4.7c-2.5,3.1-3.8,7.3-3.8,12.5c0,5.3,1.2,9.6,3.7,12.8c2.5,3.2,5.8,4.8,10,4.8
		c2.7,0,5.1-0.7,7.1-2.1c2-1.4,3.3-3.4,3.9-5.9h7c-0.4,2.7-1.4,5.1-2.9,7.3c-1.6,2.2-3.6,3.9-6.2,5.1
		C124.8,239.5,121.9,240.1,118.5,240.1z"/>
	<path class="st0" d="M166,240.1c-4.4,0-8.2-1-11.4-2.9s-5.6-4.7-7.4-8.2c-1.7-3.5-2.6-7.6-2.6-12.3s0.9-8.8,2.6-12.4
		c1.7-3.6,4.1-6.4,7.2-8.4s6.7-3,10.8-3c2.4,0,4.7,0.4,7.1,1.2c2.3,0.8,4.4,2.1,6.4,3.9c1.9,1.8,3.4,4.1,4.6,7.1
		c1.1,2.9,1.7,6.5,1.7,10.8v3h-33.3c0.2,4.9,1.5,8.6,4.2,11.2c2.6,2.6,6,3.9,10.1,3.9c2.8,0,5.1-0.6,7.1-1.8c2-1.2,3.4-3,4.3-5.4
		l6.8,1.9c-1.1,3.5-3.2,6.3-6.4,8.4S170.6,240.1,166,240.1z M151.7,212.5h26.1c0-3.9-1.1-7.1-3.4-9.6c-2.3-2.6-5.3-3.8-9.1-3.8
		c-2.7,0-5,0.6-7,1.9s-3.5,2.9-4.7,5C152.5,208,151.9,210.2,151.7,212.5z"/>
	<path class="st0" d="M239.2,193.3v6h-9.8V226c0,2,0.3,3.5,0.9,4.5c0.6,1,1.3,1.6,2.3,2c0.9,0.3,1.9,0.5,2.9,0.5
		c0.8,0,1.4,0,1.9-0.1c0.5-0.1,0.9-0.2,1.2-0.2l1.4,6.3c-0.5,0.2-1.1,0.4-2,0.6c-0.9,0.2-1.9,0.3-3.3,0.3c-2,0-3.9-0.4-5.8-1.3
		c-1.9-0.9-3.5-2.2-4.7-3.9s-1.9-4-1.9-6.6v-28.6h-6.9v-6h6.9v-11h7v11H239.2z"/>
	<path class="st0" d="M268,240.1c-4.1,0-7.8-1-10.9-3c-3.1-2-5.5-4.7-7.3-8.3c-1.7-3.5-2.6-7.7-2.6-12.4c0-4.8,0.9-8.9,2.6-12.5
		c1.7-3.6,4.2-6.3,7.3-8.3c3.1-2,6.7-3,10.9-3s7.8,1,10.9,3s5.5,4.7,7.3,8.3s2.6,7.7,2.6,12.5c0,4.7-0.9,8.9-2.6,12.4
		c-1.7,3.5-4.2,6.3-7.3,8.3S272.1,240.1,268,240.1z M268,233.8c3.1,0,5.7-0.8,7.8-2.4c2-1.6,3.5-3.7,4.5-6.4c1-2.6,1.5-5.5,1.5-8.5
		c0-3.1-0.5-5.9-1.5-8.6c-1-2.6-2.5-4.8-4.5-6.4s-4.6-2.4-7.8-2.4s-5.7,0.8-7.8,2.4s-3.5,3.8-4.5,6.4c-1,2.6-1.5,5.5-1.5,8.6
		c0,3.1,0.5,5.9,1.5,8.5c1,2.6,2.5,4.7,4.5,6.4C262.3,233,264.9,233.8,268,233.8z"/>
	<path class="st0" d="M323.1,239.2v-45.8h6.8v7.2h0.6c1-2.4,2.5-4.3,4.6-5.7s4.7-2,7.7-2c3,0,5.5,0.7,7.6,2c2,1.4,3.6,3.3,4.7,5.7
		h0.5c1.2-2.4,2.9-4.3,5.3-5.7c2.3-1.4,5.2-2.1,8.4-2.1c4.1,0,7.4,1.3,10.1,3.8c2.6,2.6,3.9,6.5,3.9,11.9v30.7h-7v-30.7
		c0-3.4-0.9-5.8-2.8-7.2c-1.8-1.5-4-2.2-6.5-2.2c-3.2,0-5.7,1-7.5,2.9c-1.8,1.9-2.7,4.4-2.7,7.4v29.8h-7.2v-31.4
		c0-2.6-0.8-4.7-2.5-6.3c-1.7-1.6-3.9-2.4-6.5-2.4c-1.8,0-3.5,0.5-5.1,1.5c-1.6,1-2.9,2.3-3.8,4c-1,1.7-1.4,3.7-1.4,6v28.6H323.1z"
		/>
	<path class="st0" d="M415.4,240.1c-4.4,0-8.2-1-11.4-2.9s-5.6-4.7-7.4-8.2c-1.7-3.5-2.6-7.6-2.6-12.3s0.9-8.8,2.6-12.4
		c1.7-3.6,4.1-6.4,7.2-8.4s6.7-3,10.8-3c2.4,0,4.7,0.4,7.1,1.2c2.3,0.8,4.4,2.1,6.4,3.9c1.9,1.8,3.4,4.1,4.6,7.1
		c1.1,2.9,1.7,6.5,1.7,10.8v3h-33.3c0.2,4.9,1.5,8.6,4.2,11.2c2.6,2.6,6,3.9,10.1,3.9c2.8,0,5.1-0.6,7.1-1.8c2-1.2,3.4-3,4.3-5.4
		l6.8,1.9c-1.1,3.5-3.2,6.3-6.4,8.4S420,240.1,415.4,240.1z M401.1,212.5h26.1c0-3.9-1.1-7.1-3.4-9.6c-2.3-2.6-5.3-3.8-9.1-3.8
		c-2.7,0-5,0.6-7,1.9s-3.5,2.9-4.7,5C401.9,208,401.2,210.2,401.1,212.5z"/>
	<path class="st0" d="M464.3,240.1c-4.4,0-8.2-1-11.4-2.9s-5.6-4.7-7.4-8.2c-1.7-3.5-2.6-7.6-2.6-12.3s0.9-8.8,2.6-12.4
		c1.7-3.6,4.1-6.4,7.2-8.4s6.7-3,10.8-3c2.4,0,4.7,0.4,7.1,1.2c2.3,0.8,4.4,2.1,6.4,3.9c1.9,1.8,3.4,4.1,4.6,7.1
		c1.1,2.9,1.7,6.5,1.7,10.8v3H450c0.2,4.9,1.5,8.6,4.2,11.2c2.6,2.6,6,3.9,10.1,3.9c2.8,0,5.1-0.6,7.1-1.8c2-1.2,3.4-3,4.3-5.4
		l6.8,1.9c-1.1,3.5-3.2,6.3-6.4,8.4S468.9,240.1,464.3,240.1z M450,212.5h26.1c0-3.9-1.1-7.1-3.4-9.6c-2.3-2.6-5.3-3.8-9.1-3.8
		c-2.7,0-5,0.6-7,1.9c-2,1.3-3.5,2.9-4.7,5C450.8,208,450.2,210.2,450,212.5z"/>
	<path class="st0" d="M513.9,193.3v6h-9.8V226c0,2,0.3,3.5,0.9,4.5s1.3,1.6,2.3,2s1.9,0.5,2.9,0.5c0.8,0,1.4,0,1.9-0.1
		s0.9-0.2,1.2-0.2l1.4,6.3c-0.5,0.2-1.1,0.4-2,0.6c-0.9,0.2-1.9,0.3-3.3,0.3c-2,0-3.9-0.4-5.8-1.3c-1.9-0.9-3.5-2.2-4.7-3.9
		c-1.2-1.8-1.9-4-1.9-6.6v-28.6h-6.9v-6h6.9v-11h7v11H513.9z"/>
	<path class="st0" d="M552.5,256.9c-1.2,0-2.3-0.1-3.2-0.3c-0.9-0.2-1.6-0.4-1.9-0.6l1.8-6.2c2.6,0.7,4.7,0.6,6.4,0
		c1.7-0.7,3.2-2.7,4.4-6.2l1.6-4.3l-16.9-46.1h7.6l12.6,36.5h0.5l12.6-36.5h7.6l-19.7,53.2C563.4,253.5,558.9,256.9,552.5,256.9z"/>
	<path class="st0" d="M611.9,240.1c-4.1,0-7.8-1-10.9-3s-5.5-4.7-7.3-8.3c-1.7-3.5-2.6-7.7-2.6-12.4c0-4.8,0.9-8.9,2.6-12.5
		s4.2-6.3,7.3-8.3s6.7-3,10.9-3s7.8,1,10.9,3s5.5,4.7,7.3,8.3s2.6,7.7,2.6,12.5c0,4.7-0.9,8.9-2.6,12.4c-1.7,3.5-4.2,6.3-7.3,8.3
		S616,240.1,611.9,240.1z M611.9,233.8c3.1,0,5.7-0.8,7.8-2.4c2-1.6,3.5-3.7,4.5-6.4s1.5-5.5,1.5-8.5c0-3.1-0.5-5.9-1.5-8.6
		s-2.5-4.8-4.5-6.4s-4.6-2.4-7.8-2.4c-3.1,0-5.7,0.8-7.8,2.4s-3.5,3.8-4.5,6.4s-1.5,5.5-1.5,8.6c0,3.1,0.5,5.9,1.5,8.5
		s2.5,4.7,4.5,6.4C606.1,233,608.7,233.8,611.9,233.8z"/>
	<path class="st0" d="M672.3,220.4v-27.1h7v45.8h-7v-7.8h-0.5c-1.1,2.3-2.7,4.3-5,5.9c-2.3,1.6-5.1,2.4-8.6,2.4
		c-4.3,0-7.8-1.4-10.6-4.3s-4.2-7.2-4.2-13v-29.1h7V222c0,3.3,0.9,6,2.8,8c1.9,2,4.3,3,7.2,3c1.8,0,3.5-0.4,5.4-1.3
		c1.8-0.9,3.4-2.3,4.6-4.1C671.6,225.6,672.3,223.3,672.3,220.4z"/>
	<path class="st0" d="M697.4,239.6c-1.5,0-2.7-0.5-3.8-1.6c-1.1-1.1-1.6-2.3-1.6-3.8s0.5-2.7,1.6-3.8c1.1-1.1,2.3-1.6,3.8-1.6
		s2.7,0.5,3.8,1.6c1.1,1.1,1.6,2.3,1.6,3.8s-0.5,2.7-1.6,3.8S698.9,239.6,697.4,239.6z M701.5,178.1l-0.6,43.9H694l-0.6-43.9H701.5z
		"/>
</g>
<g>
	<path class="st0" d="M28.8,384.4V348H41c2.8,0,5.2,0.5,7,1.4c1.8,1,3.2,2.3,4,4s1.3,3.6,1.3,5.7c0,2.4-0.6,4.5-1.7,6.3
		c-1.1,1.8-2.8,3.1-5.1,3.9l8.2,15h-5.1L42,370.1c-0.3,0-0.6,0-0.9,0h-8v14.2H28.8z M33.2,366.2H41c2.9,0,5-0.6,6.2-1.9
		c1.2-1.3,1.9-3,1.9-5.1c0-2.2-0.6-3.9-1.9-5.3c-1.2-1.3-3.3-2-6.3-2h-7.7V366.2z"/>
	<path class="st0" d="M71.3,384.9c-2.6,0-4.9-0.6-6.8-1.7s-3.4-2.8-4.4-4.9c-1-2.1-1.5-4.5-1.5-7.3c0-2.8,0.5-5.3,1.5-7.4
		c1-2.1,2.5-3.8,4.3-5c1.8-1.2,4-1.8,6.5-1.8c1.4,0,2.8,0.2,4.2,0.7c1.4,0.5,2.6,1.2,3.8,2.3c1.1,1.1,2,2.5,2.7,4.2s1,3.9,1,6.4v1.8
		H62.8c0.1,2.9,0.9,5.1,2.5,6.7c1.6,1.6,3.6,2.3,6,2.3c1.6,0,3.1-0.4,4.2-1.1c1.2-0.7,2-1.8,2.6-3.2l4,1.1c-0.6,2.1-1.9,3.7-3.8,5
		C76.4,384.3,74.1,384.9,71.3,384.9z M62.8,368.5h15.5c0-2.3-0.7-4.2-2-5.7c-1.3-1.5-3.2-2.3-5.4-2.3c-1.6,0-3,0.4-4.2,1.1
		s-2.1,1.7-2.8,3C63.3,365.8,62.9,367.1,62.8,368.5z"/>
	<path class="st0" d="M100,395.1c-3,0-5.4-0.6-7.2-1.7c-1.8-1.1-3.1-2.4-3.9-3.8l3.3-2.3c0.4,0.5,0.9,1.1,1.4,1.7s1.4,1.2,2.4,1.7
		c1,0.5,2.3,0.7,4,0.7c2.2,0,4-0.5,5.5-1.6c1.4-1.1,2.1-2.7,2.1-5v-5.5h-0.4c-0.3,0.5-0.7,1.1-1.3,1.8c-0.6,0.7-1.4,1.4-2.4,1.9
		c-1,0.6-2.5,0.8-4.2,0.8c-2.2,0-4.2-0.5-5.9-1.6c-1.7-1-3.1-2.6-4.1-4.5c-1-2-1.5-4.4-1.5-7.2c0-2.8,0.5-5.2,1.5-7.3
		c1-2.1,2.3-3.7,4.1-4.8c1.8-1.1,3.8-1.7,6.1-1.7c1.8,0,3.2,0.3,4.2,0.9c1,0.6,1.9,1.2,2.4,2c0.6,0.7,1,1.3,1.3,1.8h0.4v-4.3h4v28.1
		c0,2.3-0.5,4.3-1.6,5.7c-1.1,1.5-2.5,2.6-4.3,3.2C104.2,394.8,102.2,395.1,100,395.1z M99.9,380.2c2.5,0,4.5-0.9,5.8-2.6
		c1.3-1.7,2-4.1,2-7.1c0-2.9-0.7-5.4-2-7.2s-3.3-2.8-5.8-2.8c-1.8,0-3.3,0.4-4.4,1.3c-1.2,0.9-2.1,2.1-2.6,3.6
		c-0.6,1.5-0.9,3.2-0.9,5c0,2.8,0.7,5.2,2,7C95.2,379.3,97.2,380.2,99.9,380.2z"/>
	<path class="st0" d="M136.6,373.2v-16.1h4.2v27.3h-4.2v-4.6h-0.3c-0.6,1.4-1.6,2.6-3,3.5c-1.3,1-3.1,1.4-5.1,1.4
		c-2.6,0-4.7-0.8-6.3-2.5c-1.7-1.7-2.5-4.3-2.5-7.8v-17.3h4.2v17c0,2,0.6,3.6,1.7,4.8s2.5,1.8,4.3,1.8c1,0,2.1-0.3,3.2-0.8
		s2-1.3,2.7-2.5C136.3,376.3,136.6,374.9,136.6,373.2z"/>
	<path class="st0" d="M152.7,348v36.4h-4.2V348H152.7z"/>
	<path class="st0" d="M168.4,385c-1.7,0-3.3-0.3-4.7-1c-1.4-0.7-2.5-1.6-3.4-2.9c-0.8-1.2-1.2-2.8-1.2-4.5c0-1.6,0.3-2.8,0.9-3.8
		s1.4-1.7,2.5-2.3c1-0.6,2.2-1,3.4-1.3c1.2-0.3,2.5-0.5,3.8-0.7c1.7-0.2,3-0.4,4-0.5c1-0.1,1.8-0.3,2.3-0.6c0.5-0.3,0.7-0.7,0.7-1.4
		V366c0-1.8-0.5-3.1-1.4-4.1c-1-1-2.4-1.5-4.3-1.5c-2,0-3.6,0.4-4.7,1.3c-1.1,0.9-1.9,1.8-2.4,2.8l-4-1.4c0.7-1.7,1.7-3,2.9-3.9
		c1.2-0.9,2.5-1.6,3.9-2c1.4-0.4,2.8-0.6,4.2-0.6c0.9,0,1.9,0.1,3,0.3c1.1,0.2,2.2,0.6,3.3,1.3c1.1,0.6,2,1.6,2.7,2.9
		c0.7,1.3,1.1,3,1.1,5.2v18h-4.2v-3.7h-0.2c-0.3,0.6-0.8,1.2-1.4,1.9c-0.7,0.7-1.5,1.2-2.6,1.7C171.3,384.8,170,385,168.4,385z
		 M169,381.2c1.7,0,3.1-0.3,4.2-1c1.1-0.7,2-1.5,2.6-2.5c0.6-1,0.9-2.1,0.9-3.2v-3.8c-0.2,0.2-0.6,0.4-1.2,0.6
		c-0.6,0.2-1.3,0.3-2.1,0.4s-1.5,0.2-2.3,0.3s-1.3,0.2-1.8,0.2c-1.1,0.1-2.1,0.4-3,0.7c-0.9,0.3-1.7,0.8-2.3,1.4
		c-0.6,0.6-0.9,1.5-0.9,2.5c0,1.5,0.5,2.6,1.6,3.3C166,380.9,167.4,381.2,169,381.2z"/>
	<path class="st0" d="M188.6,384.4v-27.3h4v4.1h0.3c0.5-1.3,1.4-2.4,2.7-3.3c1.3-0.8,2.8-1.3,4.4-1.3c0.8,0,1.4,0.1,2,0.3
		c0.6,0.2,1.1,0.4,1.5,0.7l-1.4,3.6c-0.3-0.2-0.6-0.3-1-0.4c-0.4-0.1-0.9-0.1-1.4-0.1c-2,0-3.6,0.6-4.9,1.8c-1.3,1.2-2,2.7-2,4.6
		v17.3H188.6z"/>
	<path class="st0" d="M26.5,456.4l6-36.4h12.3c2.8,0,5.1,0.5,6.8,1.4c1.7,1,2.8,2.3,3.4,4c0.6,1.7,0.7,3.6,0.4,5.8
		c-0.4,2.4-1.3,4.5-2.7,6.3c-1.4,1.8-3.3,3.1-5.8,3.9l5.8,15h-5.1l-5.3-14.2c-0.3,0-0.6,0-0.9,0h-7.9l-2.4,14.2H26.5z M33.9,438.2
		h7.8c2.9,0,5.1-0.6,6.5-1.9c1.4-1.3,2.3-3,2.7-5.1c0.4-2.2,0-4-1-5.3c-1-1.3-3-2-6-2h-7.7L33.9,438.2z"/>
	<path class="st0" d="M69,456.9c-2.6,0-4.8-0.6-6.5-1.7s-2.9-2.8-3.6-4.9c-0.7-2.1-0.8-4.5-0.3-7.3c0.5-2.8,1.4-5.3,2.8-7.4
		c1.4-2.1,3.1-3.8,5.1-5c2-1.2,4.3-1.8,6.7-1.8c1.4,0,2.8,0.2,4.1,0.7c1.3,0.5,2.5,1.2,3.4,2.3c1,1.1,1.6,2.5,2,4.2
		c0.4,1.7,0.4,3.9-0.1,6.4l-0.3,1.8H62.6c-0.5,3.3-0.1,5.7,1.2,7c1.3,1.3,3.2,2,5.9,2c1.7,0,3.2-0.4,4.4-1.1
		c1.3-0.7,2.3-1.8,3.1-3.2L81,450c-1,2.1-2.5,3.7-4.7,5C74.2,456.3,71.7,456.9,69,456.9z M63.1,440.5h15.6c0.4-2.3,0.1-4.2-1-5.7
		c-1.1-1.5-2.8-2.3-5.1-2.3c-1.5,0-3,0.4-4.3,1.2s-2.5,1.8-3.4,3C64,438,63.4,439.2,63.1,440.5z"/>
	<path class="st0" d="M96.1,467.1c-2,0-3.7-0.3-5.1-0.8c-1.4-0.5-2.5-1.2-3.3-2c-0.8-0.8-1.5-1.7-1.9-2.7l3.8-2.3
		c0.3,0.5,0.7,1.1,1.1,1.7s1.1,1.2,2.1,1.7s2.2,0.7,3.9,0.7c2.2,0,4.1-0.5,5.8-1.6c1.6-1.1,2.7-2.7,3.1-5l0.9-5.5h-0.4
		c-0.4,0.5-0.9,1.1-1.6,1.8c-0.7,0.7-1.6,1.4-2.7,1.9c-1.1,0.6-2.6,0.8-4.4,0.8c-2.2,0-4.1-0.5-5.7-1.6c-1.6-1-2.7-2.6-3.4-4.5
		s-0.8-4.4-0.3-7.2c0.5-2.8,1.4-5.2,2.7-7.3c1.3-2.1,3-3.7,4.9-4.8c1.9-1.1,4.1-1.7,6.4-1.7c1.8,0,3.1,0.3,4.1,0.9
		c1,0.6,1.6,1.2,2.1,2c0.4,0.7,0.8,1.3,1,1.8h0.4l0.7-4.3h4l-4.6,28.1c-0.4,2.3-1.2,4.3-2.5,5.7s-2.9,2.6-4.8,3.2
		S98.3,467.1,96.1,467.1z M98.3,452.2c2.5,0,4.6-0.9,6.3-2.6s2.8-4.1,3.2-7.1c0.5-2.9,0.2-5.4-0.9-7.2s-2.9-2.8-5.4-2.8
		c-1.8,0-3.3,0.4-4.6,1.3c-1.3,0.9-2.3,2.1-3.2,3.6c-0.8,1.5-1.4,3.2-1.7,5c-0.5,2.8-0.2,5.2,0.8,7
		C93.8,451.3,95.7,452.2,98.3,452.2z"/>
	<path class="st0" d="M136.3,445.2l2.7-16.1h4.2l-4.5,27.3h-4.2l0.8-4.6h-0.3c-0.9,1.4-2,2.6-3.6,3.5s-3.3,1.4-5.4,1.4
		c-2.6,0-4.5-0.8-5.9-2.5c-1.4-1.7-1.8-4.3-1.2-7.8l2.9-17.3h4.2l-2.8,17c-0.3,2,0,3.6,0.9,4.8s2.3,1.8,4,1.8c1,0,2.1-0.3,3.3-0.8
		c1.2-0.5,2.2-1.3,3.1-2.5C135.4,448.3,136,446.9,136.3,445.2z"/>
	<path class="st0" d="M156.5,420l-6,36.4h-4.2l6-36.4H156.5z"/>
	<path class="st0" d="M166.1,457c-1.7,0-3.2-0.3-4.5-1c-1.3-0.7-2.3-1.6-2.9-2.9c-0.6-1.2-0.8-2.8-0.5-4.5c0.3-1.6,0.8-2.8,1.6-3.8
		s1.7-1.7,2.9-2.3c1.1-0.6,2.3-1,3.6-1.3c1.3-0.3,2.6-0.5,3.9-0.6c1.7-0.2,3-0.4,4.1-0.5c1.1-0.1,1.8-0.3,2.4-0.6
		c0.5-0.3,0.9-0.7,1-1.4V438c0.3-1.7,0.1-3.1-0.7-4.1s-2.1-1.5-4-1.5c-2,0-3.7,0.4-5,1.3c-1.3,0.9-2.3,1.8-3,2.8l-3.7-1.4
		c1-1.7,2.1-3,3.5-3.9c1.3-0.9,2.8-1.6,4.2-2c1.5-0.4,2.9-0.6,4.3-0.6c0.9,0,1.9,0.1,3,0.3c1.1,0.2,2.1,0.6,3.1,1.3
		c1,0.6,1.7,1.6,2.2,2.9s0.6,3,0.2,5.2l-3,18h-4.2l0.6-3.7h-0.2c-0.4,0.6-1,1.2-1.7,1.9c-0.8,0.7-1.8,1.2-2.9,1.7
		C169.1,456.8,167.7,457,166.1,457z M167.3,453.2c1.7,0,3.1-0.3,4.4-1c1.2-0.7,2.3-1.5,3-2.5c0.8-1,1.2-2.1,1.4-3.2l0.6-3.8
		c-0.2,0.2-0.6,0.4-1.3,0.6c-0.6,0.2-1.3,0.3-2.1,0.4c-0.8,0.1-1.6,0.2-2.3,0.3s-1.3,0.2-1.8,0.2c-1.1,0.1-2.2,0.4-3.2,0.7
		c-1,0.3-1.8,0.8-2.5,1.4s-1.1,1.5-1.3,2.5c-0.2,1.5,0.1,2.6,1,3.3C164.3,452.9,165.7,453.2,167.3,453.2z"/>
	<path class="st0" d="M186.4,456.4l4.5-27.3h4l-0.7,4.1h0.3c0.7-1.3,1.8-2.4,3.2-3.3c1.4-0.8,3-1.3,4.7-1.3c1.4,0,2.5,0.3,3.3,1
		l-2,3.5c-0.5-0.3-1.3-0.4-2.3-0.4c-1.3,0-2.6,0.3-3.7,0.8c-1.1,0.6-2.1,1.3-2.8,2.3c-0.8,1-1.2,2.1-1.4,3.3l-2.8,17.3H186.4z"/>
	<path class="st0" d="M230.6,420l-6,36.4h-4.4l6-36.4H230.6z"/>
	<path class="st0" d="M249.2,429.1l-0.6,3.6h-5.9l-2.6,15.9c-0.2,1.2-0.2,2.1,0.1,2.7c0.3,0.6,0.6,1,1.2,1.2
		c0.5,0.2,1.1,0.3,1.7,0.3c0.5,0,0.8,0,1.1-0.1c0.3-0.1,0.5-0.1,0.7-0.1l0.3,3.8c-0.3,0.1-0.7,0.2-1.3,0.3s-1.2,0.2-2,0.2
		c-1.2,0-2.3-0.3-3.3-0.8s-1.8-1.3-2.4-2.3c-0.6-1-0.7-2.4-0.4-3.9l2.8-17h-4.1l0.6-3.6h4.1l1.1-6.5h4.2l-1.1,6.5H249.2z"/>
	<path class="st0" d="M258.9,457c-1.7,0-3.2-0.3-4.5-1c-1.3-0.7-2.3-1.6-2.9-2.9c-0.6-1.2-0.8-2.8-0.5-4.5c0.3-1.6,0.8-2.8,1.6-3.8
		s1.7-1.7,2.9-2.3c1.1-0.6,2.3-1,3.6-1.3c1.3-0.3,2.6-0.5,3.9-0.6c1.7-0.2,3-0.4,4.1-0.5c1.1-0.1,1.8-0.3,2.4-0.6
		c0.5-0.3,0.9-0.7,1-1.4V438c0.3-1.7,0.1-3.1-0.7-4.1s-2.1-1.5-4-1.5c-2,0-3.7,0.4-5,1.3c-1.3,0.9-2.3,1.8-3,2.8l-3.7-1.4
		c1-1.7,2.1-3,3.5-3.9c1.3-0.9,2.8-1.6,4.2-2c1.5-0.4,2.9-0.6,4.3-0.6c0.9,0,1.9,0.1,3,0.3c1.1,0.2,2.1,0.6,3.1,1.3
		c1,0.6,1.7,1.6,2.2,2.9s0.6,3,0.2,5.2l-3,18h-4.2l0.6-3.7h-0.2c-0.4,0.6-1,1.2-1.7,1.9c-0.8,0.7-1.8,1.2-2.9,1.7
		C261.9,456.8,260.5,457,258.9,457z M260.2,453.2c1.7,0,3.1-0.3,4.4-1c1.2-0.7,2.3-1.5,3-2.5c0.8-1,1.2-2.1,1.4-3.2l0.6-3.8
		c-0.2,0.2-0.6,0.4-1.3,0.6c-0.6,0.2-1.3,0.3-2.1,0.4c-0.8,0.1-1.6,0.2-2.3,0.3s-1.3,0.2-1.8,0.2c-1.1,0.1-2.2,0.4-3.2,0.7
		c-1,0.3-1.8,0.8-2.5,1.4s-1.1,1.5-1.3,2.5c-0.2,1.5,0.1,2.6,1,3.3C257.2,452.9,258.5,453.2,260.2,453.2z"/>
	<path class="st0" d="M289.4,420l-6,36.4h-4.2l6-36.4H289.4z"/>
	<path class="st0" d="M291,456.4l4.5-27.3h4.2l-4.5,27.3H291z M299,424.5c-0.8,0-1.5-0.3-2.1-0.8s-0.9-1.2-0.9-2s0.3-1.4,0.9-2
		s1.3-0.8,2.1-0.8s1.5,0.3,2.1,0.8s0.9,1.2,0.9,2s-0.3,1.5-0.9,2S299.8,424.5,299,424.5z"/>
	<path class="st0" d="M313.9,456.9c-2.6,0-4.7-0.6-6.3-1.8c-1.6-1.2-2.8-2.9-3.4-5c-0.6-2.1-0.7-4.5-0.3-7.3
		c0.4-2.8,1.4-5.2,2.7-7.3c1.4-2.1,3.1-3.8,5.1-5c2-1.2,4.3-1.8,6.8-1.8c2.9,0,5.2,0.8,6.9,2.3s2.6,3.6,2.5,6.2h-4.2
		c-0.1-1.2-0.6-2.3-1.6-3.3c-0.9-1-2.3-1.4-4.2-1.4c-1.6,0-3.1,0.4-4.5,1.3c-1.4,0.8-2.5,2-3.5,3.6c-0.9,1.5-1.6,3.3-1.9,5.4
		c-0.5,3.2-0.2,5.7,1,7.6c1.2,1.9,3,2.8,5.5,2.8c1.6,0,3.1-0.4,4.4-1.3c1.3-0.8,2.3-2,2.9-3.5h4.2c-0.5,1.6-1.4,3.1-2.5,4.3
		c-1.1,1.3-2.5,2.3-4.2,3.1C317.8,456.5,315.9,456.9,313.9,456.9z"/>
</g>
<g>
	<path class="st0" d="M27.9,536.4h-2.8l8-21.8h2.7l8,21.8h-2.8l-2.2-6.2h-8.8L27.9,536.4z M30.9,527.8h7.2l-3.5-9.8h-0.2L30.9,527.8
		z"/>
	<path class="st0" d="M51.8,536.7c-1,0-2-0.2-2.8-0.6c-0.8-0.4-1.5-1-2-1.7s-0.7-1.7-0.7-2.7c0-0.9,0.2-1.7,0.6-2.3s0.9-1,1.5-1.4
		c0.6-0.3,1.3-0.6,2.1-0.8s1.5-0.3,2.3-0.4c1-0.1,1.8-0.2,2.4-0.3s1.1-0.2,1.4-0.3c0.3-0.2,0.4-0.4,0.4-0.9v-0.1
		c0-1.1-0.3-1.9-0.9-2.5c-0.6-0.6-1.4-0.9-2.6-0.9c-1.2,0-2.1,0.3-2.8,0.8c-0.7,0.5-1.2,1.1-1.4,1.7l-2.4-0.9c0.4-1,1-1.8,1.7-2.3
		c0.7-0.6,1.5-0.9,2.3-1.2c0.8-0.2,1.7-0.3,2.5-0.3c0.5,0,1.1,0.1,1.8,0.2c0.7,0.1,1.3,0.4,2,0.8c0.6,0.4,1.2,1,1.6,1.7
		c0.4,0.8,0.6,1.8,0.6,3.1v10.8h-2.5v-2.2h-0.1c-0.2,0.4-0.5,0.7-0.9,1.1c-0.4,0.4-0.9,0.8-1.6,1C53.5,536.6,52.7,536.7,51.8,536.7z
		 M52.1,534.5c1,0,1.8-0.2,2.5-0.6s1.2-0.9,1.6-1.5s0.5-1.3,0.5-1.9v-2.3c-0.1,0.1-0.3,0.2-0.7,0.3c-0.4,0.1-0.8,0.2-1.2,0.3
		c-0.5,0.1-0.9,0.1-1.4,0.2c-0.4,0.1-0.8,0.1-1.1,0.1c-0.7,0.1-1.3,0.2-1.8,0.4c-0.6,0.2-1,0.5-1.4,0.8c-0.3,0.4-0.5,0.9-0.5,1.5
		c0,0.9,0.3,1.5,1,2C50.3,534.3,51.1,534.5,52.1,534.5z"/>
	<path class="st0" d="M64.2,536.4v-21.8h7.6c1.5,0,2.8,0.3,3.8,0.8c1,0.5,1.7,1.2,2.2,2.1s0.7,1.8,0.7,2.9c0,0.9-0.2,1.7-0.5,2.3
		s-0.8,1.1-1.3,1.4c-0.5,0.4-1.1,0.6-1.7,0.8v0.2c0.7,0,1.3,0.3,2,0.7c0.7,0.4,1.2,1,1.7,1.8c0.5,0.8,0.7,1.8,0.7,2.9
		c0,1.1-0.2,2.1-0.7,3c-0.5,0.9-1.3,1.6-2.4,2.1c-1.1,0.5-2.5,0.8-4.2,0.8H64.2z M66.8,524.1h4.9c1.2,0,2.2-0.3,3-1
		c0.8-0.7,1.2-1.6,1.2-2.8c0-1-0.3-1.8-1-2.4c-0.7-0.7-1.7-1-3.2-1h-5V524.1z M66.8,534h5.2c1.7,0,3-0.3,3.7-1
		c0.7-0.7,1.1-1.5,1.1-2.4c0-0.7-0.2-1.4-0.6-2.1c-0.4-0.6-0.9-1.1-1.6-1.5c-0.7-0.4-1.5-0.6-2.5-0.6h-5.4V534z"/>
	<path class="st0" d="M83.7,536.4v-21.8h2.5v8.1h0.2c0.2-0.3,0.4-0.6,0.8-1.1c0.3-0.4,0.8-0.8,1.4-1.2c0.6-0.4,1.5-0.5,2.5-0.5
		c1.4,0,2.6,0.3,3.6,1c1.1,0.7,1.9,1.7,2.5,2.9c0.6,1.3,0.9,2.8,0.9,4.5c0,1.7-0.3,3.2-0.9,4.5c-0.6,1.3-1.4,2.2-2.5,2.9
		c-1,0.7-2.2,1-3.6,1c-1.1,0-1.9-0.2-2.5-0.5c-0.6-0.4-1.1-0.8-1.5-1.2c-0.3-0.5-0.6-0.8-0.8-1.1h-0.3v2.5H83.7z M86.2,528.2
		c0,1.9,0.4,3.4,1.2,4.5s2,1.7,3.5,1.7c1.1,0,1.9-0.3,2.6-0.8c0.7-0.6,1.2-1.3,1.6-2.3c0.4-0.9,0.5-2,0.5-3.2c0-1.2-0.2-2.2-0.5-3.1
		s-0.9-1.7-1.6-2.2c-0.7-0.5-1.6-0.8-2.7-0.8c-1.5,0-2.7,0.6-3.5,1.7C86.6,524.9,86.2,526.3,86.2,528.2z"/>
	<path class="st0" d="M119.9,521.4h-2.6c-0.2-1-0.6-1.9-1.2-2.5c-0.6-0.7-1.3-1.2-2.2-1.6c-0.9-0.4-1.8-0.5-2.7-0.5
		c-1.3,0-2.5,0.3-3.6,1c-1.1,0.7-1.9,1.7-2.5,3c-0.6,1.3-0.9,2.9-0.9,4.8c0,1.9,0.3,3.5,0.9,4.8c0.6,1.3,1.5,2.3,2.5,3
		c1.1,0.7,2.3,1,3.6,1c1,0,1.9-0.2,2.7-0.5c0.9-0.4,1.6-0.9,2.2-1.6c0.6-0.7,1-1.5,1.2-2.5h2.6c-0.3,1.5-0.8,2.8-1.7,3.8
		c-0.8,1.1-1.9,1.9-3.1,2.4s-2.6,0.8-4,0.8c-1.9,0-3.5-0.5-5-1.4s-2.6-2.2-3.4-3.9c-0.8-1.7-1.2-3.7-1.2-6s0.4-4.3,1.2-6
		s2-3,3.4-3.9s3.1-1.4,5-1.4c1.5,0,2.8,0.3,4,0.8s2.3,1.4,3.1,2.4C119.1,518.6,119.6,519.9,119.9,521.4z"/>
	<path class="st0" d="M130.5,536.7c-1.5,0-2.9-0.4-4-1.1c-1.1-0.7-2-1.7-2.6-3c-0.6-1.3-0.9-2.7-0.9-4.4c0-1.7,0.3-3.1,0.9-4.4
		c0.6-1.3,1.5-2.3,2.6-3s2.4-1.1,3.9-1.1c1.2,0,2.2,0.2,3.1,0.6s1.7,1,2.3,1.8c0.6,0.8,1,1.7,1.1,2.7h-2.5c-0.2-0.7-0.6-1.4-1.3-2
		c-0.7-0.6-1.5-0.9-2.6-0.9c-1.5,0-2.7,0.6-3.6,1.7c-0.9,1.1-1.3,2.6-1.3,4.5c0,1.9,0.4,3.4,1.3,4.6c0.9,1.1,2.1,1.7,3.6,1.7
		c1,0,1.8-0.3,2.5-0.8s1.2-1.2,1.4-2.1h2.5c-0.1,1-0.5,1.8-1,2.6s-1.3,1.4-2.2,1.8C132.7,536.5,131.7,536.7,130.5,536.7z"/>
	<path class="st0" d="M33.6,550.5v21.8H31v-18h-0.2c-0.1,0.2-0.4,0.4-0.8,0.7c-0.4,0.3-0.9,0.5-1.6,0.7c-0.7,0.2-1.4,0.3-2.2,0.3
		v-2.2c0.8,0,1.6-0.2,2.2-0.5c0.6-0.3,1.1-0.7,1.6-1.1s0.7-0.8,0.9-1.1c0.2-0.3,0.3-0.5,0.4-0.6H33.6z"/>
	<path class="st0" d="M39.9,572.4v-1.9l7.2-7.9c0.8-0.9,1.5-1.7,2.1-2.4s1-1.3,1.2-1.9c0.3-0.6,0.4-1.2,0.4-1.9
		c0-1.2-0.4-2.1-1.2-2.7c-0.8-0.7-1.8-1-3-1c-1.3,0-2.3,0.4-3,1.1c-0.7,0.8-1.1,1.8-1.1,3H40c0-1.3,0.3-2.4,0.9-3.4
		c0.6-1,1.4-1.7,2.4-2.3c1-0.5,2.2-0.8,3.4-0.8c1.3,0,2.4,0.3,3.4,0.8s1.8,1.3,2.3,2.2s0.8,1.9,0.8,3.1c0,0.8-0.1,1.6-0.4,2.3
		c-0.3,0.8-0.8,1.6-1.5,2.5c-0.7,0.9-1.7,2.1-2.9,3.4l-4.9,5.2v0.2h10.1v2.3H39.9z"/>
	<path class="st0" d="M65.4,572.6c-1.4,0-2.7-0.2-3.8-0.7c-1.1-0.5-2-1.2-2.6-2c-0.6-0.9-1-1.9-1-3h2.7c0.1,1.1,0.6,1.9,1.5,2.5
		c0.9,0.6,2,0.9,3.2,0.9c1.4,0,2.6-0.4,3.5-1.1c0.9-0.7,1.4-1.6,1.4-2.8c0-1.2-0.4-2.2-1.3-3c-0.9-0.8-2.2-1.1-3.8-1.1h-1.7V560H65
		c1.3,0,2.3-0.3,3.2-1c0.8-0.7,1.2-1.6,1.2-2.8c0-1.1-0.4-2-1.1-2.7c-0.7-0.7-1.7-1-2.9-1c-0.8,0-1.5,0.1-2.1,0.4s-1.2,0.7-1.6,1.2
		c-0.4,0.5-0.6,1.1-0.7,1.9h-2.6c0-1.1,0.4-2.1,1-3c0.6-0.9,1.5-1.5,2.5-2c1-0.5,2.2-0.7,3.5-0.7c1.3,0,2.5,0.3,3.5,0.8
		c1,0.5,1.7,1.3,2.2,2.1c0.5,0.9,0.8,1.8,0.8,2.9c0,1.2-0.3,2.3-1,3.1c-0.6,0.9-1.5,1.5-2.6,1.8v0.2c1.4,0.2,2.5,0.8,3.2,1.8
		c0.8,0.9,1.2,2.1,1.2,3.5c0,1.2-0.3,2.2-1,3.2c-0.6,0.9-1.5,1.7-2.6,2.2C68.1,572.4,66.8,572.6,65.4,572.6z"/>
	<path class="st0" d="M76.6,567.9v-2.2l9.6-15.2h3.2v15h3v2.3h-3v4.5h-2.5v-4.5H76.6z M86.9,565.5v-11.6h-0.2l-7.2,11.5v0.2H86.9z"
		/>
	<path class="st0" d="M103.2,572.6c-1.2,0-2.4-0.2-3.4-0.7s-1.8-1.2-2.4-2c-0.6-0.9-0.9-1.9-1-3H99c0.1,1,0.5,1.8,1.3,2.4
		s1.8,1,2.9,1c0.9,0,1.7-0.2,2.4-0.6s1.2-1,1.7-1.7s0.6-1.6,0.6-2.5c0-1-0.2-1.8-0.6-2.6c-0.4-0.7-1-1.3-1.7-1.8
		c-0.7-0.4-1.6-0.7-2.5-0.7c-0.7,0-1.4,0.1-2.1,0.3c-0.7,0.2-1.3,0.5-1.7,0.8l-2.5-0.3l1.3-10.7h11.3v2.3h-9.1l-0.8,6.4h0.1
		c0.4-0.4,1-0.6,1.7-0.9c0.7-0.2,1.4-0.4,2.1-0.4c1.3,0,2.5,0.3,3.6,1c1,0.6,1.9,1.5,2.5,2.6c0.6,1.1,0.9,2.4,0.9,3.8
		c0,1.4-0.3,2.6-0.9,3.7s-1.5,1.9-2.6,2.6C105.8,572.3,104.6,572.6,103.2,572.6z"/>
	<path class="st0" d="M121.9,572.6c-0.9,0-1.8-0.2-2.7-0.5c-0.9-0.3-1.7-0.9-2.5-1.7c-0.7-0.8-1.3-1.8-1.8-3.2c-0.4-1.3-0.7-3-0.7-5
		c0-3.9,0.7-6.9,2.1-9c1.4-2.1,3.3-3.1,5.8-3.1c1.8,0,3.4,0.5,4.6,1.6c1.2,1.1,1.9,2.5,2.2,4.2h-2.6c-0.2-1-0.7-1.8-1.4-2.5
		c-0.7-0.6-1.6-1-2.8-1c-1.7,0-3,0.7-4,2.2c-1,1.5-1.5,3.5-1.5,6.2h0.2c0.6-0.9,1.4-1.6,2.3-2.1c0.9-0.5,2-0.8,3.1-0.8
		c1.2,0,2.4,0.3,3.4,0.9c1,0.6,1.9,1.5,2.5,2.6c0.6,1.1,0.9,2.3,0.9,3.7c0,1.3-0.3,2.6-0.9,3.7c-0.6,1.1-1.5,2-2.5,2.7
		C124.6,572.3,123.3,572.7,121.9,572.6z M121.9,570.3c0.9,0,1.7-0.2,2.4-0.7c0.7-0.4,1.3-1,1.7-1.8s0.6-1.6,0.6-2.5
		c0-0.9-0.2-1.7-0.6-2.5s-1-1.3-1.7-1.8c-0.7-0.4-1.5-0.7-2.4-0.7c-0.9,0-1.7,0.2-2.4,0.7s-1.3,1.1-1.7,1.8
		c-0.4,0.7-0.6,1.6-0.6,2.4c0,0.9,0.2,1.7,0.6,2.4c0.4,0.8,1,1.4,1.7,1.8C120.1,570.1,120.9,570.3,121.9,570.3z"/>
	<path class="st0" d="M134,572.4l9.8-19.3v-0.2h-11.2v-2.3h14v2.5l-9.7,19.3H134z"/>
	<path class="st0" d="M157,572.6c-1.5,0-2.8-0.3-3.9-0.8c-1.1-0.5-2-1.2-2.6-2.2s-0.9-2-0.9-3.1c0-0.9,0.2-1.8,0.5-2.6
		c0.4-0.8,0.9-1.4,1.5-2c0.6-0.5,1.4-0.9,2.2-1v-0.1c-1-0.3-1.9-0.9-2.5-1.8c-0.6-0.9-0.9-1.9-0.9-3.1c0-1.1,0.3-2.1,0.8-3
		c0.6-0.9,1.4-1.6,2.3-2.1c1-0.5,2.1-0.8,3.4-0.8c1.3,0,2.4,0.3,3.4,0.8c1,0.5,1.8,1.2,2.3,2.1c0.6,0.9,0.9,1.9,0.9,3
		c0,1.2-0.3,2.2-0.9,3.1c-0.6,0.9-1.4,1.5-2.5,1.8v0.1c0.8,0.1,1.5,0.5,2.1,1s1.1,1.2,1.5,2s0.6,1.6,0.6,2.6c0,1.2-0.3,2.2-1,3.1
		s-1.5,1.6-2.6,2.2C159.8,572.4,158.5,572.6,157,572.6z M157,570.3c1.5,0,2.6-0.4,3.5-1.1c0.9-0.7,1.3-1.6,1.3-2.8
		c0-0.8-0.2-1.6-0.6-2.2c-0.4-0.6-1-1.1-1.7-1.5s-1.5-0.5-2.5-0.5c-0.9,0-1.8,0.2-2.5,0.5c-0.7,0.4-1.3,0.9-1.7,1.5
		c-0.4,0.6-0.6,1.4-0.6,2.2c0,1.2,0.4,2.1,1.3,2.8C154.3,570,155.5,570.3,157,570.3z M157,560c1.2,0,2.1-0.3,2.9-1
		c0.8-0.7,1.1-1.6,1.2-2.7c0-1.1-0.4-2-1.1-2.7c-0.7-0.7-1.7-1-2.9-1c-1.2,0-2.2,0.3-2.9,1c-0.7,0.7-1.1,1.6-1.1,2.7
		c0,1.1,0.4,2,1.1,2.7S155.8,560,157,560z"/>
	<path class="st0" d="M175.5,550.2c0.9,0,1.8,0.2,2.7,0.5s1.7,0.9,2.5,1.7c0.7,0.8,1.3,1.8,1.8,3.2s0.7,3,0.7,5c0,3.9-0.7,6.9-2.1,9
		c-1.4,2.1-3.4,3.1-5.8,3.1c-1.8,0-3.4-0.5-4.6-1.6c-1.2-1.1-1.9-2.5-2.2-4.2h2.6c0.2,1,0.7,1.8,1.4,2.5c0.7,0.7,1.6,1,2.8,1
		c1.7,0,3-0.7,4-2.2c1-1.5,1.5-3.5,1.5-6.2h-0.2c-0.6,0.9-1.4,1.6-2.3,2.1c-0.9,0.5-2,0.8-3.1,0.8c-1.2,0-2.4-0.3-3.4-0.9
		c-1-0.6-1.9-1.5-2.5-2.6c-0.6-1.1-0.9-2.3-0.9-3.7c0-1.3,0.3-2.6,0.9-3.7s1.4-2,2.5-2.7C172.7,550.5,174,550.2,175.5,550.2z
		 M175.5,552.5c-0.9,0-1.7,0.2-2.4,0.7c-0.7,0.4-1.3,1-1.7,1.8s-0.6,1.6-0.6,2.5c0,0.9,0.2,1.7,0.6,2.5s1,1.3,1.7,1.8
		s1.5,0.7,2.4,0.7c0.9,0,1.7-0.2,2.4-0.7c0.7-0.5,1.3-1.1,1.7-1.8s0.6-1.6,0.6-2.4s-0.2-1.7-0.6-2.4c-0.4-0.8-1-1.4-1.7-1.8
		C177.2,552.8,176.4,552.5,175.5,552.5z"/>
	<path class="st0" d="M194.3,572.6c-2.4,0-4.3-1-5.6-2.9c-1.3-2-2-4.7-2-8.3c0-3.5,0.7-6.3,2-8.3c1.3-2,3.2-3,5.6-3s4.2,1,5.6,3
		c1.3,2,2,4.7,2,8.3c0,3.6-0.7,6.3-2,8.3C198.6,571.7,196.8,572.6,194.3,572.6z M194.3,570.3c1.6,0,2.8-0.8,3.7-2.3
		c0.9-1.5,1.3-3.7,1.3-6.6c0-2.8-0.4-5-1.3-6.6c-0.9-1.6-2.1-2.3-3.7-2.3s-2.8,0.8-3.7,2.3s-1.3,3.7-1.3,6.6c0,2.8,0.4,5,1.3,6.6
		S192.8,570.3,194.3,570.3z"/>
</g>
<g>
	<path class="st0" d="M410.3,536.4h-4.2l7.7-21.8h4.9l7.7,21.8h-4.2l-1.8-5.4h-8.2L410.3,536.4z M413.2,527.8h6.1l-3-8.8h-0.2
		L413.2,527.8z"/>
	<path class="st0" d="M433.8,536.7c-1.6,0-2.9-0.4-3.9-1.3c-1-0.8-1.6-2.1-1.6-3.7c0-1.2,0.3-2.2,0.9-2.9c0.6-0.7,1.4-1.2,2.3-1.5
		c0.9-0.3,2-0.5,3-0.6c1.4-0.2,2.5-0.3,3.1-0.4c0.6-0.1,0.9-0.5,0.9-1v-0.1c0-0.8-0.2-1.4-0.7-1.9c-0.5-0.4-1.2-0.7-2.1-0.7
		c-0.9,0-1.7,0.2-2.2,0.6c-0.6,0.4-0.9,0.9-1.1,1.5l-3.6-0.5c0.4-1.5,1.3-2.6,2.5-3.4c1.2-0.8,2.7-1.1,4.4-1.1
		c0.8,0,1.6,0.1,2.3,0.3s1.5,0.5,2.1,0.9c0.6,0.4,1.2,1,1.6,1.7c0.4,0.7,0.6,1.6,0.6,2.7v11h-3.7v-2.2h-0.1
		c-0.3,0.7-0.9,1.3-1.7,1.8C436.1,536.4,435,536.7,433.8,536.7z M434.8,533.8c1.2,0,2.1-0.3,2.8-1c0.7-0.7,1-1.5,1-2.4v-1.9
		c-0.2,0.1-0.5,0.3-0.9,0.4c-0.4,0.1-0.9,0.2-1.4,0.3c-0.5,0.1-0.9,0.1-1.2,0.2c-0.9,0.1-1.6,0.4-2.2,0.7s-0.9,0.9-0.9,1.6
		c0,0.7,0.3,1.2,0.8,1.6C433.3,533.7,434,533.8,434.8,533.8z"/>
	<path class="st0" d="M446.5,536.4v-21.8h8.4c2.4,0,4.1,0.5,5.3,1.6c1.2,1.1,1.8,2.4,1.8,4c0,1.3-0.4,2.4-1.1,3.1
		c-0.7,0.8-1.6,1.3-2.7,1.5v0.2c0.8,0,1.5,0.3,2.2,0.7c0.7,0.4,1.3,1,1.8,1.8c0.5,0.8,0.7,1.7,0.7,2.8c0,1.1-0.3,2.1-0.8,3
		s-1.4,1.6-2.5,2.1s-2.5,0.8-4.2,0.8H446.5z M450.4,523.8h3.9c1,0,1.9-0.3,2.6-0.8c0.7-0.6,1-1.3,1-2.3c0-0.8-0.3-1.5-0.9-2.1
		s-1.5-0.8-2.6-0.8h-4V523.8z M450.4,533h4.3c1.4,0,2.5-0.3,3.1-0.8c0.6-0.6,1-1.3,1-2.1c0-1-0.4-1.8-1.1-2.5c-0.7-0.7-1.7-1-2.9-1
		h-4.4V533z"/>
	<path class="st0" d="M466.2,536.4v-21.8h3.9v8.2h0.2c0.2-0.4,0.5-0.8,0.8-1.3c0.4-0.5,0.8-0.8,1.5-1.2c0.6-0.3,1.4-0.5,2.4-0.5
		c1.3,0,2.4,0.3,3.4,1s1.8,1.6,2.4,2.8c0.6,1.2,0.9,2.8,0.9,4.6c0,1.8-0.3,3.3-0.9,4.6c-0.6,1.3-1.4,2.2-2.4,2.9s-2.2,1-3.5,1
		c-0.9,0-1.7-0.2-2.3-0.5c-0.6-0.3-1.1-0.7-1.5-1.1c-0.4-0.4-0.7-0.9-0.9-1.3H470v2.6H466.2z M470,528.2c0,1.6,0.3,2.9,1,3.8
		c0.7,1,1.6,1.5,2.8,1.5c1.3,0,2.2-0.5,2.9-1.5c0.7-1,1-2.3,1-3.8c0-1.5-0.3-2.8-1-3.8c-0.7-1-1.6-1.5-2.9-1.5
		c-1.2,0-2.2,0.5-2.9,1.4C470.3,525.3,470,526.6,470,528.2z"/>
	<path class="st0" d="M503.8,521.9h-4c-0.2-1.3-0.8-2.3-1.8-3c-1-0.7-2.1-1.1-3.4-1.1c-1.8,0-3.2,0.7-4.4,2
		c-1.1,1.3-1.7,3.2-1.7,5.7c0,2.5,0.6,4.4,1.7,5.7c1.1,1.3,2.6,2,4.4,2c1.3,0,2.4-0.3,3.4-1s1.6-1.7,1.8-3l4,0
		c-0.2,1.4-0.7,2.7-1.5,3.8c-0.8,1.1-1.9,2-3.2,2.7c-1.3,0.7-2.8,1-4.6,1c-1.9,0-3.6-0.4-5.1-1.3c-1.5-0.9-2.7-2.2-3.6-3.8
		c-0.9-1.7-1.3-3.7-1.3-6c0-2.4,0.4-4.4,1.3-6s2.1-3,3.6-3.8c1.5-0.9,3.2-1.3,5.1-1.3c1.6,0,3.1,0.3,4.4,0.9
		c1.3,0.6,2.4,1.5,3.2,2.6S503.5,520.3,503.8,521.9z"/>
	<path class="st0" d="M514.4,536.7c-1.6,0-3-0.4-4.2-1.1c-1.2-0.7-2.1-1.7-2.7-3s-0.9-2.7-0.9-4.4c0-1.7,0.3-3.1,1-4.4
		c0.6-1.3,1.5-2.3,2.7-3c1.2-0.7,2.6-1.1,4.1-1.1c1.3,0,2.5,0.2,3.5,0.7c1,0.5,1.8,1.2,2.5,2.1c0.6,0.9,1,1.9,1,3.1h-3.7
		c-0.1-0.8-0.5-1.4-1.1-2s-1.3-0.8-2.2-0.8c-1.2,0-2.1,0.5-2.9,1.4c-0.7,0.9-1.1,2.2-1.1,3.9c0,1.7,0.4,3,1.1,3.9
		c0.7,1,1.7,1.4,2.9,1.4c0.8,0,1.6-0.2,2.2-0.7c0.6-0.5,1-1.2,1.1-2h3.7c-0.1,1.2-0.4,2.2-1,3.1c-0.6,0.9-1.4,1.6-2.4,2.1
		C516.9,536.4,515.7,536.7,514.4,536.7z"/>
	<path class="st0" d="M415.7,550.5v21.8h-4v-16.8h-0.2c-0.2,0.3-0.7,0.7-1.5,1.1c-0.8,0.4-1.8,0.6-3,0.6V554c0.8,0,1.4-0.1,2-0.4
		c0.6-0.3,1.1-0.6,1.5-1s0.7-0.8,1-1.2c0.2-0.4,0.4-0.7,0.4-0.9H415.7z"/>
	<path class="st0" d="M421.2,572.4v-2.9l7.6-7.4c1.1-1.1,1.9-2,2.4-2.8c0.5-0.8,0.8-1.6,0.8-2.5c0-1-0.3-1.8-1-2.4
		c-0.7-0.6-1.6-0.9-2.6-0.9c-1.1,0-2,0.3-2.6,1c-0.6,0.6-1,1.5-1,2.6h-3.8c0-1.4,0.3-2.6,0.9-3.6c0.6-1,1.5-1.8,2.6-2.4
		c1.1-0.6,2.4-0.8,3.8-0.8c1.5,0,2.7,0.3,3.9,0.8s2,1.3,2.6,2.2c0.6,1,0.9,2,0.9,3.3c0,0.8-0.2,1.6-0.5,2.4s-0.9,1.7-1.6,2.6
		c-0.8,1-1.9,2.1-3.3,3.5l-3.8,3.8v0.1h9.5v3.3H421.2z"/>
	<path class="st0" d="M447.7,572.6c-1.5,0-2.9-0.3-4.1-0.8s-2.1-1.3-2.8-2.2s-1.1-2-1.1-3.2h4c0,0.9,0.5,1.6,1.2,2.1
		s1.7,0.8,2.8,0.8c1.2,0,2.1-0.3,2.9-0.9s1.1-1.4,1.1-2.3c0-1-0.4-1.8-1.2-2.4s-1.9-0.9-3.2-0.9h-1.9v-3h1.9c1.1,0,2.1-0.3,2.8-0.9
		c0.7-0.6,1.1-1.3,1.1-2.3c0-0.9-0.3-1.7-0.9-2.2c-0.6-0.6-1.4-0.8-2.5-0.8c-1,0-1.9,0.3-2.6,0.8c-0.7,0.5-1.1,1.3-1.2,2.2h-3.8
		c0-1.2,0.4-2.3,1.1-3.2s1.6-1.7,2.7-2.2c1.1-0.5,2.4-0.8,3.8-0.8c1.5,0,2.7,0.3,3.8,0.8c1.1,0.5,1.9,1.3,2.5,2.2
		c0.6,0.9,0.9,1.9,0.9,3c0,1.2-0.4,2.2-1.1,3.1c-0.7,0.8-1.7,1.4-2.9,1.6v0.2c1.5,0.2,2.7,0.8,3.5,1.7c0.8,0.9,1.2,2.1,1.2,3.4
		c0,1.2-0.3,2.3-1,3.3c-0.7,1-1.7,1.7-2.9,2.3C450.6,572.4,449.2,572.6,447.7,572.6z"/>
	<path class="st0" d="M459,568.3v-3.1l9.3-14.6h4.9v14.5h2.8v3.2h-2.8v4h-3.8v-4H459z M469.4,565.1v-10h-0.2l-6.2,9.9v0.2H469.4z"/>
	<path class="st0" d="M487,572.6c-1.4,0-2.7-0.3-3.8-0.8c-1.1-0.5-2-1.3-2.7-2.2s-1-2-1-3.2h3.8c0.1,0.9,0.5,1.6,1.2,2.2
		c0.7,0.6,1.5,0.8,2.5,0.8c1.2,0,2.1-0.4,2.9-1.2c0.8-0.8,1.1-1.8,1.1-3c0-1.2-0.4-2.3-1.2-3c-0.8-0.8-1.8-1.2-3-1.2
		c-0.7,0-1.3,0.1-1.9,0.4c-0.6,0.2-1.1,0.6-1.5,1l-3.6-0.6l1.1-11.2h12.7v3.3h-9.4l-0.6,5.8h0.1c0.4-0.5,1-0.9,1.7-1.2
		c0.7-0.3,1.5-0.5,2.4-0.5c1.3,0,2.5,0.3,3.5,0.9c1,0.6,1.9,1.5,2.5,2.6c0.6,1.1,0.9,2.3,0.9,3.7c0,1.4-0.3,2.7-1,3.9
		s-1.6,2-2.8,2.7S488.5,572.6,487,572.6z"/>
	<path class="st0" d="M506.3,572.6c-1,0-2.1-0.2-3.1-0.5c-1-0.4-1.9-0.9-2.7-1.8c-0.8-0.8-1.4-1.9-1.9-3.2s-0.7-3-0.7-5
		c0-2.5,0.3-4.6,1-6.4c0.7-1.8,1.7-3.1,3-4.1s2.8-1.4,4.5-1.4c1.4,0,2.6,0.3,3.7,0.8c1.1,0.5,1.9,1.3,2.6,2.2c0.7,0.9,1.1,2,1.2,3.2
		h-3.9c-0.2-0.9-0.6-1.6-1.2-2.1s-1.4-0.8-2.3-0.8c-1.5,0-2.7,0.7-3.5,2c-0.8,1.3-1.2,3.1-1.2,5.5h0.1c0.5-0.9,1.3-1.7,2.2-2.2
		c1-0.5,2-0.8,3.2-0.8c1.3,0,2.4,0.3,3.4,0.9c1,0.6,1.8,1.5,2.4,2.5c0.6,1.1,0.9,2.3,0.9,3.7c0,1.4-0.3,2.7-1,3.9
		c-0.7,1.1-1.6,2-2.8,2.7C509.3,572.3,507.9,572.7,506.3,572.6z M506.3,569.5c0.8,0,1.5-0.2,2.1-0.6c0.6-0.4,1.1-0.9,1.4-1.5
		c0.4-0.6,0.5-1.4,0.5-2.2c0-0.8-0.2-1.5-0.5-2.1c-0.3-0.6-0.8-1.1-1.4-1.5s-1.3-0.6-2.1-0.6c-0.8,0-1.5,0.2-2.1,0.6
		c-0.6,0.4-1.1,0.9-1.5,1.5c-0.4,0.6-0.5,1.3-0.6,2.1c0,0.8,0.2,1.5,0.5,2.1c0.3,0.6,0.8,1.2,1.4,1.5
		C504.8,569.3,505.5,569.5,506.3,569.5z"/>
	<path class="st0" d="M518.6,572.4l9.3-18.4v-0.1h-10.8v-3.3H532v3.4l-9.3,18.4H518.6z"/>
	<path class="st0" d="M542.7,572.6c-1.6,0-3-0.3-4.2-0.8c-1.2-0.5-2.2-1.3-2.9-2.2c-0.7-0.9-1-2-1-3.2c0-0.9,0.2-1.7,0.6-2.5
		c0.4-0.8,0.9-1.4,1.6-1.9c0.7-0.5,1.5-0.8,2.3-1v-0.1c-1.1-0.2-2-0.8-2.7-1.7c-0.7-0.9-1-1.9-1-3.1c0-1.1,0.3-2.1,0.9-3
		c0.6-0.9,1.5-1.6,2.6-2.1c1.1-0.5,2.4-0.8,3.8-0.8c1.4,0,2.6,0.3,3.7,0.8c1.1,0.5,2,1.2,2.6,2.1c0.6,0.9,1,1.9,1,3
		c0,1.2-0.4,2.2-1.1,3.1s-1.6,1.5-2.7,1.7v0.1c0.8,0.1,1.6,0.5,2.3,1c0.7,0.5,1.2,1.2,1.6,1.9c0.4,0.8,0.6,1.6,0.6,2.5
		c0,1.2-0.3,2.2-1,3.2c-0.7,0.9-1.7,1.7-2.9,2.2C545.7,572.4,544.3,572.6,542.7,572.6z M542.7,569.6c1.2,0,2.2-0.3,2.9-0.9
		c0.7-0.6,1.1-1.4,1.1-2.4c0-1-0.4-1.9-1.2-2.6c-0.8-0.7-1.7-1-2.9-1c-1.2,0-2.2,0.3-2.9,1c-0.8,0.7-1.1,1.5-1.1,2.6
		c0,1,0.4,1.8,1.1,2.4S541.5,569.6,542.7,569.6z M542.7,559.7c1,0,1.8-0.3,2.5-0.9c0.6-0.6,1-1.4,1-2.3c0-0.9-0.3-1.7-1-2.3
		s-1.5-0.9-2.5-0.9c-1,0-1.9,0.3-2.5,0.9c-0.6,0.6-1,1.3-0.9,2.3c0,0.9,0.3,1.7,1,2.3S541.7,559.7,542.7,559.7z"/>
	<path class="st0" d="M561.9,550.2c1,0,2.1,0.2,3.1,0.6c1,0.4,1.9,0.9,2.7,1.8c0.8,0.8,1.4,1.9,1.9,3.2s0.7,3,0.7,5
		c0,2.5-0.3,4.6-1,6.4c-0.7,1.8-1.7,3.1-3,4.1c-1.3,0.9-2.8,1.4-4.5,1.4c-1.4,0-2.6-0.3-3.7-0.8c-1.1-0.5-1.9-1.3-2.6-2.2
		c-0.7-0.9-1.1-2-1.2-3.2h3.9c0.2,0.9,0.6,1.6,1.2,2.1s1.4,0.8,2.3,0.8c1.5,0,2.7-0.7,3.5-2s1.2-3.1,1.2-5.5h-0.1
		c-0.5,0.9-1.3,1.7-2.2,2.2c-1,0.5-2,0.8-3.2,0.8c-1.3,0-2.4-0.3-3.4-0.9c-1-0.6-1.8-1.5-2.4-2.5c-0.6-1.1-0.9-2.3-0.9-3.7
		c0-1.4,0.3-2.7,1-3.9c0.7-1.1,1.6-2,2.8-2.7C559,550.5,560.3,550.2,561.9,550.2z M561.9,553.4c-0.8,0-1.5,0.2-2.1,0.6
		c-0.6,0.4-1.1,0.9-1.4,1.5c-0.4,0.6-0.5,1.4-0.5,2.2c0,0.8,0.2,1.5,0.5,2.1s0.8,1.1,1.4,1.5c0.6,0.4,1.3,0.6,2.1,0.6
		c0.8,0,1.5-0.2,2.1-0.6c0.6-0.4,1.1-0.9,1.5-1.5c0.4-0.6,0.5-1.3,0.5-2.1c0-0.8-0.2-1.5-0.5-2.1c-0.4-0.6-0.8-1.2-1.4-1.5
		C563.4,553.6,562.7,553.4,561.9,553.4z"/>
	<path class="st0" d="M581.9,572.8c-2.6,0-4.7-1-6.2-3c-1.5-2-2.2-4.8-2.2-8.3c0-3.6,0.8-6.3,2.2-8.3c1.5-2,3.5-2.9,6.2-2.9
		c2.6,0,4.7,1,6.2,2.9c1.5,2,2.2,4.7,2.2,8.3c0,3.6-0.7,6.4-2.2,8.3S584.5,572.8,581.9,572.8z M581.9,569.4c1.4,0,2.4-0.7,3.2-2
		s1.2-3.3,1.2-6c0-2.6-0.4-4.6-1.2-5.9s-1.9-2-3.2-2c-1.3,0-2.4,0.7-3.2,2s-1.2,3.3-1.2,5.9c0,2.6,0.4,4.6,1.2,6
		C579.4,568.8,580.5,569.4,581.9,569.4z"/>
</g>
<g>
	<path class="st0" d="M428.7,358c-0.2-1.6-0.9-2.8-2.1-3.6c-1.2-0.9-2.8-1.3-4.8-1.3c-2.1,0-3.7,0.4-4.8,1.3c-1.2,0.9-1.7,2-1.8,3.4
		c0,1,0.3,1.8,0.9,2.5c0.6,0.7,1.4,1.2,2.4,1.6c1,0.4,1.9,0.7,2.9,0.9l3.4,0.9c1.8,0.4,3.5,1.1,5.2,1.9c1.6,0.8,3,1.9,4,3.3
		c1,1.4,1.5,3.1,1.5,5.2c0,3.2-1.2,5.8-3.6,7.8c-2.4,2-5.8,3-10.2,3c-4.2,0-7.6-1-10.1-2.9s-3.8-4.7-4-8.4h6.5
		c0.1,1.9,0.9,3.3,2.3,4.3c1.4,0.9,3.2,1.4,5.2,1.4c2.2,0,3.9-0.5,5.2-1.4c1.3-1,2-2.2,2-3.8c0-1.4-0.6-2.5-1.8-3.2
		c-1.2-0.7-2.8-1.3-4.7-1.8l-4.1-1.1c-3-0.8-5.4-1.9-7.1-3.5c-1.7-1.6-2.6-3.7-2.6-6.3c0-2.1,0.6-4,1.7-5.6c1.2-1.6,2.7-2.9,4.8-3.8
		c2-0.9,4.3-1.3,6.8-1.3c2.6,0,4.8,0.4,6.8,1.3c2,0.9,3.5,2.1,4.6,3.7c1.1,1.6,1.7,3.4,1.7,5.4H428.7z"/>
	<path class="st0" d="M453.2,384.9c-2.7,0-5.1-0.6-7.1-1.7c-2-1.1-3.5-2.8-4.6-4.9c-1.1-2.1-1.6-4.6-1.6-7.4c0-2.8,0.5-5.3,1.6-7.4
		c1.1-2.1,2.6-3.8,4.5-5c1.9-1.2,4.2-1.8,6.8-1.8c2.2,0,4.3,0.5,6.2,1.4c1.9,1,3.4,2.5,4.6,4.5c1.1,2,1.7,4.6,1.7,7.8v2h-19
		c0,2.3,0.7,4.1,1.9,5.5c1.3,1.3,2.9,2,5,2c1.4,0,2.6-0.3,3.6-0.9s1.7-1.5,2.2-2.6l6,0.7c-0.6,2.4-1.9,4.3-4,5.7
		C459,384.2,456.4,384.9,453.2,384.9z M446.3,368.1h12.8c0-1.9-0.6-3.4-1.7-4.6s-2.6-1.8-4.5-1.8c-1.9,0-3.5,0.6-4.7,1.9
		C447.1,364.9,446.4,366.4,446.3,368.1z"/>
	<path class="st0" d="M470.8,384.4v-27.3h6.1v4.6h0.3c0.6-1.6,1.5-2.8,2.8-3.7s2.9-1.3,4.7-1.3c1.8,0,3.4,0.4,4.7,1.3
		s2.2,2.1,2.7,3.7h0.3c0.6-1.5,1.6-2.7,3.1-3.6s3.1-1.4,5.1-1.4c2.5,0,4.6,0.8,6.1,2.4c1.6,1.6,2.4,3.9,2.4,6.9v18.3h-6.4V367
		c0-1.7-0.5-2.9-1.3-3.7c-0.9-0.8-2-1.2-3.3-1.2c-1.6,0-2.8,0.5-3.6,1.4c-0.9,1-1.3,2.2-1.3,3.8v17h-6.3v-17.6
		c0-1.4-0.4-2.5-1.3-3.4c-0.8-0.8-2-1.3-3.3-1.3c-1.4,0-2.6,0.5-3.5,1.6c-1,1-1.5,2.4-1.5,4.1v16.6H470.8z"/>
	<path class="st0" d="M518.9,353.2c-1,0-1.9-0.3-2.6-1c-0.7-0.7-1.1-1.5-1.1-2.5c0-1,0.4-1.8,1.1-2.5c0.7-0.7,1.6-1,2.6-1
		c1,0,1.9,0.3,2.6,1s1.1,1.5,1.1,2.5c0,1-0.4,1.8-1.1,2.5S519.9,353.2,518.9,353.2z M515.6,384.4v-27.3h6.4v27.3H515.6z"/>
	<path class="st0" d="M529,384.4V348h6.4v13.6h0.3c0.3-0.7,0.8-1.4,1.4-2.1c0.6-0.8,1.4-1.4,2.5-1.9c1-0.5,2.4-0.8,4-0.8
		c2.1,0,4,0.5,5.7,1.6c1.7,1.1,3,2.7,4,4.7c1,2.1,1.5,4.6,1.5,7.7c0,3-0.5,5.5-1.5,7.6c-1,2.1-2.3,3.7-4,4.8s-3.6,1.7-5.8,1.7
		c-1.6,0-2.9-0.3-3.9-0.8c-1-0.5-1.9-1.2-2.5-1.9c-0.6-0.7-1.1-1.4-1.4-2.1h-0.4v4.3H529z M535.3,370.7c0,2.6,0.6,4.8,1.7,6.4
		c1.1,1.6,2.7,2.4,4.7,2.4c2.1,0,3.7-0.8,4.8-2.5c1.1-1.7,1.7-3.8,1.7-6.3c0-2.5-0.5-4.6-1.6-6.3c-1.1-1.6-2.7-2.5-4.8-2.5
		c-2.1,0-3.7,0.8-4.8,2.4C535.8,365.9,535.3,368.1,535.3,370.7z"/>
	<path class="st0" d="M572.1,384.9c-2.7,0-5-0.6-6.9-1.8s-3.5-2.8-4.5-4.9c-1.1-2.1-1.6-4.6-1.6-7.4c0-2.8,0.5-5.3,1.6-7.4
		c1.1-2.1,2.6-3.8,4.5-4.9s4.3-1.8,6.9-1.8c2.7,0,5,0.6,6.9,1.8s3.5,2.8,4.5,4.9c1.1,2.1,1.6,4.6,1.6,7.4c0,2.8-0.5,5.3-1.6,7.4
		c-1.1,2.1-2.6,3.8-4.5,4.9S574.7,384.9,572.1,384.9z M572.1,379.7c1.5,0,2.7-0.4,3.6-1.2s1.7-1.9,2.2-3.2s0.7-2.9,0.7-4.5
		c0-1.7-0.2-3.2-0.7-4.5s-1.2-2.4-2.2-3.2c-1-0.8-2.2-1.2-3.6-1.2c-1.5,0-2.7,0.4-3.7,1.2c-1,0.8-1.7,1.9-2.2,3.2
		c-0.5,1.4-0.7,2.9-0.7,4.5c0,1.7,0.2,3.2,0.7,4.5c0.5,1.4,1.2,2.4,2.2,3.2S570.7,379.7,572.1,379.7z"/>
	<path class="st0" d="M597,348v36.4h-6.4V348H597z"/>
	<path class="st0" d="M613.7,384.8c-2.1,0-4.1-0.6-5.8-1.7s-3-2.7-4-4.8c-1-2.1-1.5-4.6-1.5-7.6c0-3,0.5-5.6,1.5-7.7
		c1-2.1,2.4-3.7,4.1-4.7c1.7-1.1,3.6-1.6,5.7-1.6c1.6,0,2.9,0.3,4,0.8c1,0.5,1.8,1.2,2.4,1.9c0.6,0.8,1.1,1.5,1.4,2.1h0.3V348h6.4
		v36.4h-6.3v-4.3h-0.4c-0.3,0.7-0.8,1.4-1.4,2.1c-0.6,0.7-1.5,1.4-2.5,1.9C616.6,384.6,615.3,384.8,613.7,384.8z M615.5,379.6
		c2,0,3.6-0.8,4.7-2.4s1.7-3.8,1.7-6.4c0-2.7-0.6-4.8-1.7-6.3c-1.1-1.6-2.7-2.4-4.8-2.4c-2.1,0-3.8,0.8-4.8,2.5
		c-1.1,1.6-1.6,3.7-1.6,6.3c0,2.6,0.6,4.7,1.7,6.3S613.4,379.6,615.5,379.6z"/>
	<path class="st0" d="M430.8,430.2c0-1.6-0.4-2.9-1.5-3.8c-1-0.9-2.5-1.3-4.5-1.3c-2.1,0-3.7,0.4-5,1.3c-1.3,0.9-2.1,2-2.3,3.4
		c-0.2,1,0,1.8,0.5,2.5c0.5,0.7,1.2,1.2,2.1,1.6s1.8,0.7,2.8,0.9l3.3,0.9c1.7,0.4,3.4,1.1,4.8,1.9c1.5,0.8,2.6,1.9,3.4,3.3
		c0.8,1.4,1,3.1,0.7,5.2c-0.4,2.1-1.2,4-2.6,5.6c-1.4,1.6-3.1,2.9-5.3,3.8c-2.2,0.9-4.8,1.4-7.7,1.4c-4.2,0-7.5-1-9.7-2.9
		s-3.1-4.7-2.6-8.4h6.5c-0.2,1.9,0.4,3.3,1.6,4.3c1.3,0.9,3,1.4,5,1.4c2.2,0,4-0.5,5.5-1.4c1.5-1,2.4-2.2,2.6-3.8
		c0.2-1.4-0.2-2.5-1.3-3.2c-1.1-0.7-2.6-1.3-4.5-1.8l-3.9-1.1c-2.9-0.8-5-2-6.5-3.5c-1.5-1.6-2-3.6-1.6-6.2c0.4-2.2,1.3-4,2.7-5.6
		c1.4-1.6,3.2-2.9,5.4-3.7c2.2-0.9,4.5-1.3,7.1-1.3c2.6,0,4.8,0.4,6.6,1.3c1.8,0.9,3.1,2.2,4,3.8c0.8,1.6,1.1,3.5,0.8,5.6H430.8z"/>
	<path class="st0" d="M450.8,456.9c-2.7,0-5-0.6-6.8-1.7c-1.8-1.1-3-2.8-3.8-4.9s-0.8-4.6-0.4-7.4c0.5-2.8,1.4-5.3,2.8-7.4
		c1.4-2.1,3.2-3.8,5.3-5c2.1-1.2,4.5-1.8,7.1-1.8c2.2,0,4.2,0.5,5.9,1.5c1.7,1,3,2.5,3.8,4.5s0.9,4.6,0.4,7.8l-0.3,2h-19l0,0.1
		c-0.4,2.6-0.1,4.4,0.9,5.6c1,1.2,2.6,1.7,4.8,1.7c1.4,0,2.7-0.3,3.8-0.9c1.1-0.6,2-1.5,2.6-2.6l5.9,0.7c-1,2.4-2.6,4.3-4.9,5.7
		C456.8,456.2,454,456.9,450.8,456.9z M446.8,440.1h12.8c0.3-1.9,0-3.4-0.9-4.6c-0.9-1.2-2.3-1.8-4.2-1.8c-1.2,0-2.4,0.3-3.5,0.9
		s-2,1.4-2.7,2.4S447,439.1,446.8,440.1z"/>
	<path class="st0" d="M468.5,456.4l4.5-27.3h6.2l-0.8,4.6h0.3c0.8-1.6,2-2.8,3.4-3.7s3.1-1.3,4.9-1.3c1.8,0,3.3,0.4,4.4,1.3
		c1.1,0.9,1.8,2.1,2.1,3.7h0.3c0.8-1.5,2.1-2.7,3.7-3.6c1.6-0.9,3.4-1.4,5.4-1.4c2.5,0,4.4,0.8,5.7,2.4c1.3,1.6,1.7,3.9,1.2,6.9
		l-3.1,18.3h-6.4l2.9-17.3c0.3-1.7,0-2.9-0.8-3.7s-1.8-1.2-3.1-1.2c-1.5,0-2.8,0.5-3.9,1.4s-1.7,2.2-1.9,3.8l-2.9,17h-6.3l2.9-17.6
		c0.2-1.4,0-2.5-0.7-3.4c-0.7-0.8-1.7-1.3-3.1-1.3c-1.4,0-2.7,0.5-3.8,1.6c-1.1,1-1.9,2.4-2.1,4.1l-2.8,16.6H468.5z"/>
	<path class="st0" d="M513.4,456.4l4.5-27.3h6.4l-4.5,27.3H513.4z M522.1,425.2c-1,0-1.9-0.3-2.5-1s-1-1.5-0.9-2.5
		c0.1-1,0.5-1.8,1.3-2.5s1.7-1,2.7-1c1,0,1.9,0.3,2.5,1s1,1.5,0.9,2.5c-0.1,1-0.5,1.8-1.3,2.5C524,424.8,523.1,425.2,522.1,425.2z"
		/>
	<path class="st0" d="M526.7,456.4l6-36.4h6.4l-2.2,13.6h0.3c0.4-0.7,1-1.4,1.7-2.1c0.7-0.8,1.7-1.4,2.8-1.9
		c1.1-0.5,2.5-0.8,4.1-0.8c2.1,0,3.9,0.5,5.4,1.6c1.5,1.1,2.6,2.7,3.3,4.7c0.7,2.1,0.7,4.6,0.2,7.7c-0.5,3-1.4,5.5-2.7,7.6
		c-1.3,2.1-2.9,3.7-4.8,4.8s-3.9,1.7-6,1.7c-1.6,0-2.8-0.3-3.8-0.8s-1.7-1.2-2.2-1.9c-0.5-0.7-0.9-1.4-1.1-2.1h-0.4l-0.7,4.3H526.7z
		 M535.3,442.7c-0.4,2.6-0.2,4.8,0.6,6.4c0.8,1.6,2.3,2.4,4.3,2.4c2.1,0,3.9-0.8,5.2-2.5s2.3-3.8,2.7-6.3c0.4-2.5,0.2-4.6-0.6-6.3
		s-2.3-2.5-4.4-2.5c-2.1,0-3.8,0.8-5.2,2.4C536.6,437.9,535.7,440.1,535.3,442.7z"/>
	<path class="st0" d="M570,456.9c-2.7,0-4.9-0.6-6.7-1.8s-3-2.9-3.8-5c-0.7-2.1-0.9-4.6-0.4-7.4c0.5-2.8,1.4-5.2,2.8-7.3
		c1.4-2.1,3.2-3.7,5.3-4.9s4.5-1.7,7.1-1.7c2.7,0,4.9,0.6,6.7,1.8c1.8,1.2,3,2.9,3.8,5c0.7,2.1,0.9,4.6,0.4,7.5
		c-0.5,2.8-1.4,5.2-2.8,7.3c-1.4,2.1-3.2,3.7-5.3,4.9C575,456.3,572.6,456.9,570,456.9z M570.5,451.7c1.5,0,2.8-0.4,3.9-1.2
		c1.1-0.8,2.1-1.9,2.8-3.3s1.2-2.9,1.5-4.6c0.3-1.6,0.3-3.1,0-4.4s-0.8-2.4-1.6-3.2c-0.8-0.8-1.9-1.2-3.4-1.2
		c-1.5,0-2.8,0.4-3.9,1.2c-1.1,0.8-2.1,1.9-2.8,3.3c-0.7,1.4-1.2,2.9-1.5,4.6c-0.3,1.6-0.3,3.1,0,4.4c0.2,1.3,0.8,2.4,1.6,3.2
		C567.9,451.3,569,451.7,570.5,451.7z"/>
	<path class="st0" d="M600.8,420l-6,36.4h-6.4l6-36.4H600.8z"/>
	<path class="st0" d="M611.5,456.8c-2.1,0-4-0.6-5.5-1.7s-2.6-2.7-3.2-4.8c-0.6-2.1-0.7-4.6-0.2-7.6c0.5-3,1.4-5.6,2.8-7.7
		c1.3-2.1,3-3.7,4.8-4.7s3.9-1.6,6-1.6c1.6,0,2.9,0.3,3.8,0.8c0.9,0.5,1.6,1.2,2.1,1.9c0.5,0.8,0.8,1.5,1,2.1h0.3l2.3-13.6h6.4
		l-6,36.4h-6.3l0.7-4.3h-0.4c-0.4,0.7-1,1.4-1.8,2.1c-0.8,0.7-1.7,1.4-2.8,1.9C614.4,456.6,613,456.8,611.5,456.8z M614.1,451.6
		c2,0,3.8-0.8,5.2-2.4s2.3-3.8,2.8-6.4c0.4-2.7,0.2-4.8-0.6-6.3c-0.9-1.6-2.3-2.4-4.4-2.4c-2.1,0-3.9,0.8-5.2,2.5
		c-1.3,1.6-2.2,3.7-2.6,6.3c-0.4,2.6-0.2,4.7,0.6,6.3S611.9,451.6,614.1,451.6z"/>
	<path class="st0" d="M658.3,420l-6,36.4h-6.6l6-36.4H658.3z"/>
	<path class="st0" d="M677.3,429.1l-0.8,5H671l-2.3,14.1c-0.2,1.3,0,2.1,0.5,2.5c0.5,0.4,1.2,0.6,2,0.6c0.4,0,0.8,0,1.1-0.1
		c0.3-0.1,0.6-0.1,0.8-0.2l0.3,5c-0.4,0.1-0.9,0.2-1.6,0.4c-0.7,0.1-1.4,0.2-2.4,0.2c-2.4,0.1-4.4-0.5-5.8-1.8
		c-1.4-1.3-1.9-3.2-1.5-5.7l2.5-15.2h-3.9l0.8-5h3.9l1.1-6.5h6.4l-1.1,6.5H677.3z"/>
	<path class="st0" d="M685.9,456.9c-2.6,0-4.6-0.7-6.2-2.1c-1.5-1.4-2.1-3.4-1.6-6.1c0.3-2,1.1-3.6,2.3-4.8c1.2-1.1,2.6-2,4.3-2.5
		c1.7-0.5,3.4-0.9,5.2-1.1c2.4-0.3,4.2-0.5,5.3-0.7c1.1-0.2,1.7-0.8,1.9-1.7v-0.1c0.2-1.3,0-2.4-0.6-3.1c-0.6-0.7-1.7-1.1-3.2-1.1
		c-1.6,0-2.9,0.3-3.9,1c-1.1,0.7-1.8,1.5-2.3,2.4l-5.8-0.9c1.1-2.5,2.8-4.4,5.1-5.6s4.9-1.9,7.7-1.9c1.3,0,2.6,0.2,3.8,0.5
		c1.2,0.3,2.4,0.8,3.3,1.5c1,0.7,1.7,1.7,2.1,2.9s0.5,2.7,0.2,4.5l-3,18.3h-6.2l0.6-3.7h-0.2c-0.8,1.1-1.9,2.2-3.3,3
		C689.8,456.5,688,456.9,685.9,456.9z M688.3,452.2c1.9,0,3.6-0.6,4.9-1.7c1.3-1.1,2.1-2.4,2.4-3.9l0.5-3.2
		c-0.3,0.2-0.8,0.4-1.6,0.6s-1.6,0.3-2.4,0.4c-0.8,0.1-1.5,0.2-2.1,0.3c-1.5,0.2-2.7,0.6-3.8,1.2c-1.1,0.6-1.7,1.5-1.9,2.7
		c-0.2,1.2,0.1,2.1,0.8,2.7S687,452.2,688.3,452.2z"/>
	<path class="st0" d="M719.3,420l-6,36.4h-6.4l6-36.4H719.3z"/>
	<path class="st0" d="M719.9,456.4l4.5-27.3h6.4l-4.5,27.3H719.9z M728.6,425.2c-1,0-1.9-0.3-2.5-1s-1-1.5-0.9-2.5
		c0.1-1,0.5-1.8,1.3-2.5s1.7-1,2.7-1c1,0,1.9,0.3,2.5,1c0.7,0.7,1,1.5,0.9,2.5c-0.1,1-0.5,1.8-1.3,2.5S729.6,425.2,728.6,425.2z"/>
	<path class="st0" d="M744.7,456.9c-2.7,0-5-0.6-6.7-1.8c-1.8-1.2-3-2.9-3.7-5c-0.7-2.1-0.8-4.6-0.3-7.3c0.5-2.8,1.4-5.2,2.8-7.3
		c1.4-2.1,3.2-3.8,5.4-5c2.2-1.2,4.6-1.8,7.2-1.8c3.3,0,5.9,0.9,7.7,2.7c1.8,1.8,2.6,4.2,2.4,7.1h-6.2c0-1.3-0.4-2.4-1.2-3.3
		s-1.9-1.3-3.5-1.3c-2,0-3.7,0.8-5.2,2.3c-1.5,1.6-2.4,3.7-2.9,6.5c-0.5,2.8-0.2,5,0.7,6.6c0.9,1.6,2.4,2.4,4.4,2.4
		c1.4,0,2.7-0.4,3.8-1.2c1.1-0.8,1.9-1.9,2.5-3.4h6.1c-0.5,1.9-1.4,3.6-2.6,5.1s-2.8,2.6-4.6,3.5C749.1,456.5,747,456.9,744.7,456.9
		z"/>
</g>
</svg>
