<?xml version="1.0" encoding="utf-8"?>
<!-- Generator: Adobe Illustrator 23.0.2, SVG Export Plug-In . SVG Version: 6.00 Build 0)  -->
<svg version="1.1" id="Livello_1" xmlns="http://www.w3.org/2000/svg" xmlns:xlink="http://www.w3.org/1999/xlink" x="0px" y="0px"
	 viewBox="0 0 1024 768" style="enable-background:new 0 0 1024 768;" xml:space="preserve">
<style type="text/css">
	.st0{fill:#FFFFFF;}
	.st1{opacity:0.5;}
</style>
<path class="st0" d="M396.4,210.3v362h225.3v-362L396.4,210.3z M588.9,539.5H428.6v-297h160.2v297H588.9z"/>
<path class="st0" d="M493.1,342.1v102.1c0,30.7,15.1,41.8,47.6,57.3l13.9-24.8l-17-9.9c-8.8-5.1-12.3-10.8-12.8-25.6v-102
	c0-30.7-15.1-41.8-47.6-57.3l-13.9,24.8l16.9,9.7C489.1,321.6,492.6,327.3,493.1,342.1z"/>
<g class="st1">
	<path class="st0" d="M90.1,59.8c29.5-9.7,51.4,2.8,59.1,26c10.6,32.1-21.7,50.1-16.2,66.7c0.9,2.7,1.7,3.8,1.7,3.8l-27.4,9
		c0,0-1.2-2.4-1.8-4.2c-10.1-30.7,21.7-47.3,15.8-65.3c-3.4-10.4-12.5-14.1-22.6-10.8c-10.6,3.5-15.5,12.9-12.1,23.1
		c1.7,5.1,4.6,10,4.6,10l-27.8,9.2c0,0-3-4.6-5.2-11.1C50.4,92.6,62.3,69,90.1,59.8z M112.9,191.9c-3.4-10.2,1.4-20,11.8-23.4
		c10.2-3.4,20.1,1.6,23.4,11.8c3.4,10.4-1.7,19.9-11.9,23.2C125.9,207,116.3,202.3,112.9,191.9z"/>
</g>
<g class="st1">
	<path class="st0" d="M136.1,316c19.2,12,22.4,30.2,12.9,45.3c-13.1,20.9-38.2,11.2-45,22c-1.1,1.8-1.3,2.7-1.3,2.7l-17.8-11.2
		c0,0,0.8-1.8,1.5-3c12.5-20,36.7-9.8,44-21.6c4.2-6.7,2.1-13.6-4.5-17.7c-6.9-4.3-14.5-2.7-18.6,3.9c-2.1,3.3-3.5,7.2-3.5,7.2
		l-18.1-11.3c0,0,1.2-3.9,3.8-8.1C99.2,309,118.1,304.7,136.1,316z M72.6,390.3c4.1-6.6,11.9-8.5,18.6-4.3c6.6,4.1,8.4,12,4.3,18.6
		c-4.2,6.7-11.9,8.3-18.6,4.2C70.2,404.6,68.3,397.1,72.6,390.3z"/>
</g>
<g class="st1">
	<path class="st0" d="M145.1,426c11-0.8,17.5,5.4,18.1,14.1c0.9,12-11.8,15.4-11.4,21.6c0.1,1,0.2,1.4,0.2,1.4l-10.2,0.7
		c0,0-0.2-0.9-0.3-1.6c-0.8-11.5,11.6-14.4,11.1-21.1c-0.3-3.9-3.1-5.9-6.9-5.7c-3.9,0.3-6.5,3.1-6.2,6.9c0.1,1.9,0.7,3.8,0.7,3.8
		L130,447c0,0-0.6-1.9-0.8-4.3C128.5,433.9,134.7,426.8,145.1,426z M141.4,473.5c-0.3-3.8,2.2-6.8,6.1-7c3.8-0.3,6.8,2.3,7,6.1
		c0.3,3.9-2.3,6.7-6.1,7C144.6,479.8,141.7,477.4,141.4,473.5z"/>
</g>
<g class="st1">
	<path class="st0" d="M241.9,184c-21.6,7-37.5-2.2-43-19.2c-7.6-23.4,16-36.5,12-48.6c-0.6-2-1.2-2.8-1.2-2.8l20-6.5
		c0,0,0.9,1.8,1.3,3.1c7.3,22.4-16,34.4-11.7,47.6c2.5,7.6,9,10.3,16.5,7.9c7.7-2.5,11.3-9.4,8.9-16.8c-1.2-3.7-3.3-7.3-3.3-7.3
		l20.3-6.6c0,0,2.2,3.4,3.7,8.1C271,160.2,262.2,177.4,241.9,184z M225.7,87.6c2.4,7.4-1.1,14.6-8.7,17c-7.4,2.4-14.6-1.3-17-8.7
		c-2.5-7.6,1.3-14.5,8.7-16.9C216.3,76.6,223.3,80,225.7,87.6z"/>
</g>
<g class="st1">
	<path class="st0" d="M90.1,575.8c29.5-9.7,51.4,2.8,59.1,26c10.6,32.1-21.7,50.1-16.2,66.7c0.9,2.7,1.7,3.8,1.7,3.8l-27.4,9
		c0,0-1.2-2.4-1.8-4.2c-10.1-30.7,21.7-47.3,15.8-65.3c-3.4-10.4-12.5-14.1-22.6-10.8c-10.6,3.5-15.5,12.9-12.1,23.1
		c1.7,5.1,4.6,10,4.6,10l-27.8,9.2c0,0-3-4.6-5.2-11.1C50.4,608.6,62.3,585,90.1,575.8z M112.9,707.9c-3.4-10.2,1.4-20,11.8-23.4
		c10.2-3.4,20.1,1.6,23.4,11.8c3.4,10.4-1.7,19.9-11.9,23.2C125.9,723,116.3,718.3,112.9,707.9z"/>
</g>
<g class="st1">
	<path class="st0" d="M241.9,700c-21.6,7-37.5-2.2-43-19.2c-7.6-23.4,16-36.5,12-48.6c-0.6-2-1.2-2.8-1.2-2.8l20-6.5
		c0,0,0.9,1.8,1.3,3.1c7.3,22.4-16,34.4-11.7,47.6c2.5,7.6,9,10.3,16.5,7.9c7.7-2.5,11.3-9.4,8.9-16.8c-1.2-3.7-3.3-7.3-3.3-7.3
		l20.3-6.6c0,0,2.2,3.4,3.7,8.1C271,676.2,262.2,693.4,241.9,700z M225.7,603.6c2.4,7.4-1.1,14.6-8.7,17c-7.4,2.4-14.6-1.3-17-8.7
		c-2.5-7.6,1.3-14.5,8.7-16.9C216.3,592.6,223.3,596,225.7,603.6z"/>
</g>
<g class="st1">
	<path class="st0" d="M915.1,59.8c29.5-9.7,51.4,2.8,59.1,26c10.6,32.1-21.7,50.1-16.2,66.7c0.9,2.7,1.7,3.8,1.7,3.8l-27.4,9
		c0,0-1.2-2.4-1.8-4.2c-10.1-30.7,21.7-47.3,15.8-65.3c-3.4-10.4-12.5-14.1-22.6-10.8c-10.6,3.5-15.5,12.9-12.1,23.1
		c1.7,5.1,4.6,10,4.6,10l-27.8,9.2c0,0-3-4.6-5.2-11.1C875.4,92.6,887.3,69,915.1,59.8z M937.9,191.9c-3.4-10.2,1.4-20,11.8-23.4
		c10.2-3.4,20.1,1.6,23.4,11.8c3.4,10.4-1.7,19.9-11.9,23.2C950.9,207,941.3,202.3,937.9,191.9z"/>
</g>
<g class="st1">
	<path class="st0" d="M948.1,316c19.2,12,22.4,30.2,12.9,45.3c-13.1,20.9-38.2,11.2-45,22c-1.1,1.8-1.3,2.7-1.3,2.7l-17.8-11.2
		c0,0,0.8-1.8,1.5-3c12.5-20,36.7-9.8,44-21.6c4.2-6.7,2.1-13.6-4.5-17.7c-6.9-4.3-14.5-2.7-18.6,3.9c-2.1,3.3-3.5,7.2-3.5,7.2
		l-18.1-11.3c0,0,1.2-3.9,3.8-8.1C911.2,309,930.1,304.7,948.1,316z M884.6,390.3c4.1-6.6,11.9-8.5,18.6-4.3
		c6.6,4.1,8.4,12,4.3,18.6c-4.2,6.7-11.9,8.3-18.6,4.2C882.2,404.6,880.3,397.1,884.6,390.3z"/>
</g>
<g class="st1">
	<path class="st0" d="M957.1,426c11-0.8,17.5,5.4,18.1,14.1c0.9,12-11.8,15.4-11.4,21.6c0.1,1,0.2,1.4,0.2,1.4l-10.2,0.7
		c0,0-0.2-0.9-0.3-1.6c-0.8-11.5,11.6-14.4,11.1-21.1c-0.3-3.9-3.1-5.9-6.9-5.7c-3.9,0.3-6.5,3.1-6.2,6.9c0.1,1.9,0.7,3.8,0.7,3.8
		L942,447c0,0-0.6-1.9-0.8-4.3C940.5,433.9,946.7,426.8,957.1,426z M953.4,473.5c-0.3-3.8,2.2-6.8,6.1-7c3.8-0.3,6.8,2.3,7,6.1
		c0.3,3.9-2.3,6.7-6.1,7C956.6,479.8,953.7,477.4,953.4,473.5z"/>
</g>
<g class="st1">
	<path class="st0" d="M834.9,184c-21.6,7-37.5-2.2-43-19.2c-7.6-23.4,16-36.5,12-48.6c-0.7-2-1.2-2.8-1.2-2.8l20-6.5
		c0,0,0.9,1.8,1.3,3.1c7.3,22.4-16,34.4-11.7,47.6c2.5,7.6,9,10.3,16.5,7.9c7.7-2.5,11.3-9.4,8.9-16.8c-1.2-3.7-3.3-7.3-3.3-7.3
		l20.3-6.6c0,0,2.2,3.4,3.7,8.1C864,160.2,855.2,177.4,834.9,184z M818.7,87.6c2.4,7.4-1.1,14.6-8.7,17c-7.4,2.4-14.6-1.3-17-8.7
		c-2.5-7.6,1.3-14.5,8.7-16.9C809.3,76.6,816.3,80,818.7,87.6z"/>
</g>
<g class="st1">
	<path class="st0" d="M915.1,575.8c29.5-9.7,51.4,2.8,59.1,26c10.6,32.1-21.7,50.1-16.2,66.7c0.9,2.7,1.7,3.8,1.7,3.8l-27.4,9
		c0,0-1.2-2.4-1.8-4.2c-10.1-30.7,21.7-47.3,15.8-65.3c-3.4-10.4-12.5-14.1-22.6-10.8c-10.6,3.5-15.5,12.9-12.1,23.1
		c1.7,5.1,4.6,10,4.6,10l-27.8,9.2c0,0-3-4.6-5.2-11.1C875.4,608.6,887.3,585,915.1,575.8z M937.9,707.9c-3.4-10.2,1.4-20,11.8-23.4
		c10.2-3.4,20.1,1.6,23.4,11.8c3.4,10.4-1.7,19.9-11.9,23.2C950.9,723,941.3,718.3,937.9,707.9z"/>
</g>
<g class="st1">
	<path class="st0" d="M818.9,700c-21.6,7-37.5-2.2-43-19.2c-7.6-23.4,16-36.5,12-48.6c-0.7-2-1.2-2.8-1.2-2.8l20-6.5
		c0,0,0.9,1.8,1.3,3.1c7.3,22.4-16,34.4-11.7,47.6c2.5,7.6,9,10.3,16.5,7.9c7.7-2.5,11.3-9.4,8.9-16.8c-1.2-3.7-3.3-7.3-3.3-7.3
		l20.3-6.6c0,0,2.2,3.4,3.7,8.1C848,676.2,839.2,693.4,818.9,700z M802.7,603.6c2.4,7.4-1.1,14.6-8.7,17c-7.4,2.4-14.6-1.3-17-8.7
		c-2.5-7.6,1.3-14.5,8.7-16.9C793.3,592.6,800.3,596,802.7,603.6z"/>
</g>
</svg>
