<?xml version="1.0" encoding="utf-8"?>
<!-- Generator: Adobe Illustrator 23.0.2, SVG Export Plug-In . SVG Version: 6.00 Build 0)  -->
<svg version="1.1" id="Livello_1" xmlns="http://www.w3.org/2000/svg" xmlns:xlink="http://www.w3.org/1999/xlink" x="0px" y="0px"
	 viewBox="0 0 1011.3 779.5" style="enable-background:new 0 0 1011.3 779.5;" xml:space="preserve">
<style type="text/css">
	.st0{fill:#FFFFFF;}
	.st1{opacity:0.5;}
</style>
<path class="st0" d="M380.5,205.8v362h225.3v-362H380.5z M573,535H412.7V238h160.2v297H573z"/>
<path class="st0" d="M477.2,337.6v102.1c0,30.7,15.1,41.8,47.6,57.3l13.9-24.8l-17-9.9c-8.8-5.1-12.3-10.8-12.8-25.6v-102
	c0-30.7-15.1-41.8-47.6-57.3l-13.9,24.8l16.9,9.7C473.2,317.1,476.7,322.8,477.2,337.6z"/>
<g class="st1">
	<path class="st0" d="M74.2,55.3c29.5-9.7,51.4,2.8,59.1,26c10.6,32.1-21.7,50.1-16.2,66.7c0.9,2.7,1.7,3.8,1.7,3.8l-27.4,9
		c0,0-1.2-2.4-1.8-4.2c-10.1-30.7,21.7-47.3,15.8-65.3C102,80.9,92.9,77.2,82.8,80.5C72.2,84,67.3,93.4,70.7,103.6
		c1.7,5.1,4.6,10,4.6,10l-27.8,9.2c0,0-3-4.6-5.2-11.1C34.5,88.1,46.4,64.5,74.2,55.3z M97,187.4c-3.4-10.2,1.4-20,11.8-23.4
		c10.2-3.4,20.1,1.6,23.4,11.8c3.4,10.4-1.7,19.9-11.9,23.2C110,202.5,100.4,197.8,97,187.4z"/>
</g>
<g class="st1">
	<path class="st0" d="M120.2,311.5c19.2,12,22.4,30.2,12.9,45.3c-13.1,20.9-38.2,11.2-45,22c-1.1,1.8-1.3,2.7-1.3,2.7L69,370.3
		c0,0,0.8-1.8,1.5-3c12.5-20,36.7-9.8,44-21.6c4.2-6.7,2.1-13.6-4.5-17.7c-6.9-4.3-14.5-2.7-18.6,3.9c-2.1,3.3-3.5,7.2-3.5,7.2
		l-18.1-11.3c0,0,1.2-3.9,3.8-8.1C83.3,304.5,102.2,300.2,120.2,311.5z M56.7,385.8c4.1-6.6,11.9-8.5,18.6-4.3
		c6.6,4.1,8.4,12,4.3,18.6c-4.2,6.7-11.9,8.3-18.6,4.2C54.3,400.1,52.4,392.6,56.7,385.8z"/>
</g>
<g class="st1">
	<path class="st0" d="M129.2,421.5c11-0.8,17.5,5.4,18.1,14.1c0.9,12-11.8,15.4-11.4,21.6c0.1,1,0.2,1.4,0.2,1.4l-10.2,0.7
		c0,0-0.2-0.9-0.3-1.6c-0.8-11.5,11.6-14.4,11.1-21.1c-0.3-3.9-3.1-5.9-6.9-5.7c-3.9,0.3-6.5,3.1-6.2,6.9c0.1,1.9,0.7,3.8,0.7,3.8
		l-10.2,0.9c0,0-0.6-1.9-0.8-4.3C112.6,429.4,118.8,422.3,129.2,421.5z M125.5,469c-0.3-3.8,2.2-6.8,6.1-7c3.8-0.3,6.8,2.3,7,6.1
		c0.3,3.9-2.3,6.7-6.1,7C128.7,475.3,125.8,472.9,125.5,469z"/>
</g>
<g class="st1">
	<path class="st0" d="M226,179.5c-21.6,7-37.5-2.2-43-19.2c-7.6-23.4,16-36.5,12-48.6c-0.6-2-1.2-2.8-1.2-2.8l20-6.5
		c0,0,0.9,1.8,1.3,3.1c7.3,22.4-16,34.4-11.7,47.6c2.5,7.6,9,10.3,16.5,7.9c7.7-2.5,11.3-9.4,8.9-16.8c-1.2-3.7-3.3-7.3-3.3-7.3
		l20.3-6.6c0,0,2.2,3.4,3.7,8.1C255.1,155.7,246.3,172.9,226,179.5z M209.8,83.1c2.4,7.4-1.1,14.6-8.7,17c-7.4,2.4-14.6-1.3-17-8.7
		c-2.5-7.6,1.3-14.5,8.7-16.9C200.4,72.1,207.4,75.5,209.8,83.1z"/>
</g>
<g class="st1">
	<path class="st0" d="M74.2,571.3c29.5-9.7,51.4,2.8,59.1,26c10.6,32.1-21.7,50.1-16.2,66.7c0.9,2.7,1.7,3.8,1.7,3.8l-27.4,9
		c0,0-1.2-2.4-1.8-4.2c-10.1-30.7,21.7-47.3,15.8-65.3c-3.4-10.4-12.5-14.1-22.6-10.8c-10.6,3.5-15.5,12.9-12.1,23.1
		c1.7,5.1,4.6,10,4.6,10l-27.8,9.2c0,0-3-4.6-5.2-11.1C34.5,604.1,46.4,580.5,74.2,571.3z M97,703.4c-3.4-10.2,1.4-20,11.8-23.4
		c10.2-3.4,20.1,1.6,23.4,11.8c3.4,10.4-1.7,19.9-11.9,23.2C110,718.5,100.4,713.8,97,703.4z"/>
</g>
<g class="st1">
	<path class="st0" d="M226,695.5c-21.6,7-37.5-2.2-43-19.2c-7.6-23.4,16-36.5,12-48.6c-0.6-2-1.2-2.8-1.2-2.8l20-6.5
		c0,0,0.9,1.8,1.3,3.1c7.3,22.4-16,34.4-11.7,47.6c2.5,7.6,9,10.3,16.5,7.9c7.7-2.5,11.3-9.4,8.9-16.8c-1.2-3.7-3.3-7.3-3.3-7.3
		l20.3-6.6c0,0,2.2,3.4,3.7,8.1C255.1,671.7,246.3,688.9,226,695.5z M209.8,599.1c2.4,7.4-1.1,14.6-8.7,17c-7.4,2.4-14.6-1.3-17-8.7
		c-2.5-7.6,1.3-14.5,8.7-16.9C200.4,588.1,207.4,591.5,209.8,599.1z"/>
</g>
<g class="st1">
	<path class="st0" d="M899.2,55.3c29.5-9.7,51.4,2.8,59.1,26c10.6,32.1-21.7,50.1-16.2,66.7c0.9,2.7,1.7,3.8,1.7,3.8l-27.4,9
		c0,0-1.2-2.4-1.8-4.2c-10.1-30.7,21.7-47.3,15.8-65.3c-3.4-10.4-12.5-14.1-22.6-10.8c-10.6,3.5-15.5,12.9-12.1,23.1
		c1.7,5.1,4.6,10,4.6,10l-27.8,9.2c0,0-3-4.6-5.2-11.1C859.5,88.1,871.4,64.5,899.2,55.3z M922,187.4c-3.4-10.2,1.4-20,11.8-23.4
		c10.2-3.4,20.1,1.6,23.4,11.8c3.4,10.4-1.7,19.9-11.9,23.2C935,202.5,925.4,197.8,922,187.4z"/>
</g>
<g class="st1">
	<path class="st0" d="M932.2,311.5c19.2,12,22.4,30.2,12.9,45.3c-13.1,20.9-38.2,11.2-45,22c-1.1,1.8-1.3,2.7-1.3,2.7L881,370.3
		c0,0,0.8-1.8,1.5-3c12.5-20,36.7-9.8,44-21.6c4.2-6.7,2.1-13.6-4.5-17.7c-6.9-4.3-14.5-2.7-18.6,3.9c-2.1,3.3-3.5,7.2-3.5,7.2
		l-18.1-11.3c0,0,1.2-3.9,3.8-8.1C895.3,304.5,914.2,300.2,932.2,311.5z M868.7,385.8c4.1-6.6,11.9-8.5,18.6-4.3
		c6.6,4.1,8.4,12,4.3,18.6c-4.2,6.7-11.9,8.3-18.6,4.2C866.3,400.1,864.4,392.6,868.7,385.8z"/>
</g>
<g class="st1">
	<path class="st0" d="M941.2,421.5c11-0.8,17.5,5.4,18.1,14.1c0.9,12-11.8,15.4-11.4,21.6c0.1,1,0.2,1.4,0.2,1.4l-10.2,0.7
		c0,0-0.2-0.9-0.3-1.6c-0.8-11.5,11.6-14.4,11.1-21.1c-0.3-3.9-3.1-5.9-6.9-5.7c-3.9,0.3-6.5,3.1-6.2,6.9c0.1,1.9,0.7,3.8,0.7,3.8
		l-10.2,0.9c0,0-0.6-1.9-0.8-4.3C924.6,429.4,930.8,422.3,941.2,421.5z M937.5,469c-0.3-3.8,2.2-6.8,6.1-7c3.8-0.3,6.8,2.3,7,6.1
		c0.3,3.9-2.3,6.7-6.1,7C940.7,475.3,937.8,472.9,937.5,469z"/>
</g>
<g class="st1">
	<path class="st0" d="M819,179.5c-21.6,7-37.5-2.2-43-19.2c-7.6-23.4,16-36.5,12-48.6c-0.7-2-1.2-2.8-1.2-2.8l20-6.5
		c0,0,0.9,1.8,1.3,3.1c7.3,22.4-16,34.4-11.7,47.6c2.5,7.6,9,10.3,16.5,7.9c7.7-2.5,11.3-9.4,8.9-16.8c-1.2-3.7-3.3-7.3-3.3-7.3
		l20.3-6.6c0,0,2.2,3.4,3.7,8.1C848.1,155.7,839.3,172.9,819,179.5z M802.8,83.1c2.4,7.4-1.1,14.6-8.7,17c-7.4,2.4-14.6-1.3-17-8.7
		c-2.5-7.6,1.3-14.5,8.7-16.9C793.4,72.1,800.4,75.5,802.8,83.1z"/>
</g>
<g class="st1">
	<path class="st0" d="M899.2,571.3c29.5-9.7,51.4,2.8,59.1,26c10.6,32.1-21.7,50.1-16.2,66.7c0.9,2.7,1.7,3.8,1.7,3.8l-27.4,9
		c0,0-1.2-2.4-1.8-4.2c-10.1-30.7,21.7-47.3,15.8-65.3c-3.4-10.4-12.5-14.1-22.6-10.8c-10.6,3.5-15.5,12.9-12.1,23.1
		c1.7,5.1,4.6,10,4.6,10l-27.8,9.2c0,0-3-4.6-5.2-11.1C859.5,604.1,871.4,580.5,899.2,571.3z M922,703.4c-3.4-10.2,1.4-20,11.8-23.4
		c10.2-3.4,20.1,1.6,23.4,11.8c3.4,10.4-1.7,19.9-11.9,23.2C935,718.5,925.4,713.8,922,703.4z"/>
</g>
<g class="st1">
	<path class="st0" d="M803,695.5c-21.6,7-37.5-2.2-43-19.2c-7.6-23.4,16-36.5,12-48.6c-0.7-2-1.2-2.8-1.2-2.8l20-6.5
		c0,0,0.9,1.8,1.3,3.1c7.3,22.4-16,34.4-11.7,47.6c2.5,7.6,9,10.3,16.5,7.9c7.7-2.5,11.3-9.4,8.9-16.8c-1.2-3.7-3.3-7.3-3.3-7.3
		l20.3-6.6c0,0,2.2,3.4,3.7,8.1C832.1,671.7,823.3,688.9,803,695.5z M786.8,599.1c2.4,7.4-1.1,14.6-8.7,17c-7.4,2.4-14.6-1.3-17-8.7
		c-2.5-7.6,1.3-14.5,8.7-16.9C777.4,588.1,784.4,591.5,786.8,599.1z"/>
</g>
</svg>
