<?xml version="1.0" encoding="utf-8"?>
<!-- Generator: Adobe Illustrator 23.0.2, SVG Export Plug-In . SVG Version: 6.00 Build 0)  -->
<svg version="1.1" id="Livello_1" xmlns="http://www.w3.org/2000/svg" xmlns:xlink="http://www.w3.org/1999/xlink" x="0px" y="0px"
	 viewBox="0 0 200 38" style="enable-background:new 0 0 200 38;" xml:space="preserve">
<style type="text/css">
	.st0{fill:#FFFFFF;}
</style>
<title>solidus</title>
<desc>Created with Sketch.</desc>
<g id="Page-1">
	<g id="solidus">
		<path id="Shape" class="st0" d="M68.6,17.9l-4.3-0.8c-1.6-0.3-2.6-0.9-2.6-2.1c0-1.6,1.8-2.5,3.6-2.5c1.4,0,3.2,0.4,5.3,2.2l2.4-3
			C70.4,9.8,68,9,65.3,9c-5,0-7.8,3.1-7.8,6.5c0,2.8,1.6,4.6,7.1,5.7l2.4,0.5c1.6,0.3,2.6,1,2.6,2.3c0,1.1-1.5,2.5-3.9,2.5
			c-2.2,0-4.7-1.3-6.2-2.9l-3,3c2.7,2.3,5.6,3.5,8.9,3.5c6,0,8.4-3.7,8.4-6.7S72.1,18.6,68.6,17.9z M86.5,9c-7,0-11,5.2-11,10.4
			s4,10.5,11,10.5s10.9-5.2,10.9-10.4S93.4,9,86.5,9z M86.5,25.9c-3.5,0-6.4-2.9-6.4-6.4s2.8-6.5,6.4-6.5c3.5,0,6.4,2.9,6.4,6.4
			c0,1.7-0.6,3.4-1.8,4.6C89.8,25.2,88.2,25.9,86.5,25.9L86.5,25.9z M112.1,3.6c-1.2,0-2.1,1-2.1,2.1s1,2.1,2.1,2.1
			c1.2,0,2.1-1,2.1-2.1S113.2,3.6,112.1,3.6z M109.9,12.1h4.2v17.8h-4.2V12.1z M133.8,11.1c-2-1.4-4.3-2.1-6.7-2
			c-6.9,0-10.9,5.2-10.9,10.4s4,10.4,10.9,10.4c2.4,0,4.7-0.7,6.7-2.1v2h4.2V3.6h-4.2V11.1z M127.1,25.9c-3.5,0-6.4-2.9-6.4-6.4
			s2.9-6.4,6.4-6.4c3.5,0,6.4,2.9,6.4,6.4c0,1.7-0.6,3.4-1.8,4.6C130.5,25.2,128.9,25.9,127.1,25.9L127.1,25.9z M154,20.6
			c0,2.9-2.1,5-4.8,5c-2.6,0-4.8-2.1-4.8-5V9h-4.3v12c0,5.6,4.3,8.9,9.1,8.9c4.7,0,9.1-3.3,9.1-8.9V9H154L154,20.6L154,20.6z
			 M171.2,18l-4.3-0.8c-1.6-0.3-2.6-0.9-2.6-2.1c0-1.6,1.8-2.5,3.6-2.5c1.4,0,3.2,0.4,5.3,2.2l2.4-3c-2.7-1.9-5.1-2.8-7.9-2.8
			c-5,0-7.8,3.1-7.8,6.5c0,2.8,1.6,4.6,7.1,5.6l2.4,0.5c1.6,0.3,2.6,1,2.6,2.3c0,1.1-1.5,2.5-3.9,2.5c-2.2,0-4.7-1.3-6.2-2.9l-2.9,3
			c2.7,2.3,5.5,3.5,8.9,3.5c6,0,8.4-3.7,8.4-6.7S174.7,18.6,171.2,18z M103.8,21.8V8c0-4.1-2-5.6-6.4-7.7l-1.9,3.3l2.3,1.3
			c1.2,0.7,1.7,1.5,1.7,3.5v13.8c0,4.1,2,5.6,6.4,7.7l1.9-3.4l-2.3-1.3C104.3,24.5,103.8,23.8,103.8,21.8z M23.7,37.9h23.5V0.2H23.7
			V37.9z M27.1,3.5h16.7v31H27.1V3.5z"/>
		<path id="Path" class="st0" d="M37.1,24.2V13.6c0-3.2-1.6-4.4-5-6l-1.4,2.6l1.8,1c0.9,0.5,1.3,1.1,1.3,2.7v10.7c0,3.2,1.6,4.4,5,6
			l1.4-2.6l-1.8-1C37.5,26.4,37.1,25.8,37.1,24.2z"/>
	</g>
</g>
</svg>
