<?xml version="1.0" encoding="UTF-8"?>
<svg width="153px" height="38px" viewBox="0 0 153 38" version="1.1" xmlns="http://www.w3.org/2000/svg" xmlns:xlink="http://www.w3.org/1999/xlink">
    <!-- Generator: Sketch 53.2 (72643) - https://sketchapp.com -->
    <title>solidus</title>
    <desc>Created with Sketch.</desc>
    <g id="Page-1" stroke="none" stroke-width="1" fill="none" fill-rule="evenodd">
        <g id="solidus" fill="#242830" fill-rule="nonzero">
            <path d="M45.0815035,17.9295775 L40.8017832,17.1214085 C39.1540909,16.8484507 38.2179021,16.2222535 38.2179021,15.0394366 C38.2179021,13.4338028 40.0314336,12.54 41.861014,12.54 C43.2572727,12.54 45.1082517,12.9735211 47.2106643,14.7450704 L49.6447552,11.7478873 C46.9378322,9.81042254 44.5251399,8.99690141 41.7807692,8.99690141 C36.826993,8.99690141 33.9916783,12.1225352 33.9916783,15.4729577 C33.9916783,18.3042254 35.5537762,20.0971831 41.1334615,21.1408451 L43.5461538,21.5957746 C45.1082517,21.8901408 46.130035,22.5752113 46.130035,23.8864789 C46.130035,24.9890141 44.6481818,26.3859155 42.1926923,26.3859155 C39.9886364,26.3859155 37.4903497,25.1174648 35.971049,23.4690141 L33.0073427,26.4287324 C35.7142657,28.7194366 38.587028,29.9076056 41.9359091,29.9076056 C47.9542657,29.9076056 50.3241608,26.1611268 50.3241608,23.2228169 C50.3241608,20.284507 48.5962238,18.5771831 45.0815035,17.9295775 Z M62.960035,8.99690141 C56.0054895,8.99690141 52.0306993,14.204507 52.0306993,19.4335211 C52.0306993,24.6625352 56.0482867,29.8647887 62.960035,29.8647887 C69.8717832,29.8647887 73.8893706,24.6571831 73.8893706,19.4335211 C73.8893706,14.2098592 69.8717832,8.99690141 62.960035,8.99690141 Z M62.960035,25.888169 C59.4145986,25.888169 56.5404545,23.0127021 56.5404545,19.4656338 C56.5404545,15.9185656 59.4145986,13.0430986 62.960035,13.0430986 C66.5054713,13.0430986 69.3796154,15.9185656 69.3796154,19.4656338 C69.4073697,21.1773574 68.7399392,22.8271373 67.5299656,24.0376678 C66.3199919,25.2481984 64.670971,25.9159362 62.960035,25.888169 L62.960035,25.888169 Z M88.5634615,3.58591549 C87.3816494,3.58591549 86.4236014,4.54440448 86.4236014,5.72676056 C86.4236014,6.90911665 87.3816494,7.86760563 88.5634615,7.86760563 C89.7452737,7.86760563 90.7033217,6.90911665 90.7033217,5.72676056 C90.7033217,4.54440448 89.7452737,3.58591549 88.5634615,3.58591549 Z M86.4396503,12.1225352 L90.6872727,12.1225352 L90.6872727,29.8861972 L86.4396503,29.8861972 L86.4396503,12.1225352 Z M110.331189,11.0628169 C108.38013,9.68330673 106.038045,8.96666297 103.649476,9.01830986 C96.7430769,9.01830986 92.7254895,14.2259155 92.7254895,19.4495775 C92.7254895,24.6732394 96.7430769,29.8861972 103.649476,29.8861972 C106.037818,29.9246281 108.376941,29.205143 110.331189,27.8309859 L110.331189,29.875493 L114.578811,29.875493 L114.578811,3.58591549 L110.331189,3.58591549 L110.331189,11.0628169 Z M103.649476,25.888169 C100.104039,25.888169 97.2298951,23.0127021 97.2298951,19.4656338 C97.2298951,15.9185656 100.104039,13.0430986 103.649476,13.0430986 C107.194912,13.0430986 110.069056,15.9185656 110.069056,19.4656338 C110.09681,21.1773574 109.42938,22.8271373 108.219406,24.0376678 C107.009432,25.2481984 105.360412,25.9159362 103.649476,25.888169 L103.649476,25.888169 Z M130.531469,20.6377465 C130.531469,23.5546479 128.391608,25.6366197 125.743531,25.6366197 C123.095455,25.6366197 120.955594,23.5546479 120.955594,20.6377465 L120.955594,9.03971831 L116.675874,9.03971831 L116.675874,21.0123944 C116.675874,26.5946479 121.02514,29.9076056 125.727483,29.9076056 C130.429825,29.9076056 134.811189,26.5732394 134.811189,21.0123944 L134.811189,9.03971831 L130.531469,9.03971831 L130.531469,20.6377465 Z M147.65035,17.9938028 L143.370629,17.1802817 C141.722937,16.9126761 140.786748,16.2864789 140.786748,15.0983099 C140.786748,13.4926761 142.60028,12.5988732 144.42986,12.5988732 C145.826119,12.5988732 147.677098,13.0377465 149.77951,14.8092958 L152.213601,11.8121127 C149.512028,9.87464789 147.093986,9.06112676 144.349615,9.06112676 C139.395839,9.06112676 136.565874,12.1867606 136.565874,15.5371831 C136.565874,18.3470423 138.122622,20.1614085 143.680909,21.1783099 L146.098951,21.6385915 C147.655699,21.9276056 148.677483,22.6180282 148.677483,23.9292958 C148.677483,25.031831 147.200979,26.4287324 144.74549,26.4287324 C142.536084,26.4287324 140.037797,25.1602817 138.518497,23.511831 L135.608287,26.4929577 C138.288462,28.783662 141.155874,29.971831 144.510105,29.971831 C150.523112,29.971831 152.898357,26.2253521 152.898357,23.2870423 C152.898357,20.3487324 151.17042,18.6414085 147.65035,17.9938028 Z M80.2768531,21.7616901 L80.2768531,7.98 C80.2768531,3.83211268 78.2386364,2.33352113 73.8572727,0.230140845 L71.9848951,3.58591549 L74.2745455,4.8971831 C75.4568182,5.58225352 75.9382867,6.35295775 76.0024825,8.35464789 L76.0024825,22.1577465 C76.0024825,26.3056338 78.0406993,27.8042254 82.4220629,29.9076056 L84.2944406,26.551831 L82.0047902,25.2191549 C80.8171678,24.5340845 80.341049,23.7633803 80.2768531,21.7616901 Z M0.208636364,37.8876056 L23.6829021,37.8876056 L23.6829021,0.155211268 L0.208636364,0.155211268 L0.208636364,37.8876056 Z M3.56821678,3.51633803 L20.2698252,3.51633803 L20.2698252,34.4729577 L3.56821678,34.4729577 L3.56821678,3.51633803 Z" id="Shape"></path>
            <path d="M13.5934615,24.2450704 L13.5934615,13.6104225 C13.5934615,10.3991549 12.0206643,9.25915493 8.63433566,7.63746479 L7.18993007,10.2225352 L8.95531469,11.2394366 C9.8701049,11.7746479 10.2392308,12.3633803 10.2873776,13.915493 L10.2873776,24.5661972 C10.2873776,27.7774648 11.8601748,28.9174648 15.2465035,30.5391549 L16.6962587,27.9540845 L14.9255245,26.9104225 C14.0107343,26.3805634 13.6416084,25.7864789 13.5934615,24.2450704 Z" id="Path"></path>
        </g>
    </g>
</svg>